<?xml version="1.0" encoding="iso-8859-1"?>
<!-- Generator: Adobe Illustrator 21.1.0, SVG Export Plug-In . SVG Version: 6.00 Build 0)  -->
<svg version="1.1" id="_x31_2" xmlns="http://www.w3.org/2000/svg" xmlns:xlink="http://www.w3.org/1999/xlink" x="0px" y="0px"
	 viewBox="0 0 512 512" style="enable-background:new 0 0 512 512;" xml:space="preserve">
<g>
	<path style="fill:#94C85C;" d="M275.129,133.251c6.273-3.659,8.887-9.41,13.592-14.637s6.273-6.273,9.932-6.796
		c3.659-0.523,5.228,2.614,7.841,8.364c2.614,5.75,9.279,7.618,13.592,8.364c4.313,0.746,4.182-0.523,7.841-3.659
		c3.659-3.137,5.228-8.887,9.41-9.932c4.182-1.046,3.659,0,6.273,5.228c2.614,5.228,4.182,11.501,4.182,11.501
		s11.501,4.182,16.205,7.319c4.705,3.137,8.887,7.841,4.705,8.887c-4.182,1.046-25.092,2.091-37.116,6.273
		c-12.023,4.182-30.843,7.841-31.365,9.41c-0.523,1.568,7.319,3.659,9.41,3.659s18.297,5.75,22.479,9.932
		c4.182,4.182,18.297-0.523,21.433-4.182c3.137-3.659,1.568-7.841-3.659-9.932c-5.228-2.091-4.182-3.137,3.659-3.137
		s44.434-5.75,51.753-8.887c7.319-3.137,11.501-6.796,15.683-7.841c4.182-1.046,34.632-10.028,40.775-14.637
		c6.143-4.61,12.023-8.364,13.592-8.887c1.568-0.523,17.774-5.75,26.138-6.273c8.364-0.523,7.841,1.568,3.659,3.137
		c6.796-1.046,8.887,1.568,4.705,3.659c-4.182,2.091-11.501,4.182-9.932,4.182c1.568,0,5.228-0.523,4.705,1.568
		c-0.523,2.091-8.364,5.75-8.364,5.75s3.137-0.523-5.228,6.796c-8.364,7.319-10.978,9.932-16.728,10.455
		c-5.75,0.523-14.271-0.753-16.205-1.046c-1.935-0.293-16.728,7.319-28.229,12.023c-11.501,4.705-18.819,7.319-18.819,7.319
		s-9.932,2.091-17.251,5.228c-7.319,3.137-29.274,14.114-38.161,18.819c-8.887,4.705-23.001,10.455-31.888,16.206
		c-8.887,5.75-35.025,30.843-29.797,38.161c5.228,7.319,15.683,15.16,20.91,16.728c5.228,1.568,31.888,12.546,44.957,18.819
		c13.069,6.273,19.865,17.251,16.728,29.797c-3.137,12.546-3.137,15.16-7.841,22.478c-4.705,7.319-14.637,16.206-17.251,21.956
		s0.284,8.411,6.796,9.41c6.512,0.999,17.251-4.182,28.229-2.091c10.978,2.091,14.115,6.273,16.206,7.841
		c2.091,1.568,4.705,4.182,6.796,4.182c2.091,0,5.75,5.228,7.319,8.887c1.568,3.659,0,1.568-6.273-1.046
		c-6.273-2.614-10.978-3.659-10.978-3.659s7.444,5.043,8.887,8.887c1.443,3.844-1.046,4.182-1.568,2.614
		c-0.523-1.568-6.273-6.796-14.637-5.75c-8.364,1.046-28.229,3.659-37.638,3.659c-9.41,0-28.229-3.137-29.274-17.774
		c-1.046-14.637,5.228-29.797,8.364-36.07c3.137-6.273,12.023-18.819,8.364-21.956c-3.659-3.137-33.456-15.16-41.298-16.728
		c-7.841-1.568-27.183-3.659-34.502-2.091c-7.319,1.568-29.797,3.659-38.161,5.75c-8.364,2.091-41.298,6.273-55.935,13.592
		c-14.637,7.319-27.706,13.069-32.934,17.251c-5.228,4.182-27.706,23.001-32.411,28.752c-4.705,5.75-9.41,12.023-14.114,20.91
		s-14.114,12.546-19.865,14.115c-5.75,1.568-26.961,1.557-33.979,2.614c-7.019,1.057-12.546,1.046-18.819,3.659
		c-6.273,2.614-9.932,0,1.568-5.75c11.501-5.75,14.115-5.75,14.115-5.75s-10.414,1.573-16.205,4.182
		c-5.792,2.609-8.364,0-12.546-0.523c-4.182-0.523-2.614-1.568,1.568-3.137c4.182-1.568,4.705-1.046,10.455-4.705
		c5.75-3.659,5.75-3.659,5.75-3.659s-10.978,2.614-12.546,2.614s10.455-7.841,16.206-8.364c5.75-0.523,32.411-3.659,38.684-5.228
		c6.273-1.568,12.023-8.364,12.023-8.364c6.273-7.841,8.364-19.342,13.592-26.661c5.228-7.319,12.023-16.206,17.774-22.479
		c5.75-6.273,21.433-25.092,28.229-30.32c6.796-5.228,20.91-12.546,20.91-12.546s5.228-51.753,8.364-56.98
		c3.136-5.228,26.661-28.752,26.661-28.752s-23.491-7.285-28.752-9.41c-5.261-2.125-16.728-4.705-22.478-8.364
		c-5.75-3.659-16.728-12.546-21.433-13.069c-4.705-0.523-18.819-3.137-28.229-6.796c-9.41-3.659-14.393-11.185-19.342-11.501
		c-5.036-0.321-4.182-5.75-10.455-5.228l3.137-2.614c0,0-1.046-2.614-7.841-1.046c-6.796,1.568-9.41-2.613-0.523-4.182
		c-2.568-3.682,8.983-10.459,24.047-7.319c14.155,2.95,35.547,13.592,43.389,19.342c7.841,5.75,30.843,15.16,40.252,19.342
		c9.41,4.182,38.161,7.841,48.094,9.41c9.932,1.568,17.774,2.091,19.342,1.568c1.568-0.523,15.683-15.16,21.956-20.388
		C262.06,138.479,275.129,133.251,275.129,133.251z"/>
	<path style="fill:#ED7342;" d="M341.65,157.698c1.942,0.777,5.096,3.259,10.324,6.396c5.228,3.137,6.796,6.796,1.568,8.887
		c-5.228,2.091-19.865-1.046-25.092-2.614c-5.228-1.568-18.819-3.659-24.57-4.705c-5.75-1.046-5.228-2.091,3.659-4.182
		c8.887-2.091,24.655-7.841,27.706-7.319C338.297,154.684,336.423,155.607,341.65,157.698z"/>
	<path style="fill:#FFFFFF;" d="M296.562,165.14c-9.41,2.614-21.433,5.228-21.956,9.41c-0.523,4.182,4.551,15.044,1.046,19.865
		c-12.546,17.251-34.502,12.546-50.185,26.138c-15.12,13.104-26.668,22.724-22.479,44.434c5.75,29.797,22.514,30.816,37.116,29.797
		c22.479-1.568,62.731-38.684,68.481-44.434c5.75-5.75,22.479-27.183,18.819-49.139c1.046-9.932,9.932-12.546,15.683-17.251
		c5.75-4.705,15.683-10.455,10.455-10.978c-5.228-0.523-15.16-1.568-25.092-2.614C318.518,169.322,296.562,165.14,296.562,165.14z"
		/>
	<g>
		<path style="fill:#231815;" d="M273.343,130.591c-1.841,1.212-3.757,3.479-1.034,4.452c1.887,0.674,4.868-2.023,6.087-3.045
			c4.822-4.045,7.89-9.856,12.091-14.487c1.965-2.166,4.415-5.266,7.697-5.178c6.272,0.169,7.031,9.286,9.85,13.255
			c0.886,1.247,3.305,4.187,5.125,2.554c1.455-1.305-0.062-1.435-0.552-2.51c-1.894-4.161-5.512-9.977-8.79-13.127
			c-5.353-5.144-10.598-1.29-14.799,3.159C284.099,120.873,279.402,126.638,273.343,130.591z"/>
		<path style="fill:#231815;" d="M323.399,125.363c-2.537,1.419-1.473,3.869,1,3.93c2.113,0.052,4.036-2.602,5.172-4.023
			c2.077-2.6,4.243-10.404,8.796-9.566c3.728,0.686,4.094,6.922,4.964,9.644c0.576,1.8,3.284,8.209,5.083,3.688
			c-0.616,1.549-0.816-2.574-0.565-1.818c-1.058-3.188-2.902-7.444-4.676-10.329C336.621,106.237,328.901,122.33,323.399,125.363z"
			/>
		<path style="fill:#231815;" d="M321.768,126.462c-1.144-0.175-5.021-0.403-5.029,1.545c-0.009,2.17,5.105,2.665,6.344,2.852
			c8.709,1.317,17.465,0.237,26.087,2.497c5.7,1.494,14.208,4.434,17.57,9.763c2.406,3.815-1.106,2.484-4.428,3.8
			c-7.639,3.025,2.312,3.978,5.872,2.458c6.609-2.822,1.34-7.6-2.221-10.494C353.814,129.011,336.579,128.708,321.768,126.462z"/>
		<path style="fill:#231815;" d="M355.688,152.023c2.159-0.131,7.491-0.844,4.313-3.464c-1.788-1.475-6.571-0.611-8.55-0.355
			c-7.7,0.995-15.076,3.923-22.472,6.161c-8.322,2.519-16.788,4.406-25.221,6.497c-4.458,1.105-8.905,2.282-13.256,3.76
			c-2.079,0.706-7.803,1.99-8.759,4.199c-2.082,4.814,8.33-0.117,10.123-0.894c5.332-2.311,10.433-4.207,16.083-5.58
			C323.655,158.531,339.42,152.79,355.688,152.023z"/>
		<path style="fill:#231815;" d="M249.171,150.282c4.626-4.214,9.152-6.371,14.263-9.431c1.692-1.013,4.269-2.684,1.951-4.563
			c-1.979-1.605-4.907,1.331-6.268,2.407c-4.389,3.468-8.223,7.645-12.482,11.274c-3.804,3.242-7.632,6.194-10.368,10.239
			c-0.63,2.556,6.08-3.266,5.964-3.141C244.441,154.684,246.768,152.475,249.171,150.282z"/>
		<path style="fill:#231815;" d="M200.05,159.355c10.191,0.721,20.371,1.721,30.564,2.369c4.603,0.293,9.222,0.463,13.833,0.272
			c1.403-0.058,5.982-1.224,7.13-0.266c0.927,0.774-9.481,3.042-9.831,3.077c-4.793,0.487-9.616,0.242-14.411-0.09
			c-10.869-0.753-21.786-1.538-32.633-2.552c-21.297-1.99-39.034-9.833-57.458-20.278c-11.175-6.335-22.47-12.115-34.043-17.648
			c-6.664-3.186-13.322-6.526-20.443-8.578c-4.87-1.404-10.014-2.245-15.068-1.406c-4.779,0.793-7.664,4.159-11.94,5.483
			c0.777-0.331,2.809-2.915,3.734-3.55c2.428-1.665,5.186-2.765,8.045-3.417c6.634-1.513,13.617-0.259,20.037,1.638
			c13.125,3.879,26.252,10.044,38.314,16.479c13.019,6.945,25.474,15.036,39.162,20.661
			C176.279,156.166,188.003,158.283,200.05,159.355z"/>
		<path style="fill:#231815;" d="M235.101,194.462c-3.835-3.07-6.641-5.887-11.618-6.696c-4.386-0.713-8.824-0.968-13.206-1.841
			c-8.929-1.778-17.501-4.618-26.151-7.394c-6.444-2.068-13.186-5-19.786-6.446c-5.117-1.121-3.694,1.587,0.123,3.17
			c1.712,0.71,3.603,1.179,5.355,1.786c10.668,3.696,21.585,6.591,32.091,10.668c5.735,2.226,11.489,3.409,17.388,5.137
			c3.607,1.057,7.041,2.785,10.635,3.785C231.726,197.131,239.439,197.986,235.101,194.462z"/>
		<path style="fill:#231815;" d="M143.537,167.332c-6.418-3.962-12.757-8.396-19.671-11.455c-6.896-3.051-14.215-3.381-21.439-5.179
			c-7.081-1.763-12.382-5.482-18.296-9.529c-1.429-0.978-12.982-8.523-14.777-6.67c1.269-1.31,8.463,1.047,9.826,1.53
			c4.339,1.537,7.984,4.312,11.831,6.749c8.266,5.237,17.134,5.574,26.409,7.541c7.352,1.559,13.405,5.644,19.674,9.582
			c4.236,2.661,8.486,5.324,12.927,7.635c0.923,0.48,10.184,5.277,10.59,4.889C158.232,174.701,146.027,168.477,143.537,167.332z"/>
		<path style="fill:#231815;" d="M76.492,132.069c1.766,0.704,2.402-1.332,1.951-2.587c-0.661-1.839-4.619-1.751-6.061-1.988
			c-3.623-0.597-12.893-4.188-16.021-0.695c-3.829,4.276,5.77,1.029,6.61,0.971C67.51,127.456,72.468,130.399,76.492,132.069z"/>
		<path style="fill:#231815;" d="M72.72,123.085c-3.87-1.679-14.233,0.601-16.786-2.785c-1.759-2.332,24.002-1.512,20.7,2.722
			C76.099,123.708,73.727,122.941,72.72,123.085z"/>
		<path style="fill:#231815;" d="M104.712,131.784c3.382,1.768,5.332,0.626,2.966-2.28c-2.001-2.457-7.817-4.061-10.648-4.905
			c-4.599-1.371-9.5-2.064-14.228-0.954c1.506,5.324,7.007,8.841,11.181,11.988c1.384,1.043,13.739,11.161,14.515,8.464
			c1.014-3.526-9.962-7.991-11.687-9.092c-0.952-0.608-11.28-9.684-10.94-9.797C91.661,123.286,99.956,129.362,104.712,131.784z"/>
		<path style="fill:#231815;" d="M188.435,195.258c0.677-0.548,9.259-8.153,10.12-7.842c-1.555-0.562-4.446-0.175-6.201-0.441
			c-2.311-0.35-3.785-1.018-6.109-0.072c-3.862,1.571-7.598,6.387-10.206,9.383c-8.319,9.561-11.611,20.317-13.403,32.647
			c-1.586,10.913-3.602,21.935-4.651,32.908c-0.122,1.28-0.561,11.539,3.321,8.355c1.845-1.514,0.269-3.688-1.781-3.722
			c0.072,0.484,0.558,1.938,0.72,2.234c3.874-1.007,1.293-5.823,1.492-8.863c0.57-8.695,2.579-17.559,4.287-26.083
			C169.275,217.535,173.178,203.931,188.435,195.258z"/>
		<path style="fill:#231815;" d="M176.807,265.409c-7.03-10.019-10.109,0.097-17.054,3.025c-8.039,3.39-14.738,7.925-21.653,13.648
			c-6.718,5.561-12.594,11.947-19.147,17.663c-1.682,1.468-18.352,15.95-11.374,16.703c1.462,0.158,5.043-6.766,6.097-7.999
			c2.495-2.918,5.337-5.465,8.045-8.176c5.175-5.18,10.242-10.41,16.002-14.96c6.318-4.991,13.184-10.234,20.772-13.06
			c3.577-1.332,6.81-3.432,10.218-4.718C171.479,266.492,174.769,268.225,176.807,265.409z"/>
		<path style="fill:#231815;" d="M228.19,294.032c2.484-1.144,0.503,4.396-0.18,5.08c-2.598,2.603-8.138,1.84-11.583,2.762
			c-9.386,2.512-18.64,5.552-28.027,8.06c-7.597,2.03-14.68,4.776-21.827,8.079c-4.972,2.298-9.848,4.791-14.756,7.22
			c-2.785,1.378-7.643,4.414-10.794,4.358c-0.219-0.004,5.63-5.485,6.699-6.193c3.877-2.567,7.579-4.814,11.947-6.536
			c8.304-3.275,16.224-7.152,24.865-9.596C198.864,303.211,214.612,300.184,228.19,294.032z"/>
		<path style="fill:#231815;" d="M122.009,348.062c-8.589,7.911-16.597,14.462-22.615,24.628
			c-5.114,8.639-10.203,16.743-19.741,20.818c-10.025,4.283-21.332,3.498-31.977,3.418c-5.296-0.04-10.612-0.005-15.853,0.853
			c-1.793,0.293-11.972,2.02-12.729,4.173c1.207-3.432,11.84-5.782,14.707-6.37c6.687-1.372,13.589-1.229,20.376-1.258
			c13.527-0.058,27.39-1.331,36.02-12.969c3.549-4.786,6.092-10.269,9.467-15.184c3.6-5.241,7.872-9.047,12.61-13.183
			c5.493-4.796,10.625-9.992,16.125-14.783c2.315-2.016,4.665-4.013,7.172-5.79c0.423-0.3,5.297-2.86,5.304-2.881
			c-0.512,2.531-8.375,7.588-10.303,9.533C127.658,342.006,124.847,345.048,122.009,348.062z"/>
		<path style="fill:#231815;" d="M44.625,389.171c-12.695,0.655-22.93,3.546-33.463,10.399c0.781-0.508,1.689-2.995,2.547-3.899
			c2.174-2.291,5.131-3.592,8.03-4.682c3.828-1.44,7.983-2.709,12.045-3.316c2.608-0.39,18.455-1.924,18.567-0.497
			C52.4,387.8,45.507,388.954,44.625,389.171z"/>
		<path style="fill:#231815;" d="M42.095,379.796c-8.316,0.585-15.403,2.384-22.926,5.993C15.809,387.401,3.95,394.592,0,391.322
			c1.357,1.124,8.309-2.778,9.516-3.324c5.786-2.618,11.287-6.094,17.266-8.256c3.28-1.186,24.547-2.288,24.58-2.405
			C51.034,378.503,43.465,379.489,42.095,379.796z"/>
		<path style="fill:#231815;" d="M94.034,334.788c-5.104,7.997-7.229,17.201-11.981,25.269c-4.783,8.123-13.031,9.704-21.683,11.553
			c-9.903,2.116-20.139,2.439-29.972,4.722c-4.141,0.961-8.118,2.373-12.07,3.926c-3.022,1.188-7.061,3.738-10.298,3.946
			c2.835-0.182,7.205-4.127,9.745-5.454c4.757-2.486,9.686-4.43,14.946-5.557c12.719-2.724,26.527-2.488,38.667-7.742
			c10.235-4.43,12.171-18.112,17.027-26.962c3.143-5.727,6.765-11.345,11.221-16.147c0.782-0.842,7.59-5.433,7.648-5.656
			c-0.165,1.606-6.39,6.933-7.5,8.515C97.647,328.25,95.744,331.482,94.034,334.788z"/>
		<path style="fill:#231815;" d="M239.968,299.5c2.119-10.104,12.718-4.731,19.666-5.886c8.585-1.427,16.92-1.762,25.768-0.909
			c10.959,1.055,21.194,3.906,31.542,7.567c4.7,1.663,25.126,5.954,24.701,12.153c-0.217,3.169-6.149-2.072-7.248-2.711
			c-4.501-2.614-9.363-4.547-14.221-6.378c-8.205-3.094-16.463-6.118-25.141-7.598c-9.179-1.565-19.257-2.077-28.524-0.852
			c-4.806,0.636-9.331,1.958-14.163,2.284C248.201,297.449,244.077,300.495,239.968,299.5z"/>
		<path style="fill:#231815;" d="M324.252,269.44c-4.673-2.934-10.555-3.825-15.025-7.021c-5.567-3.98,0.969-3.979,4.318-2.885
			c8.081,2.638,16.171,6.943,24.104,10.111c16.007,6.393,38.396,14.972,41.049,34.678c0.447,3.319,1.043,9.107-0.939,12.108
			c-2.911,4.407-3.724,1.679-3.22-1.799c1.233-8.512,0.649-16.141-4.826-23.161c-5.945-7.622-15.103-11.515-23.648-15.448
			c-3.682-1.695-7.175-3.095-11.141-3.978C331.68,271.324,327.118,271.272,324.252,269.44z"/>
		<path style="fill:#231815;" d="M339.761,316.303c0.675,11.01-3.776,20.01-7.667,29.868c-4.151,10.518-8.987,26.991,1.209,35.672
			c10.818,9.213,28.82,4.487,41.398,2.884c7.178-0.915,14.57-1.73,21.775-0.619c3.005,0.463,5.988,1.259,8.644,2.783
			c0.839,0.481,5.197,4.776,4.754,4.787c-1.55,0.036-4.356-2.176-5.768-2.781c-2.645-1.134-5.408-1.872-8.248-2.303
			c-7.381-1.12-14.917-0.244-22.277,0.611c-13.154,1.528-29.905,5.022-41.118-4.248
			C313.904,367.612,332.257,333.128,339.761,316.303z"/>
		<path style="fill:#231815;" d="M380.235,375.527c8.141-0.223,16.331,0.347,24.092,2.992c4.009,1.366,15.347,5.891,16.276,11.086
			c-0.261-1.46-6.489-4.035-7.623-4.67c-5.111-2.859-10.427-5.011-16.242-5.904c-3.488-0.535-7.087-1.047-10.616-1.219
			c-0.639-0.031-15.02,0.01-15.032,0.05C371.437,376.669,379.164,375.733,380.235,375.527z"/>
		<path style="fill:#231815;" d="M373.473,368.559c7.991-0.982,16.16-0.395,23.98,1.478c3.573,0.856,14.168,2.884,16.177,6.693
			c-0.581-1.102-7.06-1.851-8.214-2.181c-5.336-1.53-10.58-3.061-16.141-3.524c-3.325-0.277-6.74-0.618-10.081-0.578
			c-0.615,0.007-14.026,1.319-14.041,1.487C365.267,370.668,372.5,368.841,373.473,368.559z"/>
		<path style="fill:#231815;" d="M365.05,340.664c-4.055,4.619-11.623,10.926-12.704,17.241c-1.333,7.783,8.785,5.467,13.389,4.84
			c7.573-1.031,15.155-1.804,22.708-0.167c3.336,0.723,6.591,1.826,9.623,3.405c1.488,0.775,4.198,3.502,5.681,3.84
			c-3.164-0.721-6.296-2.745-9.538-3.598c-4.122-1.084-8.371-1.727-12.632-1.89c-5.679-0.217-11.225,0.657-16.818,1.497
			c-4.411,0.662-10.254,2.071-13.834-1.454c-5.737-5.649,1.455-13.425,5.19-17.925c1.126-1.357,18.203-20.518,15.998-21.896
			C375.355,326.595,366.364,338.82,365.05,340.664z"/>
		<path style="fill:#231815;" d="M273.802,277.436c-0.076-4.609-0.102-7.844,4.382-9.921c4.443-2.058,8.262-3.106,12.289-6.302
			c6.337-5.03,13.149-9.348,18.898-15.096c6.454-6.453,11.726-13.976,14.899-22.57c1.396-3.781,2.107-7.225,2.187-11.237
			c0.037-1.857-1.254-10.035,1.543-10.004c5.318,0.059,0.063,18.443-1.08,21.757c-3.22,9.338-9.211,18.2-16.079,25.216
			c-5.926,6.053-12.199,11.74-19.347,16.312c-2.85,1.823-5.721,3.565-8.623,5.295C279.829,272.697,277.096,276.369,273.802,277.436z
			"/>
		<path style="fill:#231815;" d="M312.093,165.125c6.918,1.402,13.84,2.792,20.807,3.935c3.709,0.608,7.457,0.995,11.155,1.657
			c2.023,0.362,5.676,1.84,7.713,1.099c4.055-1.476,0.845-4.66-1.475-6.458c-2.474-1.918-5.269-3.414-7.681-5.419
			c-1.001-0.832-4.018-5.198-4.313-5.255c0.433,0.083,2.835,2.663,3.353,3.014c2.069,1.402,4.49,2.368,6.672,3.578
			c3.444,1.91,9.077,4.635,8.111,9.524c-1.469,7.434-17.479,2.396-22.647,1.725c-3.565-0.464-7.005-1.379-10.515-2.14
			c-5.289-1.146-10.618-2.095-15.923-3.16c-2.627-0.527-8.113-0.71-10.278-2.58c0.45,0.388,7.254-0.054,8.689,0.041
			C307.871,164.827,309.982,164.973,312.093,165.125z"/>
		<path style="fill:#231815;" d="M347.508,181.421c-3.314,2.072-23.83,16.561-19.93,21.322c-4.996-5.54,6.114-15.003,10.221-18.312
			c2.138-1.723,14.545-8.545,14.541-7.983C352.332,177.475,348.246,180.597,347.508,181.421z"/>
		<path style="fill:#231815;" d="M360.91,156.878c9.361,0.163,18.489-0.848,27.535-3.243c4.02-1.064,17.031-6.316,21.139-3.219
			c-1.226-0.924-10.037,2.953-11.165,3.285c-6.981,2.056-14.106,4.609-21.333,5.636c-3.781,0.538-26.127,2.271-26.746-0.744
			C350.266,158.234,359.926,157.039,360.91,156.878z"/>
		<path style="fill:#231815;" d="M419.238,142.298c7.636-2.588,15.271-5.177,22.907-7.765c3.852-1.306,7.702-2.614,11.572-3.866
			c1.776-0.575,6.321-2.959,8.224-2.493c-0.438-0.107-2.558,1.924-2.918,2.16c-2.624,1.72-5.397,2.979-8.314,4.123
			c-5.704,2.236-11.511,4.542-17.299,6.547c-2.987,1.035-22.473,6.571-22.47,6.592C410.761,146.291,418.043,142.972,419.238,142.298
			z"/>
		<path style="fill:#231815;" d="M473.605,119.169c6.146-2.659,12.277-5.717,18.902-7.007c2.256-0.439,13.837-1.618,14.058,2.72
			c-0.187-3.683-19.559,2.121-21.073,2.729c-2.193,0.88-17.453,6.989-17.595,6.326C467.69,122.972,472.761,119.852,473.605,119.169z
			"/>
		<path style="fill:#231815;" d="M339.676,196.706c11.878-6.216,24.062-11.896,36.059-17.875c5.43-2.706,11.027-5.117,16.809-6.969
			c1.192-0.382,11.983-2.361,12.08-2.628c-0.648,1.782-12.309,5.169-14.03,5.908c-8.997,3.863-17.505,8.428-26.172,12.957
			c-5.052,2.639-10.302,4.73-15.435,7.192c-1.527,0.732-21.171,10.339-20.832,11.424
			C327.397,204.286,337.799,197.997,339.676,196.706z"/>
		<path style="fill:#231815;" d="M416.582,162.995c7.613-2.659,15.004-5.925,22.515-8.85c3.354-1.306,6.731-2.633,10.191-3.636
			c0.633-0.183,3.541-0.499,3.789-0.802c-1.439,1.763-42.229,21.395-43.603,17.947C409.207,166.982,415.653,163.589,416.582,162.995
			z"/>
		<path style="fill:#231815;" d="M464.559,146.891c8.09,1.675,12.899-1.008,19.381-5.597c3.206-2.269,9.933-8.306,14.419-6.781
			c-1.758-0.61-9.332,6.501-10.708,7.528c-3.336,2.49-6.7,5.854-10.543,7.513c-2.998,1.294-21.602-0.051-20.949-1.959
			C456.531,146.511,463.632,146.912,464.559,146.891z"/>
		<path style="fill:#231815;" d="M482.944,133.611c3.778-1.35,16.57-7.312,19.608-2.024c-1.654-2.878-22.161,6.907-22.801,5.201
			C479.498,136.113,482.437,134.069,482.944,133.611z"/>
		<path style="fill:#231815;" d="M482.996,127.674c2-0.765,22.804-7.93,23.452-3.873c-0.123-0.771-27.229,7.816-27.343,7.503
			C478.849,130.597,482.339,128.208,482.996,127.674z"/>
		<path style="fill:#231815;" d="M481.754,122.392c8.397-3.922,20.848-8.686,30.011-3.993c-0.815-0.418-7.514,0.717-8.498,0.755
			c-3.823,0.148-7.203,0.736-10.858,1.885c-1.79,0.563-15.594,5.962-15.62,5.868C476.552,126.04,481.017,123.021,481.754,122.392z"
			/>
		<path style="fill:#231815;" d="M297.692,129.704c-4.783,1.913-5.082-9.313,0-9.313
			C302.772,120.391,301.925,128.012,297.692,129.704z"/>
		<path style="fill:#231815;" d="M339.179,131.398c-1.694-3.386-1.694-11.854,2.541-6.774
			C345.953,129.704,339.179,131.398,339.179,131.398z"/>
		<path style="fill:#231815;" d="M349.339,144.946c-3.386-2.541-2.539-6.774,1.694-3.388
			C355.266,144.946,349.339,144.946,349.339,144.946z"/>
		<path style="fill:#231815;" d="M282.523,177.209c4.305-0.859,1.713-2.172-0.783-2.291c-3.623-0.172-9.175,2.361-7.968-3.69
			c0.798-3.999,5.31-6.811,8.569-8.559c0.725-0.389,10.12-4.142,9.272-5.06c-2.548-2.759-14.481,6.359-16.394,8.563
			c-1.74,2.004-4.131,5.891-2.928,8.688C273.88,178.554,279.341,177.771,282.523,177.209z"/>
		<path style="fill:#231815;" d="M237.225,165.438c0,2.545-0.042,6.966-2.894,8.224c-4.371,1.927-4.417-2.531-5.252-4.962
			c-1.059-3.086-4.052-4.002-0.417-5.181C231.527,162.589,234.81,164.022,237.225,165.438z"/>
		<path style="fill:#231815;" d="M219.387,162.508c1.438,2.264,3.881,13.339-2.486,10.345c-1.439-0.677-1.761-3.588-2.707-4.838
			c-0.741-0.979-6.875-5.254-5.59-6.735C209.424,160.334,217.854,162.346,219.387,162.508z"/>
		<path style="fill:#231815;" d="M372.314,159.508c0.51,1.701,1.357,9.682-2.118,9.74c-2.046,0.035-3.801-4.728-5.007-5.977
			c-2.063-2.136-5.102-3.692-0.656-4.696C366.729,158.08,370.142,159.087,372.314,159.508z"/>
		<path style="fill:#231815;" d="M390.523,155.697c0.579,1.74,1.026,8.12-1.695,8.469c-1.348,0.173-6.268-6-6.638-6.898
			C382.076,156.991,389.736,155.798,390.523,155.697z"/>
		<path style="fill:#231815;" d="M328.272,269.189c-3.588,2.512-6.625,6.393-10.366,8.561c-3.239,1.876-9.732,2.556-8.388-3.056
			c0.683-2.852,6.056-10.767,9.119-11.015C321.696,263.431,325.911,267.496,328.272,269.189z"/>
		<path style="fill:#231815;" d="M344.788,276.811c-2.841,2.84-6.52,3.452-9.316,6.776c-1.867,2.218-4.997,5.755-5.691,1.419
			c-0.494-3.082,4.573-10.242,7.171-11.487C340.255,271.934,343.499,273.47,344.788,276.811z"/>
		<path style="fill:#231815;" d="M169.469,269.189c4.534,1.943,15.829,9.685,9.833,15.567c-2.558,2.509-3.092,0.967-4.817-1.126
			c-2.607-3.163-4.783-4.336-8.854-5.152c-2.599-0.521-14.344-1.109-9.975-5.969C157.528,270.426,166.918,268.096,169.469,269.189z"
			/>
		<path style="fill:#231815;" d="M147.447,281.046c5.343,0,15.868,4.781,16.765,10.71c1.313,8.68-8.142,0.465-10.716-0.879
			c-2.47-1.29-8.094-1.327-9.875-3.343C141.102,284.68,143.838,281.046,147.447,281.046z"/>
		<path style="fill:#231815;" d="M192.759,197.621c11.922-3.575-1.425,14.242-5.039,11.139c-0.041-0.035,0.427-6.882,0.621-7.532
			C188.936,199.247,190.87,198.203,192.759,197.621z"/>
		<path style="fill:#231815;" d="M174.551,213.29c2.669,3.738,3.447,6.516,0.516,10.461c-1.093,1.471-4.268,5.097-5.656,3.084
			C167.706,224.364,171.738,209.018,174.551,213.29z"/>
		<path style="fill:#231815;" d="M173.28,238.275c-1.625,2.322-4.526,8.185-0.423,7.199c4.667-1.122,6.073-7.175,5.504-11.011
			C176.667,235.734,174.973,237.005,173.28,238.275z"/>
		<path style="fill:#231815;" d="M185.561,220.912c1.109-1.294,6.047-5.64,8.088-4.255c1.534,1.041-1.246,5.663-2.078,6.665
			C187.309,228.454,183.903,227.289,185.561,220.912z"/>
		<path style="fill:#231815;" d="M210.969,195.08c-0.622,1.12-1.758,5.326,0.191,5.808c0.979,0.242,5.32-3.605,5.863-4.161
			c1.294-1.326,3.169-3.365,0.98-4.933C216.021,190.375,212.184,193.676,210.969,195.08z"/>
		<path style="fill:#231815;" d="M254.588,151.885c1.556-2.074,4.469-5.776,7.025-6.701c2.234-0.809,4.908-0.085,4.361,3.467
			c-0.502,3.259-3.922,2.147-6.436,3.347C257.816,152.819,255.208,155.779,254.588,151.885z"/>
	</g>
</g>
</svg>
