<?xml version="1.0" encoding="iso-8859-1"?>
<!-- Generator: Adobe Illustrator 21.1.0, SVG Export Plug-In . SVG Version: 6.00 Build 0)  -->
<svg version="1.1" id="_x31_" xmlns="http://www.w3.org/2000/svg" xmlns:xlink="http://www.w3.org/1999/xlink" x="0px" y="0px"
	 viewBox="0 0 512 512" style="enable-background:new 0 0 512 512;" xml:space="preserve">
<g>
	<path style="fill:#FFFFFF;" d="M509.971,236.727c0,0-4.713-7.234-18.347-18.347c-20.312-15.071-38.004-14.416-45.212-14.416
		c-7.208,0-34.072,1.311-34.072,1.311s-18.347,0-19.657-4.587c-1.311-4.587-1.966-10.484-5.897-13.76
		c-3.931-3.276-11.139-6.553-13.105-9.829c-1.966-3.276-0.655-19.002-0.655-22.279c0-3.276,2.621-14.415,5.242-21.623
		c2.621-7.207-1.31-16.381-5.242-15.726c-3.931,0.656-15.454,13.515-16.381,19.002c-0.927,5.487,0.655,30.797,0.655,30.797
		s-6.553-21.623-7.863-24.899c-1.311-3.276-6.552-7.208-11.139-8.518c-4.587-1.311-9.173-1.311-7.208-5.242
		c1.966-3.931,1.709-4.687,9.173-9.173c7.465-4.487,7.208-9.829,7.863-16.381c0.655-6.552-5.242-7.208-5.242-7.208
		s-1.966-4.587-7.863-5.897c-5.897-1.31-6.552,4.587-6.552,4.587s-9.242,0.46-9.173,3.931c0.069,3.471-1.31,9.829-1.31,15.07
		c0,5.242-2.621,6.553-3.931,10.484c-1.311,3.932-7.208,19.002-7.863,22.933c-0.655,3.932-9.501,19.002-6.225,40.625
		c3.276,21.623,18.674,37.349,18.674,37.349s5.242,10.484,12.45,15.071c0,0,6.552,5.242,6.552,7.207s5.242,7.863,9.829,16.381
		c4.587,8.518,24.899,33.417,30.141,38.004c5.242,4.586,8.518,9.173,8.518,9.173s-3.604,7.207-8.846,15.07
		c-5.242,7.863-6.225,29.486-4.259,44.557c1.966,15.071,12.45,28.831,17.692,36.694c5.242,7.863,3.276,16.381-1.311,20.312
		c-4.587,3.932-13.105,5.242-21.623,7.208c-8.518,1.966-8.518,6.552-7.208,13.104c1.31,6.553,3.276,0,5.897,1.966
		c2.621,1.966,7.863-4.259,11.139-2.293c3.276,1.966,10.484-0.983,20.968-5.57c10.484-4.586,11.532-15.231,9.173-30.796
		c-2.359-15.565-3.276-34.728-3.276-34.728l6.552-11.139l3.931-0.655c0,0,3.276-17.036,9.829-21.623
		c3.327-2.329,5.897-5.242,7.863-1.966c1.966,3.276,9.829,11.139,15.071,14.415c5.242,3.276,17.036,7.863,26.865,13.105
		c9.829,5.242,7.208,11.794,4.587,17.036c-2.621,5.242-5.242,7.863-12.45,11.794c-7.207,3.932-7.119,2.422-7.863,5.897
		c-0.744,3.475,1.966,9.173,5.242,7.207c0,0,7.208,3.276,9.829,1.311c8.518,3.931,22.278-15.071,28.175-26.865
		c5.897-11.794,0-23.589-6.552-27.52c-6.552-3.931-10.484-11.139-17.691-17.036c-7.208-5.897-2.621-9.174-8.518-14.416
		c-5.897-5.242-9.174-24.899-9.174-24.899s1.966-0.656,5.897-3.276c3.931-2.621-11.139-3.931-7.208-3.931
		c3.931,0,7.863-4.586,7.863-4.586s-6.093-1.523-15.07-7.208c-8.977-5.685-19.657-26.865-22.934-32.762
		c-3.276-5.897-15.07-18.347-15.07-18.347s3.761-0.108,10.484-2.621c6.723-2.513,23.589-5.897,35.383-5.897
		c11.794,0,22.933,18.347,22.933,18.347s-0.655,4.587,1.966,7.208c2.621,2.621,9.863,2.037,11.794,4.587s9.121-0.496,10.484-3.276
		C511.937,245.9,509.971,236.727,509.971,236.727z M330.435,197.412c-1.31-3.276-6.552-1.966-7.863-13.76
		c-1.31-11.794-0.655-30.141,1.966-24.899c4.587,9.174,8.691,22.011,13.105,26.21c4.414,4.199,1.966,24.899,3.276,26.865
		C342.229,213.793,331.746,200.689,330.435,197.412z"/>
	<path style="fill:#ED7342;" d="M388.096,215.104c2.621,4.587,1.966,5.897-0.655,7.208s-11.794,5.897-11.794,1.966
		c0-3.931,0.962-16.882,2.621-17.036c1.658-0.155,5.897-1.966,5.897-1.966L388.096,215.104z"/>
	<path style="fill:#94C85C;" d="M13.299,152.856c-3.931-6.552-7.863-20.313-5.897-33.417c1.966-13.105,6.52-17.804,7.208-20.313
		c0.688-2.508,5.933-0.505,5.242,1.311c-0.691,1.815,10.484,25.554,25.554,33.417c15.07,7.863,36.038,9.829,53.074,20.968
		s76.008,68.145,79.284,68.8c3.276,0.655,27.52,2.621,39.314,7.208c11.794,4.587,23.589,5.242,31.452,19.002
		c7.863,13.76,4.587,32.762,5.897,40.625c1.31,7.863,2.859,15.355,11.139,19.657c8.28,4.302,24.899,14.415,29.486,24.244
		c-9.829-4.587-15.07-6.552-15.07-6.552s5.897,3.931,10.484,13.76c4.587,9.829,6.61,18.956,0.655,10.484
		c-5.955-8.472-5.242-7.863-12.45-13.105c-7.208-5.242,3.276,7.863,3.276,11.139c0,3.276-7.863-3.931-11.794-8.518
		c-3.931-4.587-18.347-14.415-18.347-14.415s-15.726-9.829-20.313-22.934c-4.587-13.105-8.518-27.52-8.518-27.52
		s-28.831-0.328-38.004-2.949c-9.173-2.621-13.105-2.293-13.105-2.293s5.242,33.417,6.552,58.316
		c1.311,24.899,6.552,38.659,21.623,45.867c15.071,7.208,25.554,10.484,31.452,19.002c5.897,8.518,4.587,9.173-1.966,5.897
		c-6.552-3.276-12.45-5.242-12.45-5.242s15.071,9.829,15.726,17.691c0.655,7.863-11.794-4.587-20.313-9.173
		c-8.518-4.587,8.518,7.863,5.897,11.794c-2.621,3.931-1.311,1.966-11.139-6.552c-9.829-8.518-29.486-20.968-29.486-20.968
		s-25.554-20.313-31.452-47.833c-3.932-18.347-1.966-20.313-1.966-20.313s-24.899-26.21-27.52-30.141c0,0-5.242,2.621-8.518,1.966
		c-3.276-0.655-29.388-12.751-35.383-17.036c-5.995-4.286-11.794-9.829-11.794-9.829s-3.276,17.036,7.863,23.589
		c11.139,6.552,17.575,11.238,19.002,15.07c1.427,3.832,1.966,5.897-3.931,1.966c-5.897-3.931-4.587-7.208-7.863-5.242
		s-2.621,13.105,4.587,19.002c7.208,5.897,10.484,7.208,10.484,7.208s-7.208,0.655-15.071-5.242c0,0-5.242,3.276-10.484-2.621
		c3.276,3.276,4.587,5.897,1.311,5.242c-3.276-0.655-9.173-9.173-13.76-17.036c-4.587-7.863-9.829-11.794-12.45-25.554
		c-2.621-13.76-5.242-36.694-3.931-52.419c1.311-15.726-1.31-17.691-1.31-17.691s-9.173-12.45-9.173-22.933
		c0-10.484-5.897-11.794-5.897-11.794s-15.071-5.897-18.347-9.829c-3.276-3.931-0.655-12.45,3.931-13.105
		C10.677,152.856,13.299,152.856,13.299,152.856z"/>
	<path style="fill:#ED7342;" d="M25.093,105.023c2.975,4.164,20.968,16.381,25.554,17.036c4.587,0.655,11.139,11.139,11.139,11.139
		s-10.411,1.802-9.829,5.242c0.582,3.44,1.803,9.68-3.276,6.552c-5.079-3.128-21.224-17.64-24.899-25.554
		c-3.676-7.915-3.931-9.829-3.931-14.415S21.817,100.437,25.093,105.023z"/>
	<path style="fill:#FFFFFF;" d="M43.44,109.61c1.31-3.276,4.208-4.721,7.208-2.621c3,2.1,3.276,15.071,28.831,27.52
		s43.901,20.313,64.214,34.728c20.313,14.415,31.452,36.038,33.417,46.522c1.966,10.484-1.966,33.417-11.139,39.314
		c-9.173,5.897-33.417,4.587-57.006-15.726c-23.589-20.313-19.002-48.488-24.899-60.282c-5.897-11.794-11.794-7.863-22.278-18.347
		c-10.484-10.484-12.283-22.611-15.726-32.107C42.618,119.116,43.44,109.61,43.44,109.61z"/>
	<g>
		<path style="fill:#231815;" d="M375.995,177.566c4.764,2.008,9.35,4.574,12.457,8.837c1.628,2.234,2.772,4.781,3.444,7.458
			c0.459,1.827,1.709,9.038-0.345,10.436c0.428-0.291-2.609-10.173-3.015-11.221c-1.485-3.845-4.228-6.374-7.352-8.919
			c-3.269-2.663-7.169-3.312-10.746-5.325C366.009,176.34,374.295,177.363,375.995,177.566z"/>
		<path style="fill:#231815;" d="M382.305,203.24c-1.318,0.907-3.731,0.978-4.54,2.317c-0.583,0.965-0.208,3.283-0.337,4.403
			c-0.66,5.717-2.719,10.889-2.586,16.71c4.12-1.123,11.993-1.043,14.94-4.388c1.62-1.84,2.393-9.019-0.694-9.511
			c-4.397-0.702,0.083,6.431-1.155,7.958c-1.929,2.377-7.655,1.71-10.493,2.649c-0.278-2.458,0.494-5.167,0.946-7.572
			c0.305-1.626,0.266-7.498,1.541-8.72c0.106-0.101,2.999-0.403,3.334-0.611C386.595,204.397,385.603,199.172,382.305,203.24z"/>
		<path style="fill:#231815;" d="M377.808,178.884c-2.322,0.252-6.1,0.28-6.842-2.55c-0.639-2.436,1.757-5.005,1.513-7.501
			c-0.216-2.206-0.946-3.856-0.738-6.338c0.267-3.173,0.88-6.35,1.573-9.455c1.294-5.798,3.672-11.377,4.749-17.21
			c0.606-3.283-0.013-5.826-0.627-9.084c-0.226-1.198-2.024-7.841,1.285-7.075c2.44,0.565,1.832,12.264,1.59,14.195
			c-0.608,4.845-2.584,9.438-3.783,14.146c-1.291,5.068-2.446,10.941-2.081,16.179c0.109,1.568,0.63,3.061,0.923,4.594
			c0.269,1.409,0.011,2.765,0.202,4.082C375.878,174.981,378.721,176.717,377.808,178.884z"/>
		<path style="fill:#231815;" d="M355.43,160.307c-1.067-9.61-1.259-20.159,2.142-29.319c1.609-4.335,3.893-8.569,6.954-12.056
			c1.388-1.582,2.946-3.054,4.694-4.231c0.744-0.501,3.451-1.288,3.71-1.751c-0.792,1.414-2.881,2.809-3.959,4.185
			c-1.813,2.315-3.465,4.787-4.948,7.326c-2.985,5.11-5.184,10.976-5.456,16.939c-0.21,4.587-0.515,9.334-0.323,13.928
			c0.047,1.126,1.775,15.568,1.638,15.559C358.246,170.773,355.861,161.777,355.43,160.307z"/>
		<path style="fill:#231815;" d="M419.685,203.538c8.441-0.107,16.84-1.185,25.285-1.192c9.35-0.008,18.509,1.721,27.344,4.745
			c8.192,2.805,16.144,6.601,23.181,11.677c2.977,2.148,5.785,4.519,8.3,7.194c1.302,1.385,2.554,2.86,3.623,4.439
			c0.178,0.263,1.809,3.783,2.086,3.828c-0.931-0.152-3.455-4.005-4.244-4.736c-1.684-1.56-3.455-3.018-5.288-4.402
			c-4.083-3.084-8.456-5.819-12.949-8.26c-9.903-5.381-21.13-9.333-32.385-10.47c-8.462-0.855-17.037-0.596-25.506-0.077
			c-5.728,0.351-11.477,0.767-17.213,0.337c-1.569-0.118-12.895-0.991-13.122-3.347c0.023,0.239,9.607,0.862,10.563,0.878
			C412.803,204.207,416.269,203.97,419.685,203.538z"/>
		<path style="fill:#231815;" d="M422.465,227c12.357-1.661,24.466-7.563,37.146-6.063c5.984,0.708,11.36,3.226,15.486,7.656
			c2.259,2.425,7.081,8.42,6.55,12.061c0.167-1.143-3.313-4.73-4.004-5.566c-2.176-2.634-4.591-5.166-7.422-7.105
			c-6.776-4.641-14.833-4.694-22.623-3.047c-6.072,1.284-12.13,2.664-18.198,3.99c-3.951,0.863-7.931,1.681-11.987,1.796
			c-1.659,0.047-8.248,0.279-8.948-1.659c0.013,0.035,6.581-0.452,7.183-0.534C417.962,228.214,420.22,227.636,422.465,227z"/>
		<path style="fill:#231815;" d="M483.697,243.543c-0.045,5.36,5.281,4.52,8.338,6.639c0.278,0.193-2.257,1.148-2.233,1.144
			c-0.918,0.171-2.003-0.094-2.86-0.362c-1.95-0.61-3.845-1.775-4.794-3.586c-0.667-1.275-1.595-4.89-0.428-5.94
			C483.146,240.156,482.906,242.38,483.697,243.543z"/>
		<path style="fill:#231815;" d="M493.279,245.115c1.024,1.207,4.725,4.448,3.706,6.453c-0.947,1.862-1.673-0.492-2.704-1.665
			C493.116,248.579,488.429,243.922,493.279,245.115z"/>
		<path style="fill:#231815;" d="M504.59,244.186c1.659,2.389,2.237,5.152,0.742,7.77c-1.552,2.718-7.02,5.82-9.922,3.056
			c0.18,0.171,4.079-1.278,4.389-1.417c1.871-0.84,3.142-1.862,3.67-3.932c0.284-1.113,0.377-1.95-0.084-3.037
			c-0.24-0.565-3.109-3.085-2.63-3.722C501.212,242.295,504.034,243.859,504.59,244.186z"/>
		<path style="fill:#231815;" d="M510.742,236.54c1.568,3.313,1.744,7.247,0.111,10.572c-1.053,2.144-3.913,5.403-6.733,4.632
			c0.18,0.049,2.053-2.097,2.319-2.389c1.771-1.949,2.769-3.61,2.951-6.277c0.098-1.445,0.116-2.957-0.314-4.343
			c-0.108-0.348-2.393-3.956-1.877-4.41C507.803,233.791,510.258,236.078,510.742,236.54z"/>
		<path style="fill:#231815;" d="M345.848,258.443c5.047,10.065,12.42,18.968,19.729,27.457c3.438,3.993,6.965,7.908,10.494,11.819
			c1.71,1.896,6.513,5.659,7.077,8.203c-0.114-0.516-2.512-1.676-3.006-2.009c-2.27-1.531-4.421-3.202-6.453-5.039
			c-6.126-5.537-11.516-12.015-16.901-18.263c-4.069-4.721-7.334-9.693-10.555-15.026c-1.899-3.143-3.774-6.324-5.17-9.73
			c-0.551-1.343-3.239-7.284-1.891-8.558C338.699,247.743,345.176,257.547,345.848,258.443z"/>
		<path style="fill:#231815;" d="M425.915,241.898c3.176,4.959,6.936,9.497,10.156,14.417c3.397,5.191,6.261,10.694,9.928,15.715
			c3.267,4.474,7.107,8.476,11.668,11.648c1.638,1.14,3.35,2.154,5.112,3.09c1.243,0.66,3.737,1.308,4.596,2.401
			c-0.606-0.771-5.607-1.16-6.743-1.547c-3.287-1.12-6.294-2.833-8.984-5.032c-6.568-5.367-11.031-12.741-15.624-19.74
			c-3.419-5.21-6.745-10.433-10.315-15.547c-2.224-3.185-4.396-6.412-6.246-9.833c-0.498-0.921-3.166-5.126-2.476-6.288
			C416.742,231.593,424.978,240.837,425.915,241.898z"/>
		<path style="fill:#231815;" d="M454.855,288.484c2.309,1.239,9.28,0.971,10.474,3.58c0.268,0.585-7.675,0.097-8.621-0.168
			c-1.034-0.29-3.723-1.207-4.196-2.191C451.671,287.953,453.623,288.692,454.855,288.484z"/>
		<path style="fill:#231815;" d="M455.27,295.556c2.085,1.405,4.761,1.74,7.156,2.25c0.928,0.198,5.202,0.556,5.697,1.767
			c0.392,0.957-9.843,0.005-11.012-0.422c-1.199-0.438-4.363-1.702-4.762-3.12C451.789,294.046,454.012,295.529,455.27,295.556z"/>
		<path style="fill:#231815;" d="M389.179,311.347c1.004-1.127,8.743-8.625,7.469-10.593c-1.295-2-9.148,5.82-9.965,6.666
			c-9.749,10.105-13.503,22.57-14.986,36.241c-1.463,13.491-2.234,27.782,3.529,40.438c4.791,10.523,13.842,18.844,17.028,30.193
			c1.963,6.993-1.331,11.1-8.021,12.862c-6.341,1.67-12.826,2.414-18.842,5.212c-4.922,2.289-10.077,6.442-8.473,12.537
			c0.516,1.962,1.77,4.189,3.458,5.359c3.143,2.177,1.773-0.943,1.126-2.772c-2.15-6.069,0.703-9.174,6.109-11.783
			c6.07-2.93,12.665-3.954,18.961-6.166c16.081-5.65,6.104-22.767-0.143-32.412c-4.104-6.337-8.741-12.169-10.983-19.5
			c-2.314-7.564-2.365-15.572-1.657-23.386C375.214,338.509,378.504,323.476,389.179,311.347z"/>
		<path style="fill:#231815;" d="M368.369,444.54c-1.223,1.834,1.687,4.97,0.571,6.281c-1.323,1.553-3.497-2.786-3.639-3.381
			C364.68,444.861,366.739,439.934,368.369,444.54z"/>
		<path style="fill:#231815;" d="M377.54,444.456c-0.984,3.466,4.065,2.383,4.016,4.356c-0.047,1.898-4.324,0.696-4.967,0.316
			c-1.707-1.01-2.293-2.567-1.865-4.504C375.352,441.78,376.331,442.452,377.54,444.456z"/>
		<path style="fill:#231815;" d="M442.882,319.492c-3.188,4.238-5.128,9.399-7.223,14.223c-0.81,1.865-3.095,9.566-5.484,10.147
			c-0.227,0.055,1.209-7.551,1.341-7.929c1.365-3.925,2.662-8.558,4.755-12.155c1.666-2.862,3.543-6.226,5.924-8.504
			c0.599-0.573,2.069-2.141,2.836-1.278C445.209,314.196,443.024,318.998,442.882,319.492z"/>
		<path style="fill:#231815;" d="M422.602,346.297c-2.803,3.065-3.225,7.007-4.059,10.919c-0.348,1.63-1.799,9.153-4.268,9.462
			c-0.071,0.009,1.528-13.413,1.777-14.678c0.346-1.763,6.763-13.126,8.53-10.319C424.928,342.233,422.873,345.417,422.602,346.297z
			"/>
		<path style="fill:#231815;" d="M405.821,381.671c-1.797,15.124,6.044,29.772,4.292,44.915c-0.777,6.714-3.98,12.615-9.952,15.988
			c-3.148,1.778-6.724,2.761-10.292,3.238c-0.831,0.111-7.018-0.065-7.139,0.129c0.252-0.403,3.765-0.75,4.253-0.877
			c1.956-0.512,3.899-1.121,5.786-1.848c3.67-1.412,7.322-3.289,9.968-6.274c6.499-7.332,4.562-18.549,2.726-27.277
			c-1.51-7.181-2.674-14.562-2.98-21.908c-0.192-4.606,0.052-9.332,1.926-13.614c0.814-1.859,1.938-3.636,3.367-5.086
			c0.254-0.258,3.844-2.987,3.877-2.41c0.06,0.715-1.748,2.168-2.127,2.662c-0.951,1.24-1.74,2.565-2.323,4.017
			C406.147,375.96,405.773,378.849,405.821,381.671z"/>
		<path style="fill:#231815;" d="M448.043,352.087c12.017,6.608,31.104,11.295,34.326,26.8c1.923,9.252-6.339,14.119-13.383,17.793
			c-2.963,1.546-6.661,2.955-9.003,5.434c-1.205,1.276-1.802,2.482-1.502,4.261c0.074,0.439,1.46,3.861,1.845,3.83
			c-1.102,0.09-2.958-3.658-3.15-4.573c-0.499-2.387,0.841-4.338,2.43-5.949c3.513-3.563,8.47-5.516,12.646-8.141
			c4.392-2.76,8.182-6.369,7.021-11.993c-0.863-4.178-3.606-7.735-6.907-10.312c-5.814-4.539-12.567-7.815-19.176-10.994
			c-4.559-2.193-9.219-4.357-13.274-7.426c-1.835-1.389-3.626-2.972-4.993-4.838c-0.232-0.317-2.194-4.111-1.753-4.046
			c0.758,0.083,2.013,2.212,2.489,2.699c1.185,1.215,2.533,2.251,3.944,3.188C442.232,349.566,445.127,350.901,448.043,352.087z"/>
		<path style="fill:#231815;" d="M463.46,406.014c-0.098,1.431,2.687,3.907,2.564,4.519c-0.354,1.756-2.549,0.127-3.12-0.405
			C460.99,408.344,461.483,402.566,463.46,406.014z"/>
		<path style="fill:#231815;" d="M469.626,407.471c-0.342,1.965,3.409,2.67,4.632,2.852c1.595,0.236,4.37,0.251,1.352,1.644
			c-1.7,0.785-5.061,0.101-6.467-1.109c-1.001-0.861-2.07-6.32-0.383-5.357C468.991,405.633,469.086,407.587,469.626,407.471z"/>
		<path style="fill:#231815;" d="M463.727,306.949c1.631,2.97,3.281,6.021,5.297,8.751c0.989,1.339,2.15,2.522,3.181,3.824
			c0.204,0.257,1.503,2.363,1.46,2.334c-1.319-1.075-3.3-1.008-4.774-2.342c-1.714-1.552-3.357-3.611-4.606-5.545
			c-0.862-1.335-5.212-8.862-4.08-9.446C460.776,304.23,463.139,306.515,463.727,306.949z"/>
		<path style="fill:#231815;" d="M468.112,327.868c1.211,1.166,12.639,6.392,12.266,7.673c-0.239,0.819-8.819-2.643-9.648-3.115
			c-0.949-0.541-6.81-5.014-5.648-5.822C465.434,326.358,467.567,327.676,468.112,327.868z"/>
		<path style="fill:#231815;" d="M490.135,349.236c5.797,5.276,12.139,11.026,15.15,18.456c3.025,7.464,0.9,15.214-3.251,21.775
			c-4.01,6.339-9.123,12.1-14.019,17.762c-1.045,1.208-7.005,9.061-8.275,6.88c0.001,0.002,1.255-0.791,1.264-0.726
			c0.037,0.257-0.779,0.866-1.034,1.104c0.045-0.005,0.158,0.092,0.146,0.133c3.569-5.348,7.283-10.679,11.203-15.775
			c5.406-7.029,13.07-15.229,12-24.855c-0.778-7.007-5.799-13.255-10.631-18.017c-3.231-3.185-6.752-6.061-10.112-9.106
			c-0.537-0.487-6.862-7.238-6.451-7.334c1.393-0.323,6.218,4.338,7.406,5.159C485.73,346.211,487.936,347.719,490.135,349.236z"/>
		<path style="fill:#231815;" d="M337.601,242.059c-10.886,4.24-14.113-9.669-19.349-15.866c-1.638-1.939-3.679-3.283-5.264-5.343
			c-3-3.898-5.539-8.207-7.678-12.631c-4.235-8.759-7.064-18.72-7.377-28.484c-0.361-11.259,3.91-21.233,6.766-31.871
			c1.359-5.062,2.032-10.234,3.769-15.211c0.953-2.732,4.694-13.638,8.821-12.681c2.568,0.596-3.661,8.148-4.289,9.459
			c-2.584,5.401-4.155,11.257-5.829,16.985c-2.409,8.242-5.721,16.129-6.889,24.705c-1.226,9.005,0.169,17.9,3.147,26.449
			c3.472,9.968,8.956,18.579,16.302,26.077c3.348,3.417,6.021,8.181,9.724,11.121C332.406,237.113,335.944,238.376,337.601,242.059z
			"/>
		<path style="fill:#231815;" d="M316.341,111.559c0.674-5.152-1.077-12.42,2.887-16.559c1.659-1.733,4.059-2.281,6.387-1.972
			c1.198,0.159,5.368,1.188,5.667,2.661c-0.041-0.2-3.896-0.033-4.162-0.027c-2.153,0.045-4.373-0.143-5.866,1.668
			c-1.659,2.015-0.953,5.277-1.186,7.721c-0.307,3.218,0.048,7.224-1.217,10.21C316.777,120.16,316.883,113.657,316.341,111.559z"/>
		<path style="fill:#231815;" d="M326.28,98.824c1.425-3.603,2.689-9.171,6.911-10.552c3.043-0.996,7.933,1.562,7.892,5.21
			c0.009-0.808-6.134-2.669-7.058-2.238c-1.546,0.72-2.374,3.296-3.079,4.685c-0.953,1.877-1.346,4.533-2.607,6.203
			C326.087,105.115,326.46,100.715,326.28,98.824z"/>
		<path style="fill:#231815;" d="M336.869,100.654c0.555-2.395,1.622-5.456,4.672-5.36c2.913,0.092,2.591,1.318,0.992,2.637
			c-1.074,0.886-1.677,1.116-2.339,2.324c-0.39,0.711-0.32,2.116-1.521,2.119C338.314,102.375,336.754,100.903,336.869,100.654z"/>
		<path style="fill:#231815;" d="M349.882,99.539c1.254,3.479,0.79,6.993-0.411,10.407c-0.768,2.185-1.929,5.996-3.939,7.419
			c-0.903,0.639,0.444-6.618,0.456-6.657c0.649-2.071,0.94-4.016,1.16-6.147c0.137-1.323,0.327-1.943-0.016-3.292
			c-0.226-0.889-1.136-2.036-1.048-2.941C346.351,95.57,348.636,98.276,349.882,99.539z"/>
		<path style="fill:#231815;" d="M329.848,136.881c-3.442,10.086-5.194,20.9-5.675,31.527c-0.245,5.414-0.159,10.926,0.77,16.277
			c0.174,1.002,2.853,11.825,4.108,11.502c-1.094,0.282-4.321-5.096-4.696-5.797c-1.542-2.884-2.353-6.124-2.791-9.345
			c-1.115-8.207-0.584-16.713,0.242-24.924c0.518-5.144,2.134-10.251,3.508-15.223c1.037-3.753,2.156-7.488,3.746-11.049
			c0.446-0.998,2.292-5.845,3.739-5.923C332.251,123.955,330.1,135.456,329.848,136.881z"/>
		<path style="fill:#231815;" d="M333.899,198.824c2.593,6.087,7.093,11.413,11.374,16.382c0.632,0.734,9.678,10.266,9.611,10.352
			c-1.261,1.618-8.649-4.908-9.259-5.525c-2.903-2.936-5.717-6.028-8.383-9.183c-2.282-2.7-11.002-15.57-7.271-18.3
			C329.809,192.67,333.242,198.035,333.899,198.824z"/>
		<path style="fill:#231815;" d="M336.652,184.252c-3.151-4.972-7.398-9.155-9.441-14.773c-1.056-2.904-1.639-5.943-2.432-8.923
			c-0.424-1.592-2.471-5.012-2.323-6.483c-0.012,0.12,3.045,2.532,3.372,2.969c1.388,1.857,2.018,4.042,2.674,6.23
			c1.26,4.198,2.855,7.276,5.3,10.858c1.114,1.632,2.019,3.388,3.157,5.015c1.168,1.67,6.489,7.483,5.098,10.016
			C341.955,189.346,337.327,184.823,336.652,184.252z"/>
		<path style="fill:#231815;" d="M354.338,169.918c-0.86-7.564-2.5-15.093-4.753-22.362c-0.442-1.426-6.93-18.566-7.805-18.211
			c1.22-0.495,5.798,5.944,6.335,6.823c2.322,3.8,3.754,8.238,5.146,12.447c1.249,3.775,2.477,7.443,2.93,11.388
			c0.362,3.157,0.91,6.283,1.337,9.43c0.278,2.048,1.469,6.557,0.424,8.561c-0.643,1.232-0.479,0.688-1.093-0.334
			C355.586,175.546,355.172,172.289,354.338,169.918z"/>
		<path style="fill:#231815;" d="M401.16,179.92c4.544-4.729,8.859-9.692,13.841-13.979c2.408-2.072,4.965-4.029,7.763-5.549
			c0.445-0.242,6.037-2.298,6.043-2.326c-0.078,0.358-2.97,1.758-3.225,1.924c-2.158,1.406-4.3,2.867-6.343,4.436
			c-3.534,2.716-6.459,5.908-9.553,9.077c-1.814,1.857-3.717,3.612-5.499,5.507c-0.284,0.302-7.487,7.217-7.542,7.032
			C396.344,185.037,400.484,180.857,401.16,179.92z"/>
		<path style="fill:#231815;" d="M399.491,187.133c6.423-4.236,13.692-7.303,21.12-9.258c3.67-0.966,7.43-1.675,11.224-1.881
			c0.628-0.034,6.548,0.457,6.669,0.304c-0.709,0.89-7.421,0.999-8.514,1.179c-5.097,0.837-10.109,1.974-14.938,3.837
			c-3.634,1.402-7.347,2.917-10.771,4.775c-1.662,0.902-3.249,1.925-4.802,3.001c-1.608,1.114-4.03,3.982-5.938,4.492
			c0.203-0.054,2.615-3.352,3.015-3.75C397.497,188.895,398.479,187.995,399.491,187.133z"/>
		<path style="fill:#231815;" d="M406.277,192.336c5.58-0.705,11.248-1.068,16.872-0.833c2.734,0.114,5.48,0.35,8.163,0.901
			c1.401,0.287,5.236,0.855,6.151,2.119c-0.694-0.958-6.25-0.822-7.281-0.937c-4.141-0.46-8.259-0.684-12.421-0.426
			c-2.49,0.154-4.985,0.131-7.472,0.329c-2.457,0.196-7.973,2.21-10.343,1.222C400.371,194.888,405.183,192.645,406.277,192.336z"/>
		<path style="fill:#231815;" d="M404.605,243.398c-2.209,3.696-1.496,11.514-5.359,14.02c0.045-0.029,0.283-3.429,0.322-3.629
			c0.415-2.123,0.733-4.483,1.31-6.562c0.292-1.051,3.68-8.339,4.585-6.975C405.683,240.583,404.664,242.766,404.605,243.398z"/>
		<path style="fill:#231815;" d="M395.72,258.271c-0.345,2.779,1.362,7.005,0.199,9.537c-0.27,0.587-1.798-3.074-1.785-3.029
			c-0.323-1.227-0.634-2.731-0.662-4c-0.019-0.846,0.037-3.676,0.642-4.184C395.188,255.691,395.24,257.321,395.72,258.271z"/>
		<path style="fill:#231815;" d="M389.534,273.697c-0.386,0.707-0.673,6.129-0.321,6.697c-0.187-0.483-1.184-1.086-1.497-1.672
			c-0.46-0.863-0.837-2.664-0.743-3.637C387.152,273.225,389.578,270.07,389.534,273.697z"/>
		<path style="fill:#231815;" d="M375.818,268.908c1.698,3.102,6.377,5.111,7.514,8.298c0.159,0.446-4.225-1.73-4.438-1.892
			c-1.141-0.872-2.279-1.764-3.174-2.862c-0.603-0.74-2.747-3.521-2.353-4.592C373.775,266.75,375.191,268.533,375.818,268.908z"/>
		<path style="fill:#231815;" d="M359.945,260.983c1.82,1.636,3.924,2.963,6.003,4.239c1.477,0.906,3.911,1.782,4.95,3.221
			c0.215,0.298-4.986-1.072-5.14-1.148c-1.494-0.737-3.066-1.506-4.412-2.466c-0.765-0.546-4.446-3.156-4.374-4.25
			C357.052,259.358,359.097,260.732,359.945,260.983z"/>
		<path style="fill:#231815;" d="M367.088,201.912c-6.738,0.116-11.266-9.009-5.292-7.768
			C366.753,195.175,368.38,200.536,367.088,201.912z"/>
		<path style="fill:#231815;" d="M390.22,194.647c-2.204,3.674-4.861-3.649-1.824-8.473
			C391.958,187.992,392.796,190.74,390.22,194.647z"/>
		<path style="fill:#231815;" d="M137.57,167.193c-8.973-5.971-19.33-10.822-27.621-17.739c-4.9-4.088,1.601-2.424,4.41-1.218
			c6.471,2.779,12.511,6.865,18.46,10.601c22.395,14.062,43.919,33.16,46.045,61.308c0.562,7.444-0.238,14.95-1.587,22.271
			c-0.242,1.315-4.117,17.711-5.082,17.251c-0.794-0.378,1.182-9.035,1.274-9.719c0.595-4.444,0.961-8.913,1.071-13.396
			c0.227-9.267-0.378-18.533-3.247-27.403C165.604,191.565,152.241,177.837,137.57,167.193z"/>
		<path style="fill:#231815;" d="M213.998,228.238c12.191,2.367,25.179,6.868,33.124,16.976c8.828,11.233,7.43,25.434,8.378,38.819
			c0.446,6.292,1.561,12.629,4.978,18.044c3.289,5.214,8.345,8.923,13.368,12.339c5.421,3.687,11.002,7.159,15.766,11.706
			c3.099,2.958,7.116,6.991,8.498,11.165c-1.414-4.27-7.785-8.845-11.206-11.437c-4.912-3.723-10.323-6.692-15.471-10.061
			c-5.589-3.657-10.894-7.934-14.207-13.847c-3.303-5.895-4.268-12.703-4.689-19.351c-0.744-11.749-0.183-23.77-6.927-34.032
			c-5.768-8.777-15.835-13.422-25.676-16.015c-7.093-1.869-14.35-3.176-21.476-4.955c-3.2-0.799-6.418-1.52-9.687-1.977
			c-0.783-0.11-5.956-1.118-6.317-0.806c1.452-1.146,5.08-0.536,6.848-0.435c3.246,0.186,6.478,0.699,9.677,1.262
			C203.989,226.517,208.951,227.563,213.998,228.238z"/>
		<path style="fill:#231815;" d="M272.65,320.394c5.697,2.828,10.736,6.964,15.008,11.645c2.129,2.333,4.099,4.828,5.835,7.467
			c0.747,1.136,3.152,4.084,2.934,5.492c0.101-0.653-4.427-4.407-4.828-4.86c-2.987-3.375-5.69-6.913-9.158-9.834
			c-2.276-1.917-4.615-4.009-7.094-5.648c-1.779-1.176-3.694-2.091-5.638-2.958c-1-0.446-3.924-1.156-4.519-2.197
			C265.109,319.357,271.754,320.182,272.65,320.394z"/>
		<path style="fill:#231815;" d="M271.718,329.66c5.159,3.835,9.651,8.756,13.448,13.917c0.562,0.763,7.409,10.013,6.112,11.284
			c0.217-0.213-10.885-13.843-11.957-14.947c-2.025-2.085-3.949-4.36-6.11-6.3c-1.478-1.327-3.112-2.514-4.787-3.581
			c-0.898-0.572-2.963-1.234-3.463-2.162C264.887,327.735,270.784,329.203,271.718,329.66z"/>
		<path style="fill:#231815;" d="M183.056,271.525c7.963,2.277,16.333,2.941,24.561,3.521c1.256,0.089,18.513,1.972,18.488,2.028
			c-0.47,1.044-8.657,1.023-9.659,1.038c-6.118,0.095-12.293-0.409-18.401-0.748c-3.898-0.216-7.598-1.16-11.402-2.007
			c-0.699-0.155-13.775-3.928-12.936-4.916C174.4,269.626,181.643,271.418,183.056,271.525z"/>
		<path style="fill:#231815;" d="M228.769,293.383c4.18,13.82,12.018,23.625,23.743,31.848c5.634,3.951,11.244,7.869,16.057,12.829
			c1.094,1.127,9.076,9.208,8.184,10.92c0.796-1.528-15.025-13.738-16.436-14.822c-7.378-5.671-15.676-10.107-22.216-16.827
			c-4.504-4.628-7.391-10.632-9.778-16.573c-1.661-4.134-3.06-8.388-4.044-12.735c-0.362-1.599-2.478-8.287-1.15-9.745
			c-0.017,0.019,2.516,7.071,2.734,7.695C226.737,288.481,227.709,290.948,228.769,293.383z"/>
		<path style="fill:#231815;" d="M161.849,259.996c2.719,5.841,4.649,11.973,6.648,18.085c1.936,5.921,4.029,11.645,5.033,17.819
			c2.251,13.833,2.282,27.842,3.473,41.77c0.988,11.546,3.715,22.954,12.103,31.445c3.266,3.306,7.151,6.272,11.341,8.294
			c5.442,2.627,11.641,3.202,16.903,6.265c4.857,2.827,8.804,6.989,12.432,11.211c0.818,0.951,7.352,8.135,5.652,2.851
			c-1.441-4.48-6.488-8.625-9.861-11.698c-4.921-4.483-10.096-7.144-16.432-9.1c-11.054-3.413-19.709-10.367-24.947-20.813
			c-5.793-11.551-3.464-26.021-3.627-38.456c-0.141-10.803-0.9-22.274-2.947-32.883c-1.317-6.825-3.698-13.89-7.515-19.748
			c-1.806-2.772-4.305-6.344-7.063-8.229C160.093,254.792,160.908,258.019,161.849,259.996z"/>
		<path style="fill:#231815;" d="M212.697,389.212c5.358,4.024,10.182,8.874,14.546,13.942c0.671,0.779,8.658,9.492,7.716,10.893
			c0.01-0.015-12.432-12.909-13.438-13.874c-2.268-2.177-4.469-4.485-6.807-6.579c-1.553-1.39-3.237-2.636-4.961-3.805
			c-0.875-0.593-3.549-1.766-4.014-2.7C205.716,387.044,211.719,388.718,212.697,389.212z"/>
		<path style="fill:#231815;" d="M208.028,397.889c4.482,3.21,8.896,6.58,12.795,10.491c1.753,1.758,8.608,8.378,7.38,11.514
			c0.284-0.726-4.075-4.863-4.505-5.359c-2.597-2.999-5.321-5.776-8.477-8.19c-1.89-1.446-3.586-3.081-5.463-4.542
			c-1.615-1.257-7.338-3.798-7.925-5.98C201.808,395.735,207.215,397.535,208.028,397.889z"/>
		<path style="fill:#231815;" d="M115.906,285.443c5.41,6.851,10.699,13.802,16.345,20.463c2.708,3.194,5.483,6.349,8.464,9.293
			c0.927,0.915,4.749,5.512,5.854,5.588c-4.893-0.334-10.28-6.355-13.331-9.632c-3.552-3.815-7.003-7.745-10.408-11.69
			c-2.631-3.048-4.71-6.58-7.219-9.741c-0.468-0.589-8.351-10.306-7.903-10.534C109.01,278.524,114.793,284.452,115.906,285.443z"/>
		<path style="fill:#231815;" d="M145.833,327.714c2.321,17.041,8.325,34.778,19.992,47.665
			c12.265,13.548,29.315,21.351,42.94,33.319c1.493,1.311,6.025,4.585,3.949,7.053c-2.312,2.749-6.639-3.405-7.996-4.962
			c-5.439-6.237-11.413-10.051-18.232-14.636c-15.714-10.565-28.177-22.001-35.382-39.903c-3.268-8.121-6.836-16.708-8.748-25.237
			c-0.442-1.973-1.716-10.554,1.521-11.21C146.12,319.349,145.874,326.216,145.833,327.714z"/>
		<path style="fill:#231815;" d="M31.191,191.859c1.629,9.645,4.808,18.93,5.243,28.762c0.398,8.996-0.731,17.973-0.429,26.964
			c0.611,18.196,3.035,38.585,11.82,54.872c1.08,2.002,2.895,6.051,5.43,6.3c5.149,0.507,0.44-5.636-0.614-7.08
			c-2.504-3.428-5.388-7.052-6.79-11.118c-1.131-3.281-1.785-6.869-2.541-10.255c-3.917-17.543-4.394-34.966-4.326-52.833
			c0.038-9.846-1.441-19.488-2.786-29.22c-0.575-4.162-0.594-10.476-3.409-13.91C29.172,179.927,30.546,189.947,31.191,191.859z"/>
		<path style="fill:#231815;" d="M70.532,198.545c-0.331,7.658-1.66,15.247-3.454,22.689c-0.216,0.895-4.497,15.496-4.837,15.294
			c-0.791-0.47,0.36-7.608,0.465-8.248c0.864-5.237,2.403-10.329,3.061-15.612c0.403-3.236,1.189-6.388,1.549-9.627
			c0.285-2.563,0.293-5.143,0.345-7.718c0.022-1.08-0.352-4.013,0.461-4.945C68.308,190.166,70.341,197.555,70.532,198.545z"/>
		<path style="fill:#231815;" d="M63.805,251.175c-0.543,10.865-3.289,27.507,5.825,35.426c4.344,3.774,9.654,6.24,14.182,9.772
			c1.913,1.492,3.874,3.199,5.029,5.378c0.501,0.946,0.892,1.997,0.97,3.076c0.004,0.052-0.27,2.679-0.388,2.567
			c-0.496-0.473-0.713-3.693-1.448-4.688c-0.882-1.196-2.079-2.14-3.261-3.017c-3.369-2.499-7.158-4.432-10.71-6.65
			c-3.563-2.225-7.273-4.606-9.808-8.03c-2.294-3.099-2.935-6.802-3.48-10.541c-0.726-4.981-0.286-10.034-0.117-15.045
			c0.144-4.252,0.269-8.505,0.474-12.754c0.087-1.804-0.598-8.963,0.904-10.143c0.12-0.094,1.253,7.693,1.322,8.468
			C63.484,247.052,63.652,249.113,63.805,251.175z"/>
		<path style="fill:#231815;" d="M77.719,303.096c-2.793-1.399-2.387,0.855-1.959,3.247c0.707,3.946,3.176,7.645,5.609,10.738
			c0.683,0.869,11.158,11.435,11.77,10.449c-0.354,0.569-3.867-0.629-4.453-0.854c-2.685-1.033-4.886-2.929-6.878-4.952
			c-3.474-3.527-7.492-8.242-8.865-13.125c-0.555-1.975-0.998-8.427,1.411-9.292c2.878-1.034,11.297,4.383,10.118,7.934
			C84.712,306.518,78.941,303.373,77.719,303.096z"/>
		<path style="fill:#231815;" d="M69.199,312.117c1.846,3.707,4.687,6.942,7.475,9.963c1.292,1.4,6.78,5.414,6.823,7.464
			c-0.002-0.109-4.317-2.303-4.593-2.516c-2.507-1.941-4.921-4.464-7.005-6.861c-1.046-1.203-7.421-11.628-5.939-11.84
			C66.502,308.25,68.626,311.518,69.199,312.117z"/>
		<path style="fill:#231815;" d="M61.381,309.166c1.019,3.462,3.218,6.544,5.531,9.258c1.718,2.016,4.513,3.852,5.843,6.145
			c-0.097-0.167-4.528-1.976-5.16-2.523c-1.891-1.639-3.785-3.668-5.235-5.701c-0.861-1.206-4.874-11.037-3.195-10.922
			C59.639,305.454,60.948,308.558,61.381,309.166z"/>
		<path style="fill:#231815;" d="M56.236,310.829c1.75,3.733,4.446,7.026,6.97,10.252c0.38,0.486,4.665,6.572,4.751,6.548
			c-0.822,0.229-3.3-1.991-3.853-2.494c-2.125-1.932-4.057-4.477-5.859-6.725c-0.951-1.187-6.375-10.905-4.905-11.052
			C53.842,307.309,55.703,310.276,56.236,310.829z"/>
		<path style="fill:#231815;" d="M76.074,274.06c7.031,4.518,14.519,8.437,22.145,11.846c3.568,1.595,7.243,3.202,11.05,4.129
			c0.444,0.108,7.474,0.681,6.985-0.264c0.634,1.225-4.387,2.434-5.267,2.491c-2.908,0.187-5.819-0.731-8.521-1.679
			c-5.332-1.872-10.718-4.157-15.773-6.682c-3.298-1.648-6.376-3.887-9.541-5.785c-0.657-0.394-10.993-7.063-10.221-7.671
			C67.873,269.702,74.736,273.521,76.074,274.06z"/>
		<path style="fill:#231815;" d="M82.441,137.231c-7.823-4.456-15.924-8.748-22.407-15.112c-2.809-2.758-5.3-5.889-6.977-9.47
			c-0.832-1.776-1.488-3.689-1.799-5.63c-0.101-0.627,0.133-3.221-0.057-3.465c1.072,1.379,1.538,3.894,2.446,5.535
			c1.372,2.481,2.916,4.901,4.693,7.113c3.668,4.567,8.299,7.762,13.203,10.845c3.216,2.022,6.218,4.269,9.553,6.125
			c0.693,0.386,11.675,6.702,11.017,7.25C91.13,141.242,83.879,137.722,82.441,137.231z"/>
		<path style="fill:#231815;" d="M7.594,141.062c-1.643-8.876-1.885-18.217-0.328-27.123c0.682-3.903,1.722-7.812,3.503-11.368
			c0.658-1.314,1.408-2.629,2.313-3.792c0.363-0.466,2.176-1.874,2.215-2.161c-0.221,1.632-1.691,3.814-2.211,5.442
			c-0.699,2.188-1.336,4.415-1.915,6.638c-1.342,5.157-1.953,10.52-1.786,15.846c0.137,4.379-0.106,8.778,0.554,13.128
			c0.194,1.278,2.732,12.142,2.498,12.174C10.876,150.059,8.086,142.393,7.594,141.062z"/>
		<path style="fill:#231815;" d="M48.002,136.799c-2.233-5.775-4.821-11.436-5.384-17.683c-0.257-2.847-0.071-5.752,0.772-8.496
			c0.343-1.118,1.577-4.933,2.908-5.261c-1.237,0.305-1.025,12.37-0.912,13.365c0.447,3.937,2.041,7.729,3.181,11.504
			c0.643,2.13,5.298,9.533,3.973,11.652C51.76,143.128,48.729,137.767,48.002,136.799z"/>
		<path style="fill:#231815;" d="M24.729,99.902c3.414,3.797,6.845,7.581,10.379,11.267c1.6,1.668,3.219,3.32,4.876,4.931
			c0.771,0.749,3.499,2.559,3.752,3.604c-0.021-0.088-3.691-0.968-4.247-1.252c-2.032-1.036-3.651-2.716-5.288-4.264
			c-2.679-2.534-5.529-4.93-7.756-7.861c-1.284-1.689-2.696-3.244-4.176-4.764c-0.732-0.752-2.416-1.744-2.841-2.581
			c-0.318-0.626-1.358-0.861,0.882-1.075C21.646,97.78,23.63,99.258,24.729,99.902z"/>
		<path style="fill:#231815;" d="M10.33,155.645c3.383-1.477,2.68-5.292-1.185-4.568c-4.406,0.826-7.714,5-8.799,9.114
			c-1.418,5.378,1.724,7.417,5.948,10.114c4.012,2.561,8.088,5.058,12.172,7.504c1.103,0.661,3.297,2.289,4.598,0.947
			c1.409-1.453-0.705-3.474-1.785-4.284c-2.94-2.206-6.904-2.553-10.156-4.184c-2.149-1.078-8.135-3.688-8.75-6.114
			C1.36,160.178,7.515,156.879,10.33,155.645z"/>
		<path style="fill:#231815;" d="M28.658,189.452c0.662,3.789,1.475,7.57,2.56,11.263c0.875,2.979,3.119,6.365,3.387,9.425
			c0.002,0.02-2.157-1.302-2.473-1.601c-1.273-1.203-1.939-2.704-2.611-4.288c-0.967-2.279-2.093-4.878-2.64-7.302
			c-0.385-1.703-2.296-11.53-1.05-11.7C26.514,185.155,28.267,188.817,28.658,189.452z"/>
		<path style="fill:#231815;" d="M16.899,115.204c-0.906-0.246-4.276,0.607-1.745-1.77
			C16.763,111.923,17.355,113.535,16.899,115.204z"/>
		<path style="fill:#231815;" d="M66.82,147.015c-0.35-0.242-4.467-2.971-4.805-1.68c-0.33,1.257,3.293,3.502,3.931,3.982
			c3.59,2.7,12.801,8.189,4.434,11.186c-5.974,2.14-12.208,0.602-17.607-2.36c-2.794-1.533-5.393-3.413-7.943-5.315
			c-1.459-1.088-5.16-4.991-7.116-4.693c-1.804,0.274-0.281,1.4,0.712,2.377c1.95,1.921,4.366,3.478,6.691,4.904
			c4.472,2.743,9.468,5.654,14.639,6.792c4.179,0.919,11.228,0.824,14.623-2.335C79.268,155.321,69.92,149.185,66.82,147.015z"/>
		<path style="fill:#231815;" d="M22.007,107.216c-0.273-1.217-1.144-6.589-2.847-4.964c-1.724,1.645,0.388,7.605,0.947,9.272
			c1.982,5.915,5.696,11.093,9.384,16.052c8.079,10.862,18.196,23.658,31.924,27.392c1.437,0.391,5.252,1.333,3.858-0.918
			c-0.884-1.427-4.832-2.234-6.348-2.876c-5.643-2.391-10.826-5.109-15.323-9.309C33.733,132.648,25.074,120.518,22.007,107.216z"/>
		<path style="fill:#231815;" d="M94.98,96.73c-11.614-6.966,9.271-8.612-0.947-0.994"/>
		<path style="fill:#231815;" d="M54.281,72.439c-3.343-1.622-3.426-5.127,0.878-4.883c1.191,0.067,3.11,0.874,1.865,2.559
			C56.197,71.235,54.573,69.999,54.281,72.439z"/>
		<path style="fill:#231815;" d="M129.812,69.527c-0.895-0.274-1.852,0.075-2.759-0.121c0.325-2.325,1.254-4.323,3.79-3.477
			c1.561,0.521,2.427,1.402,1.211,2.706C131.373,69.366,130.407,69.004,129.812,69.527z"/>
		<path style="fill:#231815;" d="M88.258,65.645c-2.216,0.034-5.081,0.848-4.674-1.989c0.173-1.208,0.419-1.348,1.326-1.996
			C88.659,58.979,87.862,63.599,88.258,65.645z"/>
		<path style="fill:#231815;" d="M84.225,118.193c-0.868-0.026-1.872,1.653-2.762,0.843c-0.491-0.447,0.345-2.778,0.807-3.28
			C84.57,113.258,87.887,115.742,84.225,118.193z"/>
		<path style="fill:#231815;" d="M140.679,94.767c-0.662-0.706-1.747-0.675-2.114-1.629c-0.917-2.387,2.391-2.733,3.883-3.1
			C142.557,90.731,142.527,95.183,140.679,94.767z"/>
		<path style="fill:#231815;" d="M162.036,128.743c-1.604-1.257-4.013-1.024-2.031-3.504c2.439-3.052,2.019,0.488,3.001,1.563"/>
		<path style="fill:#231815;" d="M211.684,116.074c-1.604-1.257-4.013-1.025-2.031-3.505c2.439-3.051,2.02,0.488,3.002,1.563"/>
		<path style="fill:#231815;" d="M39.72,89.913c-1.604-1.257-4.013-1.024-2.031-3.504c2.44-3.052,2.019,0.488,3.001,1.563"/>
		<path style="fill:#231815;" d="M15.195,161.831c0.157-1.36-0.762-6.039,0.568-6.887c1.6-1.02,5.243,2.626,6.44,3.644
			c1.251,1.065,4.345,3.503,2.218,5.086c-2.734,2.035-5.224-3.438-6.53-4.871c-0.587,1.886,1.909,8.311-0.984,8.663
			C14.103,167.807,15.08,163.444,15.195,161.831z"/>
		<path style="fill:#231815;" d="M41.628,200.371c3.064-0.368,11.304-1.176,12.437,3.16c1.077,4.121-6.097,8.821-9.22,10.075
			c-3.52,1.413-6.635,0.385-7.939-3.297c-0.639-1.804-1.219-5.145-0.538-6.99c0.762-2.063,1.269-0.872,3.35-1.427
			C40.456,201.696,41.921,201.534,41.628,200.371z"/>
		<path style="fill:#231815;" d="M38.028,222.685c11.452-1.168,15.334,9.6,2.842,11.462C38.7,230.807,38.56,226.911,38.028,222.685z
			"/>
		<path style="fill:#231815;" d="M164.714,268.753c-5.253-0.822-11.052,3.376-14.045,7.342c-3.163,4.191-2.385,8.359,3.471,8.493
			c4.082,0.094,10.947-0.773,14.492-2.843C175.791,277.564,165.92,272.818,164.714,268.753z"/>
		<path style="fill:#231815;" d="M174.072,294.667c-3.114-2.062-7.38-1.89-10.637-0.264c-1.688,0.842-3.199,2.093-4.13,3.756
			c-0.406,0.725-0.83,1.633-0.878,2.466c-0.104,1.824-0.497,1.322,1.306,1.922c2.518,0.837,5.505,1.248,8.124,1.855
			c0.587,0.136,3.588,0.996,4.146,0.633c0.521-0.34,0.558-2.108,0.635-2.733C172.771,301.227,171.818,293.299,174.072,294.667z"/>
		<path style="fill:#231815;" d="M201.424,230.604c-3.16,2.878-3.153,7.222-4.391,11.007c-0.984,3.008-5.827,7.566-8.616,4.098
			c-1.201-1.493-1.37-5.795-1.584-7.647c-0.262-2.264-0.526-4.941,1.155-6.737C191.287,227.799,197.409,230.214,201.424,230.604z"/>
		<path style="fill:#231815;" d="M212.221,231.324c7.366,0.461,6.591,14.859-0.36,15.065
			C205.417,246.581,206.429,230.139,212.221,231.324z"/>
		<path style="fill:#231815;" d="M70.42,245.719c2.248,2.248,4.649,4.343,6.863,6.624c0.631,0.65,3.115,2.767,2.882,3.96
			c-0.476,2.441-9.554,0.527-11.464,0.258C61.5,255.546,63.672,238.973,70.42,245.719z"/>
		<path style="fill:#231815;" d="M92.734,249.319c8.561,1.975,8.638,9.357,4.319,10.797
			C92.734,261.556,83.376,247.159,92.734,249.319z"/>
		<path style="fill:#231815;" d="M85.536,275.231c-4.456-3.819,1.032-5.061,4.417-4.272c3.669,0.855,7.912,3.98,9.551,7.445
			c2.191,4.632-3.976,3.293-6.51,2.307C90.114,279.592,87.469,277.646,85.536,275.231z"/>
		<path style="fill:#231815;" d="M379.136,198.574c2.108,0.303,4.449-3.103,5.609-2.854c1.674,0.359-0.351,2.812-1.447,3.66
			c-1.239,0.959-2.634,1.662-4.314,1.151C377.168,199.978,377.015,199.189,379.136,198.574z"/>
		<path style="fill:#231815;" d="M337.635,162.065c-1.018-2.125-2.934-2.087-2.762,0.416c0.217,3.159,3.33,6.843,4.786,9.605
			c2.979,5.653,5.995,12.958,12.509,15.448c2.246,0.858,3.878,0.351,1.989-1.701c-2.029-2.204-5.479-2.423-7.574-4.909
			C342.016,175.503,340.442,168.394,337.635,162.065z"/>
		<path style="fill:#231815;" d="M350.21,212.247c-1.621,0.244-5.899,1.548-7.273-0.142c0.293,0.361,8.481-1.908,8.615-0.887
			C351.582,211.453,350.389,212.173,350.21,212.247z"/>
		<path style="fill:#231815;" d="M361.716,216.417c-1.971,2.016-7.415,5.807-10.467,3.969c0.637,0.383,5.755-2.618,6.576-3.128
			c0.818-0.509,4.201-3.598,4.509-3.4C362.73,214.111,361.878,216.021,361.716,216.417z"/>
		<path style="fill:#231815;" d="M367.635,223.372c-0.99,0.789-1.755,1.928-2.861,2.565c-0.686,0.395-1.981,0.453-2.381,0.683
			c1.044-0.699,1.985-2.636,3.019-3.515C366.327,222.327,369.042,220.694,367.635,223.372z"/>
		<path style="fill:#231815;" d="M358.336,135.082c4.504-9.572,9.251-22.199,21.481-23.072c0,3.564,2.224,31.364-4.582,30.392
			c-1.617-0.231-1.943-2.064-3.058-2.828c-1.154-0.792-2.312,0.234-3.591-0.269c-3.687-1.452,1.886-7.302,2.597-9.437
			c-0.541,1.623-5.351,3.338-6.857,3.848C362.388,134.372,360.367,134.824,358.336,135.082z"/>
		<path style="fill:#231815;" d="M347.994,141.447c-1.445-4.819-8.106-14.233-13.971-14.16c-4.014,0.05-5.129,9.179-5.907,12.142
			c-0.912,3.473-2.09,7.095-2.451,10.678c-0.104,1.027-0.608,5.059,0.655,5.549c1.057,0.41,4.97-5.992,5.762-7.048
			c0.904,0.723,1.844,1.728,2.848,2.279c1.674,0.919,0.499,0.858,2.137,0.149c2.631-1.139,1.97-2.119,1.662-4.432
			c-0.25-1.878-0.839-4.717,1.579-3.351c2.595,1.466,3.956,4.818,6.891,6.151C347.463,146.751,347.728,144.099,347.994,141.447z"/>
	</g>
</g>
</svg>
