<?xml version="1.0" encoding="iso-8859-1"?>
<!-- Generator: Adobe Illustrator 21.1.0, SVG Export Plug-In . SVG Version: 6.00 Build 0)  -->
<svg version="1.1" id="_x31_2" xmlns="http://www.w3.org/2000/svg" xmlns:xlink="http://www.w3.org/1999/xlink" x="0px" y="0px"
	 viewBox="0 0 512 512" style="enable-background:new 0 0 512 512;" xml:space="preserve">
<g>
	<path style="fill:#0C646D;" d="M469.832,329.598c-6.024-0.548-6.572,8.214,1.095,8.214c7.667,0,15.881,0,15.881,5.476
		s-3.833,5.476-12.048,5.476c-8.215,0-10.405,8.762-4.381,8.214c6.024-0.548,5.476,0,10.953,0c5.476,0,12.596,8.762-18.62,8.762
		s-222.888,0-232.198,0s-10.405,0-12.596,0c-2.191,0-18.072-14.786-13.691-35.049c4.381-20.263,14.786-21.905,14.786-21.905
		L469.832,329.598z"/>
	<path style="fill:#94C85C;" d="M82.105,298.383c-12.048-12.596-2.191-44.906,1.095-53.121c3.286-8.215,15.334-25.191,24.644-28.477
		c4.381-3.286,6.024-8.215,8.762-12.048c2.738-3.833,7.119-1.643,8.762,1.095s6.572,1.095,6.572-1.095
		c0-2.191,2.191-7.119,4.929-8.215c2.738-1.095,4.929,6.024,5.476,7.667c0.548,1.643,7.087,1.217,12.048,3.833
		s4.381,5.476-3.833,7.667c-8.215,2.191-17.524,35.596-18.072,41.62c-0.548,6.024-4.381,29.025,9.857,28.477
		c14.239-0.548,12.048-2.738,16.429-7.119s8.762-5.476,12.048-4.929c3.286,0.548-1.25,1.174-2.738,6.024
		c-1.488,4.85-2.191,13.143,7.667,15.334c1.674,0.469-1.643,3.833-7.667,0.548c4.053,1.863,12.329,3.548,8.215,4.381
		c-4.115,0.833-8.101,0.57-10.953-1.643c1.159,1.568,7.124,3.611,4.381,4.381c-2.743,0.77-11.5-2.19-13.691-7.667
		c-0.822,0.276-7.667,4.381-13.143,3.833c-5.476-0.548-7.119-0.548-7.119-0.548s6.024,15.334,10.405,22.453
		c4.381,7.119,7.119,20.81,4.929,25.191c-2.191,4.381-10.405,10.405-13.691,13.143s-3.833,7.667,7.667,7.119
		c5.476,0.548,6.572,2.191,4.381,2.191c-2.191,0-6.572,0-6.572,0s15.334,2.738,9.857,4.381c-7.119-0.548-12.91-1.12-15.882-1.095
		c-2.972,0.025,9.846,1.336,7.119,2.738c-2.727,1.402-8.762,2.19-19.167,0s-12.596-11.5-2.738-16.429
		c9.857-4.929,12.048-9.31,11.5-14.239c-0.548-4.929-14.239-15.881-18.072-18.072c-3.833-2.19-8.215-3.833-8.215-3.833
		s-7.119,9.857-19.167,14.238s-18.62,6.024-24.644,8.215c-6.024,2.19-10.405,8.214-6.024,14.238
		c4.381,6.024,7.119,12.596,7.119,12.596s-4.492-2.076-6.572-4.929c1.643,3.286,6.572,8.762,3.286,8.215s-7.667-4.929-9.858-7.667
		c0.548,2.19,4.929,10.405,1.643,8.215c-3.286-2.191-6.572-8.215-9.31-14.239c-2.738-6.024-5.476-18.072-0.548-22.453
		s8.762-3.833,14.239-7.119c5.476-3.286,15.334-10.405,19.167-16.429C80.462,308.788,82.105,298.383,82.105,298.383z"/>
	<path style="fill:#FFFFFF;" d="M127.011,229.928c-1.643,3.286-9.857,12.048-7.119,16.429s6.024,3.286,3.286,8.215
		c-2.738,4.929-2.738,16.429,0,19.715c2.738,3.286,8.215,9.31,13.691,10.405c-7.119-8.762-3.286-36.144,1.643-39.43
		c4.929-3.286,4.381-6.572,4.381-6.572s3.833-20.262,10.953-23.548C143.441,218.428,130.845,223.357,127.011,229.928z"/>
	<path style="fill:#FFFFFF;" d="M467.641,140.116c-10.953,0-26.286-1.095-36.692,1.643c-10.405,2.738-44.906,12.048-58.049,20.262
		c-13.143,8.215-36.692,32.858-42.168,37.787c-5.476,4.929-22.453,18.072-37.239,18.072c-14.786,0-83.788,0.548-88.717,1.095
		c-4.929,0.548-9.31,2.738-14.786,2.738c-5.476,0-15.334-1.095-25.739,2.738c-10.405,3.833-27.93,14.786-30.668,40.525
		c-2.738,25.739,12.596,46.001,18.62,50.93c6.024,4.929,20.81,13.691,34.501,14.786c13.691,1.095,27.382,1.095,30.12,1.095
		c2.738,0,120.48-0.548,122.671,0c2.191,0.548,121.575,0,132.528,0c10.953,0,17.524-12.048,9.31-12.596
		c-8.215-0.548-15.334-5.476-9.858-11.5c5.476-6.024,7.119-4.929,15.882-6.024c8.762-1.095,10.405-14.238-3.286-14.786
		c-13.691-0.548-13.691-10.405-3.833-10.405c9.857,0,9.31,0,16.977,0S512,273.739,512,267.168c0-6.572-7.119-9.31-18.62-9.31
		c-11.5,0-26.287,0-30.668,0s-8.762-11.5,7.119-11.5c15.881,0,13.691,0,21.358,0s10.953-3.286,10.953-8.214
		c0-4.929-0.548-8.215-11.5-8.215c-10.953,0-18.62,0-25.191,0s-7.119-11.5,4.381-11.5c11.5,0,14.238,0,21.358,0
		s12.048-16.977-4.929-16.977c-16.977,0-12.048-10.405-7.667-10.405s7.667,0,14.786,0c7.119,0,11.5-14.786-8.762-14.786
		c-20.263,0-14.239-9.857-8.215-9.857c6.024,0,6.024-7.119,6.024-9.857c0-2.738-6.697-2.738-12.048-2.738s-6.024-6.572,0.548-6.572
		C477.499,147.235,481.332,140.116,467.641,140.116z"/>
	<path style="fill:#73BBD8;" d="M347.709,213.55c-3.638-0.033-0.548-5.839,4.929-12.208c5.476-6.37,33.825-35.246,37.787-37.156
		c3.962-1.91,32.858,0,45.454,0c12.596,0,19.715,0,24.096,0s4.381,6.37-2.738,6.37c-7.119,0-9.31,0-12.048,0
		c-2.738,0-3.833,6.37,3.833,6.37s14.238,0,16.977,0c2.738,0,5.476,6.901-4.929,6.901s-9.858,0-15.882,0
		c-6.024,0-4.929,6.9,1.095,6.9c6.024,0,13.143,0,17.524,0c4.381,0,7.667,7.962-3.286,7.962c-10.953,0-6.024,0-10.953,0
		c-4.929,0-8.211,7.431,0.548,7.431s3.286,9.024,0,9.024s-62.431,0-72.288,0C367.972,215.142,347.709,213.55,347.709,213.55z"/>
	<g>
		<path style="fill:#231815;" d="M113.122,211.466c-0.49,0.756-3.06,5.225-4.319,4.792c-1.842-0.633,2.29-5.561,2.802-6.327
			c2.098-3.139,4.942-9.965,9.776-8.417c1.795,0.575,3.66,2.993,4.025,4.833c0.242,1.222-0.317,0.48-1.018-0.141
			c-0.772-0.685-1.494-1.622-2.424-2.111c-2.405-1.264-3.696,0.796-4.907,2.469C115.829,208.261,114.455,209.851,113.122,211.466z"
			/>
		<path style="fill:#231815;" d="M134.339,202.455c-0.339,1.019-0.851,3.074-1.896,3.676c-1.667,0.961-1.247-1.384-0.899-2.284
			c1.097-2.845,2.64-8.573,6.658-8.326c1.895,0.117,2.911,1.896,3.208,3.588c0.166,0.944,0.32,4.332-0.804,2.002
			c-0.532-1.103-1.476-3.372-2.988-2.813C136.177,198.83,135.015,201.183,134.339,202.455z"/>
		<path style="fill:#231815;" d="M153.972,206.666c-0.654-0.227-5.541-1.048-4.631,0.757c0.255,0.505,1.481,0.826,1.961,1.009
			c1.345,0.513,2.716,0.949,3.948,1.715c1.209,0.752,2.391,1.272,1.266,2.315c-0.89,0.825-2.536,1.344-3.637,1.858
			c-1.161,0.542-2.335,1.057-3.522,1.54c-7.589,3.095-15.708,5.296-21.563,11.376c-3.389,3.519-6.135,7.681-8.102,12.16
			c-0.262,0.596-1.669,3.836-0.63,4.277c1.072,0.455,2.471-2.785,2.731-3.304c2.089-4.177,3.765-8.485,6.988-11.955
			c2.641-2.843,5.981-4.93,9.462-6.594c5.511-2.634,11.472-4.047,17.099-6.384c2.008-0.834,5.152-1.959,4.013-4.796
			C158.558,208.656,155.829,207.317,153.972,206.666z"/>
		<path style="fill:#231815;" d="M121.118,247.081c0.389-1.304,0.568-2.862,1.472-3.94c0.68-0.811,1.712-1.31,1.26,0.085
			c-0.38,1.173-0.992,2.251-1.336,3.473c-0.392,1.394-0.872,2.798-2.348,3.38c-2.757,1.086-5.324-1.03-5.783-3.696
			c-0.234-1.358-0.057-2.794,0.38-4.094c0.212-0.63,1.068-3.061,1.977-3.055c-0.262-0.022-0.916,2.695-0.983,3.176
			c-0.178,1.274-0.192,2.742,0.169,3.984C116.642,248.859,120.088,250.002,121.118,247.081z"/>
		<path style="fill:#231815;" d="M95.555,225.329c3.033-3.63,6.777-7.728,11.228-9.631c0.326-0.139,1.567-0.774,1.93-0.459
			c0.584,0.509-0.79,1.447-1.242,1.84c-2.161,1.877-4.475,3.54-6.529,5.544c-8.521,8.315-15.35,19.491-19.37,30.662
			c-1.168,3.246-2.122,6.576-2.732,9.974c-0.107,0.594-0.954,7.899-0.998,7.895c-1.214-0.124-0.254-10.259-0.097-11.455
			c0.523-4.001,1.57-7.878,3.089-11.617C84.216,239.751,89.425,231.9,95.555,225.329z"/>
		<path style="fill:#231815;" d="M146.868,223.616c0.432-0.867,2.125-4.279,3.562-4.11c1.022,0.12-0.217,1.582-0.499,1.968
			c-0.833,1.139-1.568,2.24-2.154,3.528c-1.157,2.542-2.076,5.244-2.694,7.967c-0.126,0.555-0.983,6.869-0.751,6.864
			c-0.565,0.012-0.929-3.003-0.979-3.435c-0.151-1.308-0.133-2.628,0.086-3.929C143.967,229.324,145.296,226.366,146.868,223.616z"
			/>
		<path style="fill:#231815;" d="M94.749,274.807c-1.767-2.4-3.489-4.917-4.761-7.622c-0.2-0.425-1.245-2.299-0.766-2.809
			c0.528-0.562,1.496,0.688,1.797,1.032c2.279,2.605,3.826,5.973,5.901,8.766c1.808,2.433,3.748,4.758,5.757,7.027
			c1.587,1.793,3.25,3.519,5.06,5.091c2.551,2.215,5.354,4.085,8.312,5.706c1.456,0.797,2.964,1.508,4.504,2.129
			c0.306,0.124,2.369,0.7,2.378,1.144c0.009,0.425-7.194-1.532-7.767-1.734c-2.919-1.031-5.593-2.485-8.046-4.374
			C102.055,285.26,98.27,280.076,94.749,274.807z"/>
		<path style="fill:#231815;" d="M115.226,266.045c-1.128-2.042-2.199-4.335-2.451-6.685c-0.095-0.882,0.042-3.526,1.316-1.707
			c0.707,1.01,0.881,2.466,1.286,3.6c0.544,1.524,1.254,2.988,2.047,4.397c1.378,2.448,2.954,4.949,4.789,7.083
			c1.128,1.312,2.53,2.403,3.794,3.58c2.343,2.183,4.48,4.626,6.961,6.655c0.215,0.176,2.364,1.649,2.224,1.856
			c-0.322,0.474-2.772-0.921-3.106-1.092c-2.156-1.102-4.158-2.523-6.05-4.028c-2.358-1.876-4.839-3.838-6.629-6.282
			C117.732,271.137,116.425,268.606,115.226,266.045z"/>
		<path style="fill:#231815;" d="M148.607,286.049c-1.744,0.695-3.653,1.184-5.543,1.102c-0.535-0.023-4.175-0.603-3.196-1.584
			c0.288-0.288,1.654-0.037,2.05-0.022c1.101,0.042,2.127,0.057,3.218-0.142c2.117-0.385,4.105-1.28,5.982-2.309
			c3.638-1.995,6.714-4.49,9.8-7.23c1.432-1.272,2.979-2.508,4.819-3.127c1.139-0.383,4.481-1.057,5.492,0.031
			c-0.004-0.005-2.245,0.254-2.426,0.283c-1.189,0.189-2.27,0.606-3.28,1.261c-1.831,1.188-3.264,2.929-4.837,4.42
			C157.223,282.014,153.079,284.427,148.607,286.049z"/>
		<path style="fill:#231815;" d="M166.596,284.613c-0.043-0.729,0.554-6.012,2.261-5.134c0.755,0.389-0.439,2.673-0.553,3.249
			c-0.25,1.269-0.117,2.589,0.195,3.834c0.554,2.213,1.615,4.357,3.24,5.977c0.838,0.836,1.822,1.54,2.898,2.037
			c0.094,0.043,2.82,0.844,2.789,0.99c-0.147,0.687-3.463,0.067-3.963-0.069c-1.573-0.428-2.904-1.303-3.978-2.525
			C167.5,290.715,166.515,287.597,166.596,284.613z"/>
		<path style="fill:#231815;" d="M165.87,294.411c-0.388-0.361-2.66-2.539-2.002-3.273c0.648-0.722,2.955,2.484,3.501,2.959
			c1.462,1.276,3.049,2.508,4.77,3.41c0.16,0.084,4.016,1.55,4.104,1.087c-0.268,1.421-4.578,0.303-5.226,0.007
			C169.014,297.688,167.298,296.054,165.87,294.411z"/>
		<path style="fill:#231815;" d="M162.494,296.17c-0.415-0.418-2.229-2.141-1.895-2.962c0.498-1.223,2.378,1.686,2.76,2.078
			c1.193,1.224,2.544,2.411,3.967,3.358c0.753,0.501,1.552,0.943,2.382,1.304c0.535,0.233,2.2,0.438,2.475,0.911
			c0.106,0.182-2.542,0.189-2.796,0.152c-1.039-0.15-1.989-0.51-2.883-1.061C164.945,298.99,163.626,297.596,162.494,296.17z"/>
		<path style="fill:#231815;" d="M157.545,297.708c-0.555-0.608-2.044-1.985-1.819-2.865c0,0.026,0.072,0.155,0.081,0.156
			c-1.623,0.669-1.015-1.902,0.649-1.082c0.717,0.353,1.152,1.347,1.631,1.957c0.697,0.888,1.475,1.693,2.324,2.436
			c1.533,1.341,3.168,2.447,5.058,3.222c0.885,0.363,1.792,0.663,2.708,0.938c0.359,0.108,1.936,0.323,2.158,0.728
			c0.087,0.158-2.892,0.353-3.351,0.335c-1.2-0.046-2.355-0.272-3.466-0.735C161.062,301.775,159.08,299.84,157.545,297.708z"/>
		<path style="fill:#231815;" d="M145.054,241.384c-6.138,6.191-9.634,13.304-10.302,21.977c-0.347,4.514-0.367,9.275,0.669,13.707
			c0.424,1.816,1.062,3.514,2.28,4.948c0.244,0.287,0.961,0.787,0.821,1.204c-0.224,0.663-1.536,0.341-1.995,0.191
			c-3.975-1.3-5.533-7.035-5.969-10.664c-0.506-4.209-0.155-8.651,0.461-12.829c1.293-8.775,5.992-16.304,11.925-22.739
			c5.66-6.139,12.061-10.688,19.743-13.938c4.316-1.826,8.903-3.086,13.55-3.694c4.776-0.625,9.609-0.446,14.413-0.428
			c4.396,0.017,8.689-0.307,13.025-1.021c4.072-0.671,8.312-0.548,12.43-0.654c4.814-0.124,9.628-0.228,14.443-0.295
			c17.485-0.242,34.994-0.457,52.452-1.526c9.077-0.556,19.025-0.617,27.316-4.727c6.808-3.375,12.861-8.099,19.785-11.26
			c0.629-0.287,2.608-1.413,3.222-1.002c1.098,0.735-1.385,2.675-1.883,3.094c-2.557,2.149-5.42,3.974-8.246,5.742
			c-3.889,2.432-7.895,4.716-12.037,6.69c-4.223,2.013-8.574,2.854-13.19,3.419c-15.888,1.946-32.16,1.441-48.136,1.576
			c-6.859,0.058-13.709,0.122-20.561,0.444c-4.349,0.204-8.704,0.297-13.056,0.408c-4.016,0.103-8.148-0.036-12.125,0.585
			c-4.478,0.699-8.908,1.02-13.445,0.968c-4.33-0.05-8.715-0.276-13.026,0.242c-8.954,1.074-18.052,5.51-24.73,11.515
			C150.088,235.831,147.7,238.72,145.054,241.384z"/>
		<path style="fill:#231815;" d="M360.091,173.354c-4.017,3.953-7.487,8.384-11.577,12.279c-3.469,3.303-7.047,6.793-11.017,9.495
			c-0.403,0.274-1.303,1.082-1.36,0.368c-0.072-0.903,2.089-2.736,2.623-3.314c4.174-4.519,8.969-8.413,13.109-12.971
			c4.208-4.632,8.228-9.041,13.222-12.877c4.831-3.711,10-6.99,15.42-9.774c5.539-2.845,11.452-5.014,17.216-7.359
			c5.891-2.397,11.906-4.427,18.099-5.893c6.786-1.607,13.718-2.442,20.677-2.786c3.339-0.165,6.696-0.204,10.037-0.062
			c0.421,0.018,3.966-0.113,4.124,0.344c0.006,0.018-5.582,0.388-5.853,0.4c-3.459,0.158-6.917,0.447-10.354,0.873
			c-6.574,0.815-13.117,2.117-19.492,3.917c-6.919,1.954-13.586,4.547-20.215,7.311c-5.787,2.413-11.563,4.638-17.064,7.691
			C371.464,164.448,365.284,168.456,360.091,173.354z"/>
		<path style="fill:#231815;" d="M90.54,309.446c-8.447-8.711-14.896-21.047-14.516-33.46c0.008-0.276,0.031-2.536,0.458-2.458
			c0.563,0.103,0.757,2.767,0.836,3.188c0.534,2.873,1.071,5.745,1.839,8.567c1.879,6.91,5.064,13.302,9.562,18.885
			c4.454,5.528,9.915,10.145,15.844,14.019c6.169,4.032,12.709,7.374,18.632,11.797c4.736,3.537,12.055,8.943,12.392,15.463
			c0.356,6.887-8.159,9.919-12.865,12.888c-3.058,1.93-5.913,4.588-6.302,8.391c-0.395,3.858,3.009,5.885,6.214,6.974
			c3.509,1.192,7.287,1.594,10.967,1.833c0.43,0.028,7.665,0.231,7.662,0.373c-0.011,0.61-8.793,0.454-9.324,0.438
			c-3.912-0.123-8.021-0.462-11.687-1.933c-3.508-1.407-6.162-4.138-5.788-8.143c0.38-4.076,3.071-7.22,6.297-9.486
			c3.203-2.25,7.049-3.746,9.871-6.511c3.284-3.217,2.413-6.642-0.187-9.997c-5.094-6.576-12.853-11.321-19.898-15.529
			C103.246,320.385,96.406,315.645,90.54,309.446z"/>
		<path style="fill:#231815;" d="M130.563,298.749c-1.669-0.311-3.303-0.819-4.832-1.561c-0.518-0.251-2.893-1.356-2.676-2.165
			c0.251-0.939,3.705,0.927,4.175,1.112c1.872,0.736,3.853,1.149,5.843,1.403c4.187,0.534,8.486,0.432,12.661-0.146
			c0.739-0.102,9.467-2.049,9.479-2.019c0.199,0.521-4.871,2.53-5.295,2.692c-2.003,0.765-4.065,1.275-6.192,1.54
			C139.402,300.145,134.776,299.912,130.563,298.749z"/>
		<path style="fill:#231815;" d="M146.901,327.417c-1.327-3.232-2.862-6.37-4.344-9.533c-0.671-1.431-1.342-2.865-1.929-4.333
			c-0.338-0.844-0.986-2.05-0.969-2.995c0.037-2.034,1.874,1.031,2.252,1.638c2.01,3.218,3.559,6.797,5.137,10.241
			c1.579,3.446,3.01,6.968,3.996,10.633c0.96,3.569,2.044,7.51,1.586,11.229c-0.809,6.567-7.258,10.171-11.793,14.125
			c-1.57,1.368-7.248,5.921-2.143,6.777c1.991,0.334,4.044,0.373,6.057,0.479c0.336,0.018,3.611,0.5,3.771,0.345
			c-0.512,0.496-2.245,0.39-2.846,0.436c-1.507,0.115-3.022,0.2-4.534,0.239c-1.919,0.05-4.332,0.342-5.714-1.299
			c-3.148-3.738,3.344-8.482,5.733-10.598c4.056-3.592,9.099-6.666,8.959-12.712C150.006,337.151,148.51,332.055,146.901,327.417z"
			/>
		<path style="fill:#231815;" d="M165.766,325.836c-8.102-3.654-18.659-9.564-21.482-18.725c-0.113-0.366-1.028-3.979-0.161-4.026
			c0.33-0.018,1.12,2.488,1.216,2.701c2.216,4.915,6.102,8.828,10.436,11.94c21.431,15.394,49.437,14.25,74.549,14.189
			c5.961-0.015,11.922,0.1,17.877,0.333c2.758,0.108,5.515,0.242,8.268,0.441c0.336,0.024,6.001,0.882,6.057,0.8
			c-0.153,0.22-1.298,0.069-1.511,0.068c-1.549-0.001-3.098-0.038-4.647-0.042c-3.395-0.009-6.789,0.039-10.182,0.129
			c-6.479,0.172-12.957,0.447-19.432,0.718c-14.022,0.586-28.064,0.166-41.916-2.307
			C178.182,330.868,171.878,328.703,165.766,325.836z"/>
		<path style="fill:#231815;" d="M310.408,333.112c-10.024-0.686-20.07,0.361-30.087-0.245c-0.468-0.028-3.365,0.003-3.525-0.625
			c-0.16-0.628,1.113-0.872,1.584-1.014c2.866-0.865,5.992-1.166,8.973-1.186c11.503-0.078,23.009,0,34.512,0
			c18.841,0,37.685-0.098,56.526,0.051c12.24,0.097,24.48,0.195,36.721,0.197c5.486,0.001,10.973-0.003,16.458-0.112
			c2.166-0.043,4.331-0.17,6.496-0.207c2.83-0.049,6.926-0.354,9.543,1.031c1.885,0.997-0.912,1.243-1.742,1.289
			c-2.467,0.138-4.947,0.136-7.418,0.167c-6.06,0.074-12.12,0.091-18.18,0.096c-9.13,0.008-18.263-0.425-27.39-0.642
			c-10.944-0.26-21.858-0.041-32.801-0.078c-6.927-0.023-13.855-0.123-20.782-0.116c-7.117,0.007-14.227,0.705-21.325,1.149
			C315.475,333.02,312.911,333.283,310.408,333.112z"/>
		<path style="fill:#231815;" d="M104.274,327.489c0.972-0.976,1.822-2.125,2.394-3.383c0.247-0.544,1.104-2.458,0.54-2.976
			c-0.567-0.521-3.187,3.333-3.688,3.87c-4.228,4.54-9.872,7.805-15.447,10.409c-5.101,2.382-10.448,4.057-15.91,5.387
			c-5.385,1.311-13.236,2.54-16.005,8.084c-1.427,2.857-0.571,5.855,0.486,8.667c1.088,2.894,2.403,5.728,4.077,8.333
			c1.258,1.959,2.951,4.392,5.211,5.307c1.145,0.463,1.225,0.07,0.674-0.826c-0.652-1.062-1.622-2.009-2.365-3.011
			c-1.433-1.932-2.703-3.977-3.85-6.091c-1.353-2.493-3.065-5.322-3.531-8.159c-0.959-5.84,5.54-8.446,10.044-9.797
			C79.629,339.486,94.495,337.412,104.274,327.489z"/>
		<path style="fill:#231815;" d="M143.077,369.781c-0.587,0.024-2.339,0.126-2.739-0.582c-0.59-1.044,1.031-0.874,1.62-0.855
			c2.718,0.085,5.46-0.079,7.961,1.221c0.177,0.092,1.874,0.981,1.744,1.352c-0.115,0.326-1.82-0.129-2.171-0.164
			C147.338,370.538,145.221,370.09,143.077,369.781z"/>
		<path style="fill:#231815;" d="M137.575,372.31c-1.227-0.051-2.496-0.165-3.678-0.519c-0.603-0.181-2.646-0.907-1.341-1.507
			c0.907-0.418,3.284,0.471,4.315,0.562c1.488,0.131,2.981,0.12,4.473,0.172c3.024,0.107,6.085,0.261,9.085,0.666
			c0.403,0.055,4.352,0.984,4.326,1.013c-0.413,0.46-2.661,0.186-3.28,0.225c-1.497,0.093-2.982,0.184-4.483,0.151
			C143.849,373.004,140.69,372.718,137.575,372.31z"/>
		<path style="fill:#231815;" d="M51.427,367.497c-0.344-0.397-1.805-2.493-0.558-2.797c0.781-0.191,1.72,1.989,2.15,2.478
			c0.853,0.969,1.706,1.928,2.363,3.048c0.157,0.267,1.313,3.876,0.767,3.638c-0.415-0.181-0.98-1.281-1.305-1.654
			c-0.414-0.475-0.821-0.936-1.2-1.441C52.856,369.718,52.106,368.623,51.427,367.497z"/>
		<path style="fill:#231815;" d="M56.974,366.47c-0.311-0.478-1.65-2.371-1.045-3.033c0.898-0.983,2.089,2.041,2.378,2.5
			c0.835,1.327,1.675,2.693,2.648,3.922c0.496,0.627,3.001,2.688,2.929,3.46c-0.048,0.509-3.984-2.034-4.279-2.357
			C58.431,369.679,57.683,368.04,56.974,366.47z"/>
		<path style="fill:#231815;" d="M369.142,215.77c-8.329,0.021-16.769,0.152-25.071-0.662c-0.343-0.034-3.718-0.224-3.681-0.828
			c0.077-1.244,9.442-0.848,10.274-0.832c24.809,0.485,49.615,0.145,74.424,0.873c6.048,0.177,12.093,0.421,18.136,0.721
			c2.573,0.128,5.147,0.263,7.718,0.428c0.747,0.048,4.107-0.206,4.635,0.481c0.029,0.037-1.129,0.176-1.227,0.182
			c-1.605,0.105-3.219,0.099-4.827,0.122c-2.827,0.04-5.654,0.094-8.481,0.155c-5.073,0.11-10.146,0.236-15.22,0.276
			c-13.606,0.109-27.217-0.261-40.819-0.559C379.716,216.011,374.429,215.889,369.142,215.77z"/>
		<path style="fill:#231815;" d="M409.289,164.034c-4.508,0.049-9.445,0.346-13.884-0.669c-0.745-0.17-2-0.412-1.018-1.123
			c0.674-0.488,2.166-0.415,2.94-0.453c1.858-0.09,3.726,0.049,5.585,0.084c13.765,0.259,27.478,0.239,41.228,1.18
			c2.45,0.168,4.9,0.355,7.344,0.6c0.435,0.044,3.947,0.113,4.097,0.654c0.008,0.03-7.791,0.491-8.53,0.527
			c-3.896,0.192-7.785,0.35-11.687,0.304C426.67,165.036,417.975,164.408,409.289,164.034z"/>
		<path style="fill:#231815;" d="M201.815,343.245c-0.634-1.796-1.094-3.821-0.788-5.731c0.132-0.824,1.247-3.942,2.639-3.204
			c0.645,0.342-0.607,3.535-0.611,4.276c-0.013,2.348,0.939,4.695,1.907,6.79c1.82,3.937,4.045,7.731,6.569,11.256
			c1.163,1.625,2.372,3.247,3.75,4.698c0.626,0.658,1.29,1.322,2.052,1.823c0.676,0.444,1.61,0.482,2.228,0.897
			c0.281,0.205-1.143,0.355-1.101,0.354c-0.618,0.012-1.281-0.251-1.837-0.483c-1.206-0.503-2.327-1.285-3.35-2.085
			c-1.937-1.514-3.592-3.339-5.023-5.333C205.412,352.55,203.054,347.964,201.815,343.245z"/>
		<path style="fill:#231815;" d="M242.506,365.474c-5.825-0.028-11.854-0.192-17.64,0.636c-0.456,0.065-1.919,0.095-1.433,0.638
			c0.683,0.765,4.009,0.53,4.895,0.586c17.084,1.068,34.353,0.538,51.459,0.267c41.999-0.667,83.978-0.638,125.98-0.354
			c16.67,0.113,33.398,0.645,50.065,0.164c1.729-0.05,3.46-0.114,5.185-0.247c0.711-0.055,2.212,0.059,2.835-0.361
			c0.408-0.275,0.418-0.081,0.077-0.393c-0.455-0.415-2.135-0.337-2.693-0.387c-14.37-1.293-29.054-0.686-43.45-0.452
			c-13.093,0.213-26.182,0.35-39.276,0.321c-40.347-0.089-80.69-0.059-121.037-0.331
			C252.482,365.529,247.494,365.498,242.506,365.474z"/>
		<path style="fill:#231815;" d="M29.907,383.005c-5.693-0.027-11.593-0.183-17.247,0.631c-0.43,0.062-1.837,0.093-1.499,0.622
			c0.448,0.699,4.052,0.556,4.69,0.598c16.743,1.096,33.687,0.55,50.454,0.279c41.046-0.663,82.071-0.642,123.122-0.359
			c16.378,0.113,32.812,0.628,49.187,0.177c1.768-0.049,3.538-0.113,5.302-0.247c0.737-0.056,2.181,0.048,2.839-0.351
			c0.407-0.247,0.514-0.062,0.191-0.401c-0.406-0.424-2.117-0.347-2.641-0.396c-13.832-1.281-27.978-0.69-41.838-0.468
			c-13.112,0.21-26.219,0.363-39.333,0.333c-39.623-0.091-79.243-0.061-118.866-0.333C39.481,383.058,34.694,383.028,29.907,383.005
			z"/>
		<path style="fill:#231815;" d="M69.349,353.48c-0.83-0.019-5.803,0.672-3.012,1.817c2.916,1.196,7.116,0.568,10.188,0.34
			c8.684-0.645,17.251-0.673,25.957-0.383c3.264,0.109,6.823,0.642,10.069,0.175c0.87-0.125,2.411-0.452,1.294-1.345
			c-0.635-0.507-1.934-0.509-2.696-0.58c-1.983-0.183-3.995-0.093-5.977,0.054c-2.694,0.199-5.363,0.368-8.066,0.343
			C87.845,353.815,78.607,353.697,69.349,353.48z"/>
		<path style="fill:#231815;" d="M159.549,355.326c-0.838-0.021-5.482,0.666-2.835,1.816c2.747,1.193,6.819,0.562,9.732,0.33
			c8.19-0.651,16.261-0.659,24.474-0.369c3.04,0.108,6.433,0.669,9.449,0.162c0.884-0.149,2.17-0.483,1.145-1.342
			c-0.57-0.478-1.858-0.505-2.535-0.572c-1.747-0.174-3.524-0.102-5.271,0.026c-2.612,0.191-5.194,0.394-7.816,0.371
			C177.102,355.67,168.336,355.543,159.549,355.326z"/>
		<path style="fill:#231815;" d="M121.7,215.139c-3.976-0.511-1.561-9.137,0.079-7.71
			C123.419,208.855,123.255,215.338,121.7,215.139z"/>
		<path style="fill:#231815;" d="M139.878,203.326c-0.768,0.708-2.809,1.86-2.239,3.146c0.378,0.852,2.115,1.65,2.973,1.797
			c0.825,0.141,1.813-0.04,1.3-1.13c-0.406-0.863-1.976-1.087-2.783-1.295c0.489-0.318,2.195-1.49,2.026-2.293
			C141.003,202.831,140.511,202.953,139.878,203.326z"/>
		<path style="fill:#231815;" d="M138.042,218.251c-2.459-0.615-3.382-2.152-0.922-2.459S138.042,218.251,138.042,218.251z"/>
		<path style="fill:#231815;" d="M143.884,216.099c-1.845-0.922-0.307-3.689,0.615-3.382
			C145.421,213.024,143.884,216.099,143.884,216.099z"/>
		<path style="fill:#231815;" d="M357.969,197.868c-2.746,3.499-6.011,8.304-10.02,10.496c-1.469,0.803-1.464-0.032-0.756-1.207
			c1.38-2.291,3.49-4.154,5.226-6.17c7.69-8.933,14.452-18.523,23.102-26.617c2.432-2.276,4.997-4.432,7.779-6.273
			c1.225-0.811,2.494-1.575,3.814-2.221c0.755-0.369,2.261-1.315,3.173-1.11c0.079,0.021-1.38,1.076-1.484,1.143
			c-0.981,0.634-1.938,1.299-2.855,2.023c-1.764,1.393-3.391,2.954-4.966,4.555c-2.676,2.722-5.272,5.524-7.871,8.32
			C367.932,186.376,362.962,192.133,357.969,197.868z"/>
		<path style="fill:#231815;" d="M71.513,319.221c2.962-2.937,5.694-6.16,7.662-9.858c0.842-1.583,1.532-3.236,2.038-4.957
			c0.251-0.853,0.45-1.714,0.615-2.588c0.13-0.688,0.073-1.765,0.409-2.365c0.855-1.527,1.033,0.892,1.105,1.778
			c0.148,1.824-0.172,3.73-0.735,5.461c-1.338,4.114-3.909,7.807-6.743,11.027c-5.719,6.497-12.954,11.696-20.556,15.77
			c-3.136,1.681-6.845,2.823-9.734,4.919c-3.573,2.593-4.376,6.806-3.891,10.984c0.558,4.816,2.394,9.468,4.213,13.925
			c0.92,2.253,1.894,4.484,2.809,6.74c0.153,0.378,1.94,4.004,1.494,4.463c0,0-2.18-3.969-2.305-4.208
			c-1.273-2.459-2.579-4.902-3.813-7.381c-2.252-4.524-4.408-9.315-4.949-14.392c-0.582-5.47,1.478-10.496,6.39-13.241
			c4.235-2.367,8.78-4.105,12.979-6.591C63.112,325.977,67.597,322.894,71.513,319.221z"/>
		<path style="fill:#231815;" d="M103.788,260.315c-2.711,1.62-0.388,4.024,1.505,5.054c2.257,1.228,5.778,2.12,8.075,0.506
			c3.01-2.115,1.539-7.518-1.127-9.303c-1.73-1.159-3.738-0.328-5.356,0.644C106.321,257.556,103.341,259.367,103.788,260.315z"/>
		<path style="fill:#231815;" d="M117.883,267.363c0.07,1.323,1.132,2.752,1.772,3.858c0.299,0.516,1.167,1.491,1.222,2.08
			c0.055,0.587-0.139,0.607-0.818,0.887c-2.165,0.893-5.595,1.065-7.637-0.234c-2.122-1.35-1.722-3.931,0.127-5.268
			C113.56,267.955,116.618,266.475,117.883,267.363z"/>
		<path style="fill:#231815;" d="M101.174,327.903c-2.065,0.263-3.999-2.053-4.582-3.802c-0.893-2.68,1.292-3.401,3.571-3.026
			c1.157,0.19,2.308,0.472,3.448,0.741c0.705,0.167,2.575,0.307,2.864,1.109C107.134,324.754,102.667,327.773,101.174,327.903z"/>
		<path style="fill:#231815;" d="M96.53,330.689c-1.52-0.847-2.855-1.947-4.257-2.967c-0.908-0.66-2.085-1.639-3.288-1.639
			c-2.089,0-2.164,3.014-1.159,4.307C89.703,332.807,94.134,331.233,96.53,330.689z"/>
		<path style="fill:#231815;" d="M135.297,303.965c-3.493,0-9.519-1.828-12.109,1.504c-2.565,3.3,3.067,5.83,5.481,6.416
			c3.091,0.751,8.504,1.682,10.606-1.579C141.008,307.618,136.559,305.691,135.297,303.965z"/>
		<path style="fill:#231815;" d="M143.596,317.336c3.119,6.225-4.336,10.474-9.969,7.163
			C125.553,319.751,140.602,318.6,143.596,317.336z"/>
		<path style="fill:#231815;" d="M95.185,231.578c3.542,4.949-1.052,12.056-7.306,10.996
			C87.496,239.474,92.557,228.398,95.185,231.578z"/>
		<path style="fill:#231815;" d="M82.276,250.482c5.589,1.995,4.223,11.335-0.437,13.817
			C74.686,268.109,80.351,254.218,82.276,250.482z"/>
		<path style="fill:#231815;" d="M79.048,270.307c3.898-1.044,3.69,2.525,2.631,5.137c-0.288,0.711-0.63,1.409-1.029,2.064
			c-0.545,0.893-0.737,0.817-0.261,1.811c0.468,0.977,1.694,2.206,1.646,3.386c-0.033,0.814,0.096,0.547-0.615,0.839
			c-0.278,0.114-0.642,0.13-0.938,0.117C75.351,283.444,74.615,272.029,79.048,270.307z"/>
		<path style="fill:#231815;" d="M90.575,287.827c1.059,0.856,1.55,2.194,1.465,3.535c-0.054,0.854-0.461,2.731-1.388,2.791
			c-1.761,0.113-4.142-3.038-4.743-4.393c-0.602-1.357-0.353-4.306,1.705-4.009C88.166,285.83,90.382,287.942,90.575,287.827z"/>
		<path style="fill:#231815;" d="M2.879,355.326c-0.899-0.028-3.904,0.333-2.521,1.682c1.421,1.386,5.706,0.677,7.489,0.517
			c6.563-0.587,12.935-0.734,19.53-0.448c2.536,0.11,5.425,0.635,7.944,0.223c0.775-0.127,1.931-0.453,1.211-1.317
			c-1.012-1.214-4.525-0.747-5.805-0.651c-2.222,0.167-4.399,0.436-6.632,0.417C17.011,355.689,9.959,355.544,2.879,355.326z"/>
		<path style="fill:#231815;" d="M194.216,361.822c-0.383-0.666-1.969-2.661-2.605-1.277c-0.73,1.59,2.052,4.761,2.946,5.846
			c3.34,4.052,6.927,7.917,10.287,11.964c1.685,2.028,3.38,4.064,5.208,5.966c0.595,0.619,3.828,3.121,2.975,0.591
			c-0.594-1.76-2.736-3.243-4.084-4.357c-1.595-1.319-2.996-2.745-4.333-4.322C200.722,371.646,197.282,366.999,194.216,361.822z"/>
		<path style="fill:#231815;" d="M176.372,360.131c-1.109-1.756-2.885-1.032-2.048,0.949c0.876,2.074,2.692,3.627,4.011,5.405
			c1.5,2.023,2.514,4.373,3.432,6.704c0.466,1.183,0.891,2.381,1.307,3.582c0.317,0.916,0.558,2.286,1.166,3.058
			c1.152,1.463,1.811-0.02,1.592-1.249c-0.369-2.071-1.983-3.78-2.861-5.651C180.948,368.615,178.927,364.165,176.372,360.131z"/>
		<path style="fill:#231815;" d="M161.874,363.208c-0.319-0.493-1.458-1.818-2.227-1.283c-0.876,0.61,0.15,2.219,0.484,2.816
			c1.255,2.243,2.991,4.166,4.347,6.342c1.668,2.678,2.805,5.654,4.145,8.501c0.993,2.11,2.302,5.755,4.367,7.079
			c2.09,1.34,1.307-1.273,0.703-2.221c-1.43-2.244-3.309-4.031-4.499-6.447C166.785,373.106,164.836,367.793,161.874,363.208z"/>
		<path style="fill:#231815;" d="M98.726,358.901c-0.494-1.247-2.367-2.458-2.349-0.333c0.022,2.547,2.288,5.004,3.711,6.932
			c1.824,2.471,3.298,5.158,4.706,7.883c0.647,1.253,1.272,2.518,1.883,3.789c0.534,1.111,0.966,2.644,1.792,3.568
			c1.679,1.877,1.751-0.67,1.293-1.843c-0.804-2.057-2.474-3.647-3.594-5.528C103.376,368.679,100.805,363.952,98.726,358.901z"/>
		<path style="fill:#231815;" d="M83.035,360.786c-0.471-1.222-2.345-2.573-2.353-0.37c-0.007,2.089,1.622,4.364,2.707,6.052
			c3.136,4.88,5.022,10.499,8.35,15.253c0.36,0.514,1.55,2.265,2.38,1.42c0.364-0.37,0.064-1.097-0.079-1.488
			c-0.851-2.325-3.144-3.961-4.386-6.08C86.898,370.866,84.994,365.849,83.035,360.786z"/>
		<path style="fill:#231815;" d="M72.262,372.769c-0.065-0.691-1.125-0.786-1.608-0.514c-1.033,0.579-0.532,1.889-0.037,2.653
			c0.692,1.07,1.454,1.875,1.998,3.055c0.474,1.029,0.933,3.309,1.763,4.103c0.54,0.517,1.299,0.533,1.674-0.293
			c0.51-1.125-0.843-1.763-1.414-2.477C73.177,377.468,72.535,375.034,72.262,372.769z"/>
		<path style="fill:#231815;" d="M33.135,358.411c-0.337-1.172-1.935-3.084-2.341-0.957c-0.428,2.239,1.368,5.228,2.346,7.17
			c2.895,5.747,4.54,12.133,7.848,17.67c0.333,0.557,1.292,2.323,2.228,1.892c0.634-0.293,0.251-1.334,0.096-1.785
			c-0.892-2.594-3.096-4.581-4.277-7.043C36.42,369.91,34.807,364.188,33.135,358.411z"/>
		<path style="fill:#231815;" d="M419.203,233.461c-5.041,0.092-10.091,0.126-15.13-0.085c-2.321-0.097-4.798-0.105-7.069-0.659
			c-0.739-0.18-1.424-0.272-0.717-0.826c0.893-0.699,3.354-0.502,4.394-0.544c4.254-0.171,8.527,0.062,12.783,0.046
			c6.135-0.023,12.268-0.175,18.402-0.273c12.303-0.197,24.637-0.141,36.936,0.218c4.311,0.126,8.622,0.317,12.927,0.57
			c1.751,0.103,3.503,0.208,5.25,0.37c0.31,0.029,2.158,0.005,2.305,0.355c0.038,0.091-2.5,0.255-2.63,0.259
			c-2.661,0.091-5.323,0.132-7.984,0.224c-4.914,0.169-9.827,0.394-14.743,0.505c-11.854,0.266-23.723,0.074-35.578-0.051
			C425.301,233.537,422.252,233.502,419.203,233.461z"/>
		<path style="fill:#231815;" d="M413.417,247.131c-4.458,0.091-8.926,0.126-13.381-0.083c-2.052-0.096-4.361-0.078-6.353-0.669
			c-2.845-0.844,2.652-1.332,3.295-1.362c3.829-0.174,7.678,0.063,11.51,0.046c5.363-0.025,10.725-0.175,16.087-0.271
			c10.901-0.197,21.835-0.142,32.732,0.213c3.873,0.126,7.745,0.318,11.611,0.574c1.569,0.104,3.14,0.209,4.704,0.375
			c0.323,0.034,1.841,0.014,1.992,0.348c0.048,0.106-2.333,0.261-2.397,0.263c-2.327,0.089-4.655,0.131-6.982,0.221
			c-4.383,0.169-8.763,0.397-13.148,0.507c-10.443,0.262-20.903,0.074-31.347-0.05C418.966,247.209,416.192,247.173,413.417,247.131
			z"/>
		<path style="fill:#231815;" d="M441.132,266.496c-4.841,0.091-9.691,0.126-14.53-0.083c-2.248-0.097-4.702-0.084-6.895-0.669
			c-0.713-0.19-1.335-0.291-0.641-0.822c0.891-0.682,3.195-0.497,4.231-0.54c4.216-0.176,8.453,0.065,12.672,0.045
			c5.91-0.027,11.819-0.183,17.728-0.277c11.804-0.189,23.639-0.136,35.439,0.23c4.176,0.13,8.352,0.322,12.523,0.58
			c0.497,0.031,6.948,0.184,6.994,0.715c0.006,0.068-22.17,0.928-24.398,0.98c-11.382,0.265-22.779,0.075-34.161-0.05
			C447.106,266.573,444.119,266.538,441.132,266.496z"/>
		<path style="fill:#231815;" d="M409.992,285.862c-5.927,0.091-11.86,0.124-17.785-0.083c-2.787-0.098-5.706-0.107-8.452-0.668
			c-0.759-0.155-1.71-0.262-0.801-0.821c1.218-0.749,3.808-0.495,5.159-0.541c5.102-0.175,10.221,0.063,15.325,0.045
			c7.172-0.025,14.341-0.176,21.512-0.273c14.548-0.197,29.122-0.144,43.667,0.22c5.132,0.129,10.264,0.322,15.392,0.579
			c0.711,0.036,8.498-0.046,8.694,0.718c-0.034-0.133-11.821,0.458-12.765,0.486c-5.774,0.17-11.546,0.393-17.322,0.501
			c-13.955,0.261-27.922,0.07-41.878-0.055C417.156,285.938,413.574,285.903,409.992,285.862z"/>
		<path style="fill:#231815;" d="M458.234,298.392c-2.754,0.117-5.841,0.32-8.539-0.417c-0.708-0.193-1.822-0.488-1.104-1.253
			c0.83-0.884,3.516-0.456,4.486-0.426c4.21,0.131,8.406-0.238,12.613-0.303c6.85-0.105,13.886-0.126,20.66,1.061
			c0.226,0.04,1.722,0.181,1.775,0.476c0.064,0.354-2.047,0.347-2.258,0.359c-2.942,0.177-5.87,0.53-8.814,0.674
			C470.799,298.871,464.49,298.588,458.234,298.392z"/>
		<path style="fill:#231815;" d="M437.343,315.479c-3.795,0.093-7.604,0.13-11.396-0.095c-1.594-0.095-3.584-0.049-5.095-0.66
			c-2.336-0.944,2.143-1.325,2.801-1.36c3.122-0.167,6.268,0.063,9.393,0.049c4.52-0.021,9.038-0.173,13.556-0.271
			c9.141-0.199,18.321-0.146,27.457,0.214c1.175,0.046,15.283,0.687,15.228,1.308c-0.046,0.528-10.173,0.586-11.254,0.642
			c-5.179,0.27-10.353,0.444-15.54,0.443C454.109,315.746,445.725,315.632,437.343,315.479z"/>
		<path style="fill:#231815;" d="M453.583,337.123c-2.987,0.118-6.271,0.318-9.206-0.414c-0.708-0.177-1.986-0.462-1.209-1.25
			c0.95-0.963,4.048-0.449,5.112-0.422c4.383,0.11,8.754-0.233,13.133-0.308c7.467-0.128,15.12-0.139,22.515,1.058
			c0.243,0.039,1.875,0.172,1.923,0.477c0.055,0.353-2.177,0.345-2.395,0.357c-3.193,0.176-6.374,0.533-9.569,0.677
			C467.137,337.601,460.335,337.319,453.583,337.123z"/>
		<path style="fill:#231815;" d="M457.284,353.071c-2.656,0.092-5.333,0.13-7.984-0.093c-1.043-0.088-2.707-0.061-3.624-0.664
			c-1.533-1.009,1.225-1.301,1.983-1.36c2.228-0.174,4.495,0.065,6.727,0.048c3.242-0.025,6.48-0.183,9.72-0.278
			c6.361-0.187,12.78-0.136,19.133,0.229c0.807,0.046,10.708,0.91,10.603,1.309c-0.177,0.671-6.902,0.559-7.793,0.625
			c-3.715,0.274-7.421,0.453-11.147,0.452C469.029,353.337,463.155,353.222,457.284,353.071z"/>
		<path style="fill:#231815;" d="M468.201,209.539c-2.678,0.117-5.721,0.324-8.339-0.429c-0.743-0.214-1.724-0.524-0.987-1.264
			c0.939-0.944,4.023-0.402,5.041-0.383c3.948,0.076,7.883-0.279,11.828-0.326c6.601-0.079,13.423-0.141,19.94,1.096
			c0.13,0.025,1.585,0.228,1.569,0.459c-0.028,0.397-1.984,0.333-2.208,0.347c-2.858,0.177-5.702,0.531-8.562,0.674
			C480.408,210.017,474.278,209.736,468.201,209.539z"/>
		<path style="fill:#231815;" d="M437.159,195.869c-2.938,0.118-6.223,0.338-9.103-0.435c-0.782-0.21-1.867-0.516-1.024-1.27
			c1.068-0.956,4.227-0.394,5.374-0.373c4.335,0.082,8.658-0.279,12.99-0.325c7.219-0.077,14.682-0.174,21.818,1.122
			c0.166,0.03,1.599,0.205,1.567,0.467c-0.047,0.378-2.768,0.333-2.94,0.343c-3.027,0.18-6.041,0.527-9.072,0.657
			C450.249,196.334,443.681,196.064,437.159,195.869z"/>
		<path style="fill:#231815;" d="M447.415,184.478c-0.637,0.038-8.045,0.317-6.958-1.599c0.43-0.757,2.189-0.545,2.848-0.518
			c3.069,0.124,6.104-0.187,9.168-0.273c4.905-0.138,10.048-0.122,14.853,1.014c1.243,0.294,2.005,0.647,0.265,0.842
			c-2.092,0.235-4.197,0.508-6.296,0.675C456.701,184.985,452.014,184.68,447.415,184.478z"/>
		<path style="fill:#231815;" d="M462.504,175.365c-0.88,0.035-10.78,0.682-10.809-1.241c-0.025-1.67,9.091-0.838,9.509-0.846
			c7.3-0.147,14.56-0.466,21.865-0.159c0.919,0.039,12.041,1.084,11.91,1.443c-0.26,0.714-6.079,0.55-6.951,0.622
			c-3.206,0.266-6.404,0.445-9.622,0.45C473.106,175.641,467.803,175.518,462.504,175.365z"/>
		<path style="fill:#231815;" d="M468.494,166.252c-0.784,0.106-4.534-0.468-2.778-1.968c0.684-0.584,2.692-0.143,3.562-0.249
			c1.809-0.22,3.657-0.304,5.463,0.021c0.644,0.116,2.641,0.433,2.959,1.106c0.36,0.762-1.278,0.771-1.934,0.941
			C473.372,166.724,470.934,166.492,468.494,166.252z"/>
		<path style="fill:#231815;" d="M447.412,153.722c-0.643,0.029-10.631,0.037-9.083-1.675c0.782-0.865,3.352-0.448,4.274-0.419
			c3.938,0.126,7.861-0.237,11.795-0.304c6.47-0.11,13.135-0.125,19.523,1.06c0.215,0.04,1.619,0.18,1.68,0.477
			c0.07,0.345-1.997,0.351-2.158,0.361c-2.809,0.18-5.603,0.54-8.415,0.679C459.175,154.193,453.267,153.916,447.412,153.722z"/>
		<path style="fill:#231815;" d="M167.018,148.12c3.183,7.799,6.366,15.598,9.55,23.397c2.115,5.182,4.231,10.365,6.346,15.548
			c0.657,1.609,1.313,3.218,1.97,4.827c0.169,0.413,0.415,1.452,0.768,1.583c0.443,0.164,2.067-0.689,2.481-0.827
			c1.573-0.524,3.145-1.048,4.718-1.572c2.196-0.732,4.392-1.464,6.588-2.196c-2.161-6.484-4.323-12.969-6.484-19.453
			c7.102,0.309,14.204,0.617,21.306,0.926c-0.237-4.262-0.473-8.524-0.71-12.786c-0.034-0.62,0.205-3.507-0.247-3.886
			c-0.473-0.397-3.314,0.127-3.875,0.149c-5.279,0.203-10.557,0.406-15.835,0.609c-0.921,0.035-1.842,0.071-2.763,0.106
			c-0.282,0.011-1.257,0.209-1.511,0.058c-0.582-0.344-1.027-2.462-1.268-3.081c-1.762-4.53-3.523-9.061-5.285-13.591
			C177.516,141.327,172.267,144.723,167.018,148.12z"/>
		<path style="fill:#231815;" d="M192.955,133.299c0.806,1.477,1.612,2.955,2.418,4.432c0.636,1.167,1.273,2.334,1.91,3.501
			c0.251,0.461,0.685,1.8,1.138,2.086c0.686,0.432,3.173-0.753,4.015-1.005c1.78-0.534,3.561-1.068,5.341-1.602
			c-1.544-4.014-3.088-8.028-4.632-12.042C199.748,130.211,196.351,131.755,192.955,133.299z"/>
		<path style="fill:#231815;" d="M209.629,127.741c0.696,2.088,1.392,4.177,2.088,6.266c0.379,1.138,0.841,4.248,1.82,4.886
			c0.643,0.42,2.261,0.336,3.004,0.413c1.302,0.134,2.748,0.314,4.048,0.067c0.933-0.178,1.409-0.402,1.138-1.346
			c-0.383-1.33-1.222-2.632-1.636-3.998c-0.9-2.966-1.562-6.018-2.125-9.065C215.187,125.888,212.408,126.814,209.629,127.741z"/>
		<path style="fill:#231815;" d="M230.008,156.457c2.576,1.61,5.152,3.22,7.728,4.83c1.67,1.044,3.34,2.087,5.01,3.131
			c0.328,0.205,1.742,1.372,2.104,1.27c0.652-0.184,1.87-2.939,2.223-3.493c1.125-1.768,2.25-3.536,3.375-5.304
			c0.571-0.898,0.944-0.979,0.477-1.719c-0.744-1.179-2.435-2.248-3.454-3.189c-2.733-2.523-5.466-5.046-8.199-7.568
			C236.184,148.428,233.096,152.443,230.008,156.457z"/>
		<path style="fill:#231815;" d="M243.903,177.762c9.424-10.602,18.847-21.203,28.271-31.805c0.208-0.234,1.006-1.462,1.336-1.504
			c0.597-0.075,2.512,2.084,2.991,2.495c0.802,0.687,1.604,1.375,2.405,2.062c0.23,0.197,1.058,0.676,1.121,0.966
			c0.059,0.271-0.554,1.134-0.668,1.367c-3.45,7.057-6.9,14.113-10.349,21.169c-3.12,6.382-6.24,12.763-9.36,19.145
			C254.401,187.026,249.152,182.394,243.903,177.762z"/>
		<path style="fill:#231815;" d="M270.767,186.234c1.151,1.727,2.188,3.657,3.505,5.257c0.585,0.711,0.252,0.619,1.173,0.409
			c1.262-0.288,2.518-0.839,3.746-1.249c0.469-0.156,1.272-0.252,1.382-0.639c0.182-0.64-0.678-2.372-0.858-3.004
			c-0.574-2.009-1.148-4.019-1.722-6.028C275.584,182.731,273.175,184.482,270.767,186.234z"/>
		<path style="fill:#231815;" d="M281.933,180.979c0.657,2.408,1.314,4.817,1.971,7.225c1.252-0.358,2.601-0.611,3.81-1.089
			c0.973-0.384,0.782-0.261,0.613-1.359c-0.38-2.468-0.759-4.937-1.139-7.405C285.436,179.228,283.685,180.104,281.933,180.979z"/>
		<path style="fill:#231815;" d="M297.698,177.695c-4.817,8.32-9.634,16.64-14.451,24.96c1.044,0.348,2.089,0.696,3.133,1.045
			c0.584,0.195,2.19,1.09,2.783,0.921c0.836-0.238,2.179-2.583,2.721-3.225c3.938-4.668,7.877-9.335,11.815-14.003
			c1.065-1.262,2.13-2.524,3.195-3.786C303.828,181.636,300.763,179.665,297.698,177.695z"/>
	</g>
</g>
</svg>
