<?xml version="1.0" encoding="iso-8859-1"?>
<!-- Generator: Adobe Illustrator 21.1.0, SVG Export Plug-In . SVG Version: 6.00 Build 0)  -->
<svg version="1.1" id="_x31_2" xmlns="http://www.w3.org/2000/svg" xmlns:xlink="http://www.w3.org/1999/xlink" x="0px" y="0px"
	 viewBox="0 0 512 512" style="enable-background:new 0 0 512 512;" xml:space="preserve">
<g>
	<path style="fill:#595757;" d="M275.351,143.008c0,0-10.351-1.941-14.232-5.822c-3.882-3.882,4.529-7.763,4.529-7.763l12.292,4.529
		L275.351,143.008z"/>
	<path style="fill:#FFFFFF;" d="M458.633,395.661c-4.247-3.775-5.663-5.663-13.686-6.607c-8.023-0.944-22.181-2.832-29.732-6.607
		c-7.551-3.775-9.91-7.079-9.91-7.079s3.303,0,0.944-4.247c-2.36-4.247,3.304-5.191,0-12.27c-3.303-7.079,1.888-13.686,3.776-15.574
		s3.303,2.36,8.023,0.944c4.719-1.416,0.472-1.416,0.944-6.607c0.472-5.191,8.495-23.125,8.967-28.788
		c0.472-5.663,4.719-31.148-3.303-58.048c-3.775-22.181-8.967-27.372-8.967-27.372s0-35.867-3.303-40.586
		c-3.304-4.719-7.551-10.854-5.663-11.798c1.888-0.944,15.102-8.967,21.709-12.742c6.607-3.775,13.214-12.27,16.046-18.877
		c2.832-6.607,7.079-22.653,5.663-25.956s-8.967-6.135-14.158-4.247c-5.191,1.888-10.383,5.663-16.046,10.382
		c-5.663,4.719-11.326,14.63-13.214,19.821c-1.888,5.191-4.719,8.495-4.719,8.495l1.416-16.99c0,0,0.944-18.405,0.944-23.597
		c0-5.191-8.023-13.686-9.911-14.158c-1.888-0.472-6.135,2.36-8.023,6.607c-1.888,4.247-5.191,15.574-5.663,19.821
		c-0.472,4.247-6.607,44.834-6.607,44.834s-3.858,7.281-7.551,9.91c-3.693,2.629-12.923,4.705-17.462,14.158
		c-4.539,9.453-2.36,10.383-2.36,10.383s-1.166,2.378,4.719,7.079c5.885,4.701,8.495,13.686,8.495,13.686s-2.05-1.203-5.663-0.944
		s-21.237-5.663-21.237-5.663s-4.719-2.36-5.663-4.247c-0.944-1.888-13.214-31.148-14.158-33.507
		c-0.944-2.36-6.135-15.102-6.135-15.102l-11.876-22.934c0.85-1.5,2.07-3.037,3.854-4.438c-2.36-2.832-8.967-0.944-8.967-0.944
		s-6.607-3.775-13.214-0.944c-4.247-0.944-8.023,4.719-6.135,9.439c1.888,4.719,7.079,5.191,7.079,5.191s-1.888,0-2.832,1.888
		c-0.944,1.888,6.476,5.028,8.023,3.775l1.888-1.115v32.263c0,0-6.135,22.181-5.663,27.844c0.472,5.663,8.718,11.642,19.349,16.99
		c10.631,5.348,19.349,8.967,19.349,8.967s5.191,8.495,20.293,14.63c15.102,6.135,16.99,6.135,16.99,6.135s-2.832,5.191-2.832,12.27
		c0,7.079,3.303,18.877-7.079,30.204c-6.135-1.888-25.956-2.832-36.811,2.832c-10.854,5.663-24.069,15.102-25.956,33.507
		s5.663,27.844,5.191,42.002c-0.472,14.158-4.247,15.574-10.383,16.046c-6.135,0.472-18.877,0-22.181,2.36
		c-3.303,2.36-4.247,7.551-0.944,9.911c-1.416,4.247,2.832,7.079,5.663,5.663c0.472,4.247,1.888,3.775,8.967,3.303
		c7.079-0.472,23.125-5.191,29.26-8.967c6.135-3.775,8.967-10.383,8.495-15.574c-0.472-5.191,0-16.046,0-16.046
		s2.749,1.875,2.36-3.775c-0.389-5.65,1.416-8.967,1.416-13.686c0-4.719,1.888-2.832,5.191-5.663s12.27-5.663,18.405-6.135
		c6.135-0.472,17.461,1.888,17.461,1.888s-8.495,16.518-3.775,27.844c4.719,11.326,9.439,16.518,24.069,18.877
		c14.63,2.36,35.867,3.304,48.609,5.191c12.742,1.888,21.709,7.079,22.181,8.967c0.472,1.888-1.888,9.911-7.551,10.383
		c-5.663,0.472-13.686-0.944-23.125,0c-9.439,0.944-15.102,7.079-10.383,10.383c-0.472,4.719,4.719,5.663,7.551,4.719
		c1.416,1.416,2.156-0.586,10.854-0.472c8.698,0.115,26.428-2.832,31.147-6.135c4.719-3.303,9.439-3.303,10.855-10.854
		C463.352,408.403,462.88,399.436,458.633,395.661z"/>
	<path style="fill:#595757;" d="M300.535,156.391c0,0-3.304,1.888-9.911,0.472c-6.607-1.416-4.87-6.605-2.36-12.27
		c2.51-5.665,9.556-11.134,15.574-13.214c6.017-2.08,9.911-2.36,12.742,0.944c2.832,3.303,0.472,9.439,0.472,9.439
		S303.839,154.503,300.535,156.391z"/>
	<path style="fill:#B4B4B5;" d="M308.558,153.087c0,0-5.191,0-8.023-2.832s2.755-7.588,5.663-8.495
		c2.908-0.907,9.439,3.775,9.439,3.775L308.558,153.087z"/>
	<path style="fill:#C8C9CA;" d="M328.399,148.83c4.228-0.934,15.082,4.257,23.105,6.145c8.023,1.888,72.678,19.821,84.948,24.54
		c12.27,4.719,36.339,15.102,45.777,20.293c9.439,5.191,25.013,17.934,27.372,22.653c-7.079-3.775-19.821-9.439-24.069-11.326
		c-4.247-1.888-88.251-30.204-88.251-30.204l-49.553-15.102l-31.62-9.439l7.551-8.495L328.399,148.83z"/>
	<path style="fill:#C8C9CA;" d="M259.825,194.115c0,0,25.877-24.583,38.816-36.228c12.939-11.645,51.107-48.52,55.636-54.342
		c4.529-5.822,17.467-21.996,20.055-25.877c2.588-3.882-1.294,14.879-6.469,25.23c-5.175,10.351-34.934,40.109-39.462,45.932
		c-4.529,5.822-58.87,53.048-58.87,53.048L259.825,194.115z"/>
	<path style="fill:#595757;" d="M239.123,199.938c0,0-2.588-9.704,3.882-11.645c6.469-1.941,7.138-0.489,16.82,5.822
		c9.682,6.312,13.586,12.939,15.526,17.467c1.941,4.528-1.433,8.242-8.41,7.763C259.964,218.866,246.239,212.876,239.123,199.938z"
		/>
	<path style="fill:#94C85C;" d="M26.931,295.036c-4.529,2.588-6.469-1.294-3.882-13.586s8.506-30.036,10.351-33.64
		c1.845-3.604,10.998-31.052,14.879-40.109c3.882-9.057,21.995-26.524,28.465-31.053c6.469-4.529,16.82-9.057,16.82-9.057
		s6.469-6.469,10.351-10.351c3.882-3.882,9.704-4.528,11.645-1.294c1.941,3.235,4.528,8.41,8.41,9.057
		c3.881,0.647,8.973-0.96,10.351-3.235c1.378-2.275,0.647-9.057,5.175-12.292c4.529-3.235,7.798,1.735,9.704,5.822
		s7.763,9.057,7.763,9.057s12.938,1.294,18.761,5.175c5.822,3.882,6.469,5.822-1.294,9.704c-7.763,3.882-20.055,6.469-28.465,9.057
		c-8.41,2.588-5.822,14.232-2.588,16.82c3.235,2.588,14.879,7.116,20.055,9.704c5.175,2.588,19.408,7.116,29.759,8.41
		c10.351,1.294,19.408-3.882,22.642-7.763c3.235-3.882,19.408-12.938,27.818-16.173c8.41-3.235,14.232,1.294,15.526,6.469
		c1.294,5.175,1.294,1.294,1.294,5.175c0,3.882-1.294,3.882-3.235,4.529c-1.941,0.647-3.235,0.647-4.529,2.588
		c-1.294,1.941,0,1.941-4.528,1.941c-4.528,0-0.415,4.635,0,7.763c0.415,3.128,0.647,9.704-5.175,9.704
		c-0.994,2.925-5.842,7.738-10.351,5.175c-4.508-2.562-5.822,0.647-9.057,1.294c-3.235,0.647-13.585,0-14.879-1.294
		c-1.294-1.294-5.175,0.647-14.879,2.588c-9.704,1.941-23.18,4.368-29.759,6.469c-6.579,2.101-7.763,1.294-16.173,1.294
		c-8.41,0-12.938-1.941-12.938-1.941s-7.488,39.598-7.763,42.05c-0.275,2.452,1.294,3.235,10.998,6.469
		c9.704,3.235,29.112,18.761,33.64,32.346c4.529,13.585,0.647,25.877-7.763,40.756s-10.351,23.289-7.763,29.112
		c2.588,5.822,7.116,8.41,16.82,8.41c9.704,0,13.585-0.647,21.996,2.588c8.41,3.235,7.116,4.529,1.294,4.529
		c-5.822,0-12.939,0-12.939,0s14.232,3.235,20.702,8.41c6.469,5.175-11.645,0.647-20.702,0c-9.057-0.647-9.057-0.647-9.057-0.647
		s7.489,1.499,9.057,6.469c1.568,4.97,3.882,3.882-3.882,1.941c-7.763-1.941-23.157-3.654-30.406-8.41
		c-7.248-4.756-11.645-13.586-12.292-20.702c-0.647-7.116,0.647-34.287-1.941-44.638c-2.588-10.351-12.292-19.408-21.349-23.936
		c-9.057-4.529-26.524-12.292-26.524-12.292s-14.879,9.704-20.702,21.349c-5.822,11.645-6.469,16.82-17.467,21.996
		c-10.998,5.175-16.82,7.116-22.642,17.467c-5.822,10.351-3.882,16.173,4.528,20.702c8.41,4.528,12.292,5.175,19.408,6.469
		c7.116,1.294,14.232,5.175,12.939,6.469c-1.294,1.294-17.467-0.647-17.467-0.647s14.232,3.235,18.114,7.763
		c3.882,4.529,4.157,6,0.647,5.822c-3.509-0.178-14.879-6.469-22.642-7.116c-7.763-0.647,1.294,1.294,5.822,4.529
		c4.528,3.235,7.763,7.763,0,4.529c-7.763-3.235-9.057-2.588-21.349-7.763c-12.292-5.175-23.936-10.998-24.583-33.64
		c-0.647-22.642,3.235-26.524,7.116-31.052c3.882-4.529,17.467-22.642,19.408-27.171c1.941-4.529,0-27.818,0-27.818L26.931,295.036z
		"/>
	<path style="fill:#FFFFFF;" d="M120.088,212.876c2.588-6.469,7.763-12.939,11.645-16.82c3.882-3.882,12.292-9.057,18.114-9.704
		c5.822-0.647,9.057-0.647,9.057-0.647s-8.41,5.822-12.292,14.879c-3.882,9.057-3.882,21.995-3.882,21.995L120.088,212.876z"/>
	<path style="fill:#FFFFFF;" d="M108.444,243.928c0,0,17.62,7.252,26.524,7.116c1.941,5.175,2.588,20.702,0,29.112
		c-2.588,8.41-9.736,25.858-24.583,32.993c-14.847,7.135-18.761,12.939-29.112,4.529c-10.351-8.41-10.998-21.996-7.763-35.581
		c3.235-13.585,16.82-21.996,21.349-28.465C99.387,247.163,103.915,241.988,108.444,243.928z"/>
	<g>
		<path style="fill:#231815;" d="M358.117,179.526c1.438-1.078,3.123-1.93,4.795-2.572c1.215-0.466,4.889-0.295,5.701-1.114
			c0.819-0.826,0.619-3.403-0.047-4.224c-1.313-1.617-2.122-0.597-3.445,0.286c-6.485,4.329-13.621,9.204-17.85,15.906
			c-1.813,2.873-3.508,6.644-2.666,10.128c0.331,1.369,0.582,2.251,2.178,1.856c1.796-0.445,1.302-1.527,1.159-2.459
			c-0.238-1.55-0.962-2.036-0.596-3.918c0.374-1.924,1.401-3.736,2.462-5.354C351.993,184.723,354.921,181.889,358.117,179.526z"/>
		<path style="fill:#231815;" d="M347.077,198.069c-0.487-0.776-0.759-2.011,0.006-2.756c1.804-1.756,1.041,1.158,1.268,1.487
			c0.611,0.89,7.764,2.493,7.816,2.406C354.654,201.727,346.468,198.982,347.077,198.069z"/>
		<path style="fill:#231815;" d="M353.058,209.802c-0.495-0.438-6.272-5.534-4.241-6.432c1.665-0.737,7.389,6.051,8.572,7.274
			c2.58,2.668,4.865,5.947,5.646,9.633c0.315,1.488,0.474,8.561-2.227,8.691c0.362-0.017,0.407-4.697,0.318-5.288
			c-0.27-1.798-0.992-3.571-1.788-5.195C357.76,215.268,355.47,212.432,353.058,209.802z"/>
		<path style="fill:#231815;" d="M404.275,145.643c-1.91,4.009-4.088,8.121-7.205,11.336c-0.743,0.766-7.41,6.042-8.421,3.338
			c0.081,0.217,6.627-4.81,7.116-5.36c2.783-3.135,4.764-6.995,6.565-10.75c3.531-7.363,6.132-15.063,11.513-21.342
			c4.975-5.806,10.965-10.928,17.686-14.602c3.168-1.732,6.591-3.072,10.129-3.82c2.055-0.434,6.923-1.365,8.862,0.05
			c-0.941-0.695-6.375,0.706-7.484,1c-1.914,0.508-3.776,1.291-5.555,2.151c-4.543,2.196-8.724,5.275-12.564,8.519
			c-5.11,4.316-10.168,9.226-13.451,15.107C408.859,135.945,406.704,140.875,404.275,145.643z"/>
		<path style="fill:#231815;" d="M446.493,130.632c1.145-3.904,2.203-7.878,3.836-11.614c0.22-0.504,3.948-7.744,5.035-6.573
			c0.731,0.787-2.495,6.518-2.897,7.515c-1.428,3.538-2.453,7.209-3.55,10.859c-2.111,7.026-4.624,13.337-9.496,18.913
			c-4.715,5.398-10.322,9.976-16.428,13.715c-2.885,1.767-5.911,3.309-9.047,4.58c-2.052,0.831-6.962,3.278-9.275,2.534
			c0.554,0.216,4.943-2.162,5.564-2.446c2.113-0.966,4.152-2.075,6.131-3.29c4.156-2.554,8.098-5.468,11.871-8.554
			C436.95,149.145,442.905,141.327,446.493,130.632z"/>
		<path style="fill:#231815;" d="M378.212,143.109c-0.713,4.535-1.464,9.08-2.5,13.554c-0.242,1.044-0.677,5.014-1.728,5.652
			c-1.781,1.082-0.519-6.02-0.324-7.103c1.051-5.827,2.113-11.638,2.966-17.5c1.249-8.585,1.888-17.329,3.954-25.772
			c1.238-5.061,2.864-10.093,5.27-14.729c1.302-2.51,5.839-10.854,9.725-9.925c-0.807-0.183-3.764,3.333-4.119,3.79
			c-1.489,1.916-2.563,4.15-3.489,6.379c-2.096,5.046-3.46,10.451-4.659,15.768C381.086,123.075,380.18,133.197,378.212,143.109z"/>
		<path style="fill:#231815;" d="M404.712,123.192c-0.063,1.057-0.582,11.19-2.546,10.878c-1.697-0.27,0.301-13.173,0.349-14.718
			c0.173-5.574,0.206-11.25-1.135-16.697c-0.532-2.161-1.225-4.263-2.129-6.297c-0.424-0.953-2.571-3.81-2.399-4.86
			c-0.006,0.039,4.141,4.535,4.593,5.233c1.831,2.827,2.986,5.924,3.558,9.239C405.983,111.64,405.466,117.525,404.712,123.192z"/>
		<path style="fill:#231815;" d="M413.041,197.402c-0.172-0.846-2.158-9.062-0.144-9.362c1.818-0.27,2.874,11.053,3.103,12.385
			c0.913,5.312,1.227,10.806,0.986,16.191c-0.039,0.861-1.233,8.452-1.293,8.406c-0.866-0.656-0.626-4.47-0.784-5.666
			c-0.312-2.362-0.626-4.708-0.791-7.087C413.775,207.308,413.583,202.348,413.041,197.402z"/>
		<path style="fill:#231815;" d="M419.619,234.676c3.066,8.23,3.665,17.114,5.193,25.698c1.552,8.719,4.234,16.736,3.963,25.702
			c-0.211,6.964-0.908,14.063-2.325,20.89c-0.534,2.575-1.169,5.129-1.884,7.659c-0.921,3.257-2.68,6.644-3.257,9.967
			c0.014-0.082,0.321-0.499,0.314-0.517c0.444,1.334-1.897,5.12-2.372,6.493c-1.216,3.513-2.07,9.538,2.334,11.258
			c-3.286-3.988,0.019-8.265,1.569-12.291c1.598-4.151,2.733-8.492,3.709-12.826c2.308-10.253,4.289-20.647,4.46-31.186
			c0.169-10.45-2.005-20.995-3.97-31.225c-1.09-5.673-2.424-11.355-4.29-16.827c-0.496-1.454-4.414-13.29-6.94-12.502
			C415.446,225.181,419.449,234.215,419.619,234.676z"/>
		<path style="fill:#231815;" d="M354.758,266.13c0.156-0.895,0.626-4.738-1.151-4.438c-1.225,0.207-1.755,4.446-1.893,5.133
			c-0.991,4.939,0.265,9.811,0.183,14.779c-0.086,5.163-1.542,10.123-4.458,14.397c-3.007,4.407-7.184,6.945-11.252,10.184
			c-0.814,0.648-3.423,2.402-1.461,2.98c1.591,0.469,4.687-2.005,5.755-2.848c3.404-2.684,6.253-6.401,8.552-10.053
			C354.733,287.212,353.025,276.216,354.758,266.13z"/>
		<path style="fill:#231815;" d="M300.204,227.161c3.038,1.755,6.125,3.463,9.074,5.367c1.021,0.659,4.802,2.657,2.535,3.255
			c-2.596,0.685-8.317-3.962-10.332-5.127c-3.606-2.085-7.212-4.169-10.818-6.254c-5.344-3.09-11.111-6.185-12.455-12.801
			c-0.718-3.536-0.081-7.159,0.66-10.634c0.253-1.187,2.39-7.071,2.077-7.857c1.14,2.862-0.46,7.982-0.532,11.079
			c-0.091,3.877,0.16,7.795,2.579,11.01C286.946,220.457,294.729,223.637,300.204,227.161z"/>
		<path style="fill:#231815;" d="M380.589,164.993c-3.09-0.887-46.703-14.445-46.376-15.107c0.512-1.038,8.349,1.405,9.088,1.596
			c6.819,1.756,13.52,3.968,20.259,6.002c13.546,4.088,27.134,8.031,40.838,11.557c26.962,6.938,54.59,15.373,78.426,30.135
			c5.678,3.516,11.203,7.324,16.284,11.67c2.675,2.288,5.208,4.716,7.637,7.262c1.329,1.393,3.547,5.449,5.096,6.269
			c-1.847-0.978-3.419-3.459-4.911-4.906c-2.07-2.008-4.221-3.917-6.455-5.739c-5.017-4.091-10.369-7.748-15.967-11
			c-10.444-6.068-21.414-11.079-32.643-15.512C428.649,178.057,404.44,172.183,380.589,164.993z"/>
		<path style="fill:#231815;" d="M372.343,168.695c-9.556-2.808-19.091-5.684-28.623-8.57c-4.114-1.246-8.231-2.481-12.339-3.745
			c-0.317-0.098-5.787-2.141-5.924-1.995c0.748-0.795,8.079,1.927,8.972,2.174c6.576,1.816,13.096,3.829,19.629,5.792
			c13.651,4.102,27.304,8.189,41.086,11.829c27.164,7.175,54.356,15.311,79.719,27.577c6.233,3.015,12.372,6.26,18.285,9.867
			c3.007,1.834,5.939,3.78,8.823,5.8c2.123,1.487,4.201,3.684,6.437,4.933c-4.522-2.526-8.588-6.09-13.035-8.797
			c-5.588-3.401-11.351-6.493-17.249-9.324c-10.806-5.186-21.887-9.699-33.164-13.756
			C421.137,181.908,396.593,175.881,372.343,168.695z"/>
		<path style="fill:#231815;" d="M466.71,203.331c9.794,3.267,19.569,6.762,28.951,11.094c1.298,0.599,17.139,9.122,16.308,9.984
			c-0.837,0.868-10.447-4.711-11.421-5.171c-7.653-3.612-15.449-6.854-23.401-9.749c-15.619-5.688-31.534-10.563-47.283-15.876
			c-28.002-9.447-56.241-18.075-84.429-26.94c-1.28-0.403-22.358-7.148-22.251-7.423c0.38-0.975,39.863,10.451,44.047,11.602
			c22.712,6.244,45.091,13.585,67.331,21.33C445.273,195.911,456.003,199.588,466.71,203.331z"/>
		<path style="fill:#231815;" d="M368.48,260.741c2.554,0.41,6.198,1.112,8.754,0.3c1.436-0.457,2.031-0.406,0.431-1.397
			c-2.021-1.252-6.052-1.227-8.405-1.639c-2.97-0.519-5.926-1.106-8.873-1.743c-13.022-2.815-27.361-6.496-37.81-15.238
			c-7.327-6.13-12.562-16.328-16.263-24.885c-2.709-6.263-4.212-12.879-5.748-19.499c-0.277-1.195-4.128-16.136-5.097-15.409
			c-1.709,1.282,1.219,10.009,1.591,11.629c1.105,4.815,2.336,9.613,3.932,14.291c3.067,8.988,7.469,17.345,12.723,25.243
			c5.519,8.297,12.309,13.496,21.31,17.813C345.585,255.271,356.92,258.85,368.48,260.741z"/>
		<path style="fill:#231815;" d="M386.292,232.554c-3.679,0.743-7.315,1.872-11.069,2.184c-3.892,0.323-7.684-0.492-11.493-1.187
			c-8.341-1.522-16.433-3.526-23.431-8.511c-13.261-9.448-18.839-24.025-24.076-38.815c-1.059-2.992-2.742-5.887-3.641-8.905
			c-1.408-4.727,2.074-0.597,3.018,1.44c3.095,6.684,5.094,13.871,8.041,20.629c5.251,12.04,12.629,22.752,25.615,27.058
			c6.899,2.288,13.829,3.422,21.107,3.539c3.565,0.058,7.139-0.304,10.696-0.202c1.554,0.045,5.217-0.034,6.588,0.913
			C389.14,231.725,387.869,232.257,386.292,232.554z"/>
		<path style="fill:#231815;" d="M329.54,299.344c1.22-0.098,13.544,0.119,13.762-0.562c1.1-3.445-11.694-3.643-12.901-3.596
			c-11.848,0.467-24.973,4.236-34.114,12.024c-9.632,8.206-16.534,19.619-15.616,32.615c0.964,13.644,5.733,26.782,6.176,40.52
			c0.18,5.574,0.406,10.16-5.892,11.272c-6.837,1.207-13.894,0.035-20.758,1.126c-3.739,0.594-12.237,3.857-9.666,9.469
			c1.072,2.338,1.301,0.227,1.986-1.137c0.803-1.601,1.701-2.632,3.381-3.441c4.998-2.408,11.688-1.716,17.077-2.002
			c4.932-0.262,13.517-0.23,15.687-5.815c1.835-4.723,0.449-11.721-0.189-16.507c-0.812-6.097-2.014-12.134-3.204-18.166
			c-1.293-6.557-3.164-13.431-2.696-20.163c0.473-6.797,3.518-13.051,7.884-18.199C300.221,305.27,314.873,300.543,329.54,299.344z"
			/>
		<path style="fill:#231815;" d="M338.264,344.751c1.314-0.049,6.149-0.654,7.256,0.651c1.668,1.968-6.912,1.493-7.656,1.521
			c-3.913,0.147-7.967,0.267-11.799,1.118c-1.7,0.378-3.394,0.897-4.939,1.714c-0.932,0.493-2.853,2.686-3.768,2.668
			c-0.205,0.016,2.722-4.045,3.259-4.482c1.482-1.208,3.191-2.013,5.031-2.514C329.698,344.325,334.11,344.512,338.264,344.751z"/>
		<path style="fill:#231815;" d="M309.565,354.197c0.071-1.053,0.844-7.457,3.101-6.685c0.811,0.277-1.016,7.707-1.055,8.646
			c-0.156,3.716-0.194,7.438-0.387,11.154c-0.079,1.528,0.222,7.872-1.121,8.871c0.036-0.027-1.468-10.15-1.462-11.185
			C308.66,361.397,308.967,357.749,309.565,354.197z"/>
		<path style="fill:#231815;" d="M305.603,391.16c0.405-3.881,0.037-7.764,0.061-11.651c0.004-0.684-0.133-6.455,1.22-5.503
			c1.868,1.314,1.043,9.673,1.076,11.715c0.07,4.431-0.3,8.82-2.212,12.88c-3.585,7.613-11.689,11.832-19.311,14.413
			c-3.884,1.315-7.881,2.23-11.95,2.733c-2.503,0.31-7.811,1.427-10.148,0.069c0.11,0.086,3.387-0.516,3.622-0.544
			c2.349-0.282,4.663-0.723,6.956-1.303c4.312-1.092,8.576-2.489,12.692-4.176C296.084,406.318,304.208,400.899,305.603,391.16z"/>
		<path style="fill:#231815;" d="M403.835,349.682c0.141-1.494,3.568-8.473,5.977-5.95c0.996,1.043-1.502,2.234-2.052,2.88
			c-1.363,1.602-1.685,3.087-1.572,5.183c0.238,4.423,2.131,8.775,3.34,12.988c0.2,0.697,1.74,9.096,1.368,8.972
			c-0.975-0.324-1.971-4.114-2.485-5.151c-0.928-1.873-1.809-3.736-2.518-5.707C404.418,358.804,403.019,354.064,403.835,349.682z"
			/>
		<path style="fill:#231815;" d="M354.621,341.22c-10.905,6.53-13.491,22.477-9.205,33.537c4.852,12.523,18.225,19.355,30.82,21.593
			c6.391,1.136,13.14,0.994,19.603,1.455c6.724,0.48,13.444,1.115,20.124,2.031c5.123,0.703,33.96,4.566,23.055,14.178
			c-5.045,4.447-12.917,3.371-19.086,2.946c-3.461-0.238-7.071-0.704-10.525-0.152c-1.633,0.261-3.308,0.732-4.651,1.73
			c-0.345,0.257-2.578,2.353-1.615,2.755c0.794,0.332,2.759-1.202,3.533-1.469c1.579-0.543,3.242-0.729,4.899-0.839
			c3.109-0.207,6.214,0.092,9.314,0.316c6.358,0.458,13.768,1.231,19.154-2.925c2.31-1.782,4.53-4.521,4.063-7.614
			c-0.535-3.542-4.155-5.51-7.147-6.783c-6.158-2.622-13.151-3.758-19.765-4.505c-13.016-1.472-26.477-1.664-39.346-4.136
			c-11.011-2.116-23.661-7.851-27.8-19.038c-2.561-6.921-1.724-15.06,0.82-21.859c1.318-3.523,2.867-6.954,5.524-9.669
			c0.486-0.497,2.405-1.571,1.583-2.348C357.315,339.804,355.127,340.949,354.621,341.22z"/>
		<path style="fill:#231815;" d="M432.02,388.243c-6.474-1.344-13.047-3.042-19-5.989c-2.369-1.173-4.759-2.56-6.588-4.497
			c-0.746-0.79-4.309-5.967-1.91-6.818c-0.881,0.312,3.366,5.395,3.776,5.728c2.233,1.815,4.895,3.154,7.519,4.29
			c5.966,2.583,12.394,4.141,18.754,5.379c6.059,1.179,13.307,1.014,18.906,3.829c5.641,2.836,8.498,9.307,10.45,14.976
			c4.779,13.881-5.559,21.401-17.749,24.731c-5.74,1.568-11.658,2.398-17.547,3.186c-1.361,0.182-13.975,1.448-14.008,1.804
			c0.096-1.025,8.458-2.162,9.149-2.301c4.226-0.847,8.462-1.657,12.664-2.625c7.722-1.778,17.801-3.852,23.17-10.225
			c5.722-6.792,1.157-18.568-4.11-24.409C450.164,389.39,439.32,389.949,432.02,388.243z"/>
		<path style="fill:#231815;" d="M410.769,428.079c0.335-0.268,2.423-1.513,2.785-0.417c0.431,1.307-1.361,1.363-2.077,2.069
			c-1.259,1.241-1.458,5.459-2.618,6.059c-0.832,0.431-0.955-4.094-0.906-4.288C408.326,430.03,409.475,428.806,410.769,428.079z"/>
		<path style="fill:#231815;" d="M181.236,426.066c-0.872-0.06-9.234,0.016-9.597-1.331c-0.423-1.567,10.55-0.316,11.901-0.169
			c5.352,0.586,10.718,1.849,15.481,4.44c1.94,1.055,3.711,2.31,5.279,3.863c0.282,0.279,3.123,4.368,3.115,4.367
			c-1.315-0.237-4.279-3.71-5.642-4.529c-2.13-1.28-4.431-2.312-6.746-3.208C190.59,427.78,185.938,426.737,181.236,426.066z"/>
		<path style="fill:#231815;" d="M161.93,162.932c-0.784-0.192-8.566-1.453-7.686,0.453c0.872,1.889,8.128,2.66,9.799,3.134
			c4.187,1.189,9.819,2.394,13.096,5.461c3.634,3.401-0.204,6.154-3.472,7.758c-9.64,4.734-20.574,5.824-30.749,8.893
			c-4.611,1.391-8.981,3.432-12.7,6.527c-0.707,0.588-8.708,9.182-6.655,9.777c1.516,0.439,5.244-4.832,6.196-5.775
			c2.78-2.754,5.849-5.179,9.337-6.984c6.876-3.558,14.875-4.562,22.266-6.654c5.134-1.454,17.437-3.669,19.087-9.713
			C182.575,168.029,166.905,164.139,161.93,162.932z"/>
		<path style="fill:#231815;" d="M147.679,149.305c0.911,0.951,6.457,9.715,3.427,10.082c-1.341,0.162-2.803-4.689-3.247-5.474
			c-1.002-1.772-2.721-4.286-4.886-4.771c-4.702-1.051-6.398,7.287-7.275,10.352c-0.527,1.84-0.822,3.244-2.748,4.095
			c-0.974,0.43-6.201,0.926-6.918-0.661c0.439,0.979,6.189-1.266,6.689-2.265c1.109-2.217,0.818-5.628,1.833-8.068
			C137.055,146.582,142.928,143.598,147.679,149.305z"/>
		<path style="fill:#231815;" d="M117.805,157.324c1.502,1.902,2.792,3.947,4.344,5.812c1.019,1.224,3.23,3.118,0.253,2.901
			c-4.838-0.352-5.789-9.252-10.896-10.156c-3.455-0.611-6.138,1.955-8.416,4.173c-1.882,1.833-3.656,3.785-5.419,5.732
			c-0.858,0.948-3.069,4.448-4.304,4.75c-0.166,0.057,1.572-3.924,1.688-4.138c0.776-1.435,1.586-2.857,2.474-4.226
			c1.966-3.03,4.464-6.117,7.587-8.016C109.891,151.253,114.799,152.914,117.805,157.324z"/>
		<path style="fill:#231815;" d="M151.711,190.731c0.583-0.732,8.036-7.656,7.973-4.359c-0.026,1.358-2.761,2.728-3.638,3.512
			c-1.741,1.558-3.128,3.418-4.398,5.368c-2.249,3.454-4.24,7.084-5.804,10.901c-0.35,0.854-3.851,10.213-3.353,10.508
			c-0.888-0.528-0.527-4.653-0.488-5.572c0.109-2.572,0.576-5.038,1.481-7.45C145.293,198.819,148.262,194.516,151.711,190.731z"/>
		<path style="fill:#231815;" d="M106.411,209.883c5.081,1.945,10.625,2.519,15.843,4.006c4.569,1.302,8.877,3.305,13.358,4.858
			c10.725,3.717,21.871,6.239,33.071,8.02c9.77,1.554,20.296,3.176,30.209,2.722c10.201-0.467,18.122-11.455,26.759-15.955
			c3.687-1.921,8.149-3.2,12.044-1.092c1.458,0.789,4.256,2.922,4.31,4.811c0.078,2.737-2.836-0.871-3.725-1.561
			c-8.174-6.347-18.145,4.456-24.37,9.199c-4.374,3.333-9.216,7.02-14.936,7.205c-3.8,0.123-7.623-0.505-11.392-0.886
			c-10.467-1.057-20.954-1.561-31.36-3.218c-9.592-1.528-19.147-4.275-28.467-6.983c-5.271-1.532-10.821-2.895-15.843-5.157
			c-1.895-0.853-7.653-3.242-8.407-5.293C102.792,208.622,104.852,209.349,106.411,209.883z"/>
		<path style="fill:#231815;" d="M237.458,223c-1.058-0.098-6.595-0.13-5.426-1.828c0.82-1.19,7.068,0.27,8.279,0.57
			c2.812,0.698,5.452,2.092,7.038,4.618c0.866,1.378,1.273,2.895,1.246,4.523c-0.004,0.257-0.747,3.384-0.842,3.19
			c-0.555-1.137-0.255-2.833-0.742-4.095c-0.507-1.316-1.287-2.53-2.29-3.525C242.785,224.535,240.088,223.523,237.458,223z"/>
		<path style="fill:#231815;" d="M236.218,229.881c-0.951-0.267-5.944-0.438-5.09-1.758c1.404-2.168,7.726,0.848,8.975,1.914
			c2.064,1.762,3.053,4.443,2.803,7.129c-0.105,1.128-0.416,2.192-0.895,3.218c-0.195,0.419-2.294,2.981-2.297,2.934
			c-0.161-2.432,1.499-4.769,1.101-7.472C240.412,233.113,238.762,230.962,236.218,229.881z"/>
		<path style="fill:#231815;" d="M228.145,240.072c0.691-0.307,6.572-3.946,7.204-3.216c2.206,2.55-6.839,5.873-8.17,6.363
			c-4.163,1.533-8.737,2.256-13.169,1.811c-1.798-0.18-3.721-0.506-5.308-1.429c-0.608-0.354-3.794-3.099-2.144-3.809
			c-0.694,0.32,3.786,2.184,4.259,2.229c1.993,0.188,4.084,0.02,6.077-0.086C220.697,241.731,224.499,241.194,228.145,240.072z"/>
		<path style="fill:#231815;" d="M118.041,248.946c-0.917-0.24-14.874-5.238-12.204-7.682c0.744-0.681,6.354,2.889,7.146,3.234
			c3.19,1.393,6.595,2.251,9.991,2.966c6.909,1.456,13.899,2.529,20.897,3.444c3.022,0.395,6.044,0.785,9.069,1.157
			c1.781,0.219,6.979-0.102,8.33,1.083c-0.049-0.038-3.303,0.609-3.769,0.643c-1.949,0.144-3.905,0.23-5.858,0.286
			c-3.508,0.1-7.003,0.011-10.496-0.345C133.312,252.936,125.554,251.294,118.041,248.946z"/>
		<path style="fill:#231815;" d="M175.306,251.556c-0.81,0.218-11.98,2.182-11.225-0.495c0.375-1.33,4.44-1.024,5.349-1.104
			c2.781-0.244,5.49-0.91,8.158-1.712c5.162-1.552,10.221-3.47,15.51-4.579c2.526-0.53,5.089-0.879,7.674-0.875
			c1.097,0.002,5.909-0.242,6.75,0.968c-0.163-0.235-5.904,0.91-6.669,1.071c-2.592,0.546-5.137,1.338-7.688,2.044
			C187.241,248.512,181.369,250.488,175.306,251.556z"/>
		<path style="fill:#231815;" d="M133.526,275.329c0.108-1.361,0.927-16.938,2.352-16.159c1.839,1.006,0.702,7.999,0.635,9.568
			c-0.186,4.366-0.419,8.755-1.371,13.033c-1.783,8.015-6.73,14.383-11.502,20.867c-2.44,3.315-5.088,6.378-8.522,8.697
			c-0.486,0.328-7.306,4.254-7.556,3.569c-0.086-0.234,7.68-6.094,8.508-7.02c2.582-2.888,4.553-6.27,6.707-9.473
			C127.798,290.943,132.207,284.444,133.526,275.329z"/>
		<path style="fill:#231815;" d="M94.393,169.382c-5.083,1.865-10.382,5.419-14.937,8.374c-2.444,1.586-4.307,3.845-6.803,5.309
			c-2.34,1.372-4.104,3.255-5.997,5.254c-7.132,7.531-14.294,15.011-18.565,24.667c-4.539,10.265-9.848,20.345-12.845,31.22
			c-1.264,4.587-3.02,9.08-4.573,13.584c-0.325,0.944-0.496,2.015-0.877,2.93c-0.452,1.085-1.021,1.248-1.493,2.029
			c-0.657,1.086-1.028,2.203-1.399,3.473c1.957-0.253,0.028,4.85-0.22,5.951c-0.45,1.999-1.071,3.678-1.746,5.557
			c-0.894,2.487-1.502,5.745-1.98,8.382c-0.319,1.761,0.354,3.943-0.007,5.559c-0.119,0.533-0.578,0.614-0.754,1.178
			c-0.022-0.396-0.023-0.771-0.076-1.175c0.051,0.39,0.049,0.8,0.069,1.194c0.145-0.141,0.241-0.339,0.422-0.457
			c-3.335-2.055-1.192-11.041-0.636-14.117c0.924-5.109,2.169-10.284,3.558-15.28c0.659-2.37,1.846-3.931,3.027-5.995
			c1.561-2.727,1.498-5.812,2.351-8.777c1.339-4.653,2.412-9.393,4.015-13.97c0.78-2.228,1.848-4.282,2.864-6.403
			c1.236-2.581,2-5.571,3.632-7.927c2.744-3.961,2.224-9.065,4.989-13.225c1.464-2.203,3.448-3.938,4.857-6.21
			c1.548-2.495,3.072-5.039,4.849-7.382c3.398-4.481,7.941-7.697,11.733-11.747c2.385-2.547,5.403-4.048,8.132-6.163
			c2.123-1.646,3.979-3.668,5.985-5.453c2.025-1.802,4.201-4.154,6.993-4.041C90.992,165.801,95.957,166.349,94.393,169.382z"/>
		<path style="fill:#231815;" d="M141.522,297.909c-1.491-0.764-15.078-5.767-14.593-2.362c0.142,0.997,5.487,2.582,6.49,3.022
			c3.531,1.55,6.988,3.284,10.275,5.303c12.307,7.557,23.838,19.151,27.994,33.31c2.123,7.232,2.001,14.981-0.935,21.973
			c-3.021,7.194-8.05,13.444-11.515,20.432c-3.37,6.797-6.448,15.261-3.035,22.645c3.134,6.78,10.206,9.195,17.116,10.121
			c8.046,1.078,16.482,0.544,24.165,3.554c0.766,0.3,4.464,2.519,4.124-0.352c-0.211-1.785-4.544-1.139-1.614,0.634
			c0.091-0.24,0.376-0.336,0.505-0.52c-0.142-0.106-0.608-0.495-0.718-0.63c0.382,0.086,0.811,0.003,1.188,0.105
			c-7.437-7.672-21.021-5.073-30.553-6.574c-5.363-0.844-10.301-3.143-12.451-8.437c-2.113-5.203-0.518-11.086,1.531-16.046
			c4.017-9.72,11.582-17.912,14.413-28.097c3.137-11.29,0.077-23.093-5.724-32.973C161.943,312.386,152.482,303.533,141.522,297.909
			z"/>
		<path style="fill:#231815;" d="M183.801,419.049c-0.459-0.067-11.219-1.93-11.008-2.17c1.696-1.939,9.451,0.175,11.53,0.517
			c4.044,0.665,8.015,1.57,11.905,2.866c3.807,1.268,7.58,2.773,11.08,4.749c1.729,0.976,7.303,3.756,7.656,5.986
			c-0.163-1.03-5.857-3.318-6.968-3.821c-2.339-1.06-4.733-2.006-7.127-2.931C195.294,422.09,189.631,420.363,183.801,419.049z"/>
		<path style="fill:#231815;" d="M112.012,332.648c-0.995-0.629-12.034-6.388-12.701-2.936c-0.385,1.994,9.609,7.024,11.187,8.09
			c6.553,4.426,15.425,9.316,19.866,16.141c6.129,9.421,4.345,22.031,4.114,32.65c-0.253,11.625,0.484,23.927,7.474,33.719
			c7.219,10.112,19.067,12.479,30.528,14.716c1.627,0.318,11.212,3.217,12.575,1.479c1.846-2.353-7.798-5.066-9.008-5.385
			c-9.866-2.605-21.579-2.289-29.388-9.81c-5.772-5.559-8.231-13.462-9.16-21.215c-1.524-12.725,1.236-25.643-0.669-38.291
			C134.763,348.083,123.064,339.624,112.012,332.648z"/>
		<path style="fill:#231815;" d="M65.819,345.106c3.434-7.293,8.745-14.022,15.047-19.051c0.901-0.719,13.968-8.981,14.671-5.771
			c0.021,0.095-10.384,5.637-11.049,6.13c-6.02,4.461-11.22,10.399-14.883,16.936c-3.175,5.665-5.51,11.325-10.212,16.015
			c-4.77,4.758-10.669,8.122-16.425,11.522c-9.608,5.676-25.372,18.353-14.85,30.338c4.875,5.553,12.266,7.233,19.158,8.822
			c5.243,1.209,14.753,2.389,18.13,7.296c-0.519-0.753-3.609-1.81-4.593-2.225c-2.608-1.099-5.387-1.785-8.155-2.337
			c-5.143-1.026-10.418-1.494-15.453-3.022c-9.227-2.8-17.851-10.626-15.116-21.147c2.943-11.321,14.167-17.417,23.434-22.901
			C54.488,360.407,61.146,354.464,65.819,345.106z"/>
		<path style="fill:#231815;" d="M49.457,419.451c-0.837-0.102-7.456-0.041-7.517-1.328c-0.083-1.758,8.843-0.205,9.665-0.045
			c4.01,0.783,7.955,2.359,11.214,4.866c1.262,0.971,6.506,5.836,5.123,7.977c0.249-0.385-2.673-3.553-3.027-3.882
			c-1.391-1.292-3.077-2.351-4.698-3.315C56.878,421.74,53.263,420.257,49.457,419.451z"/>
		<path style="fill:#231815;" d="M46.128,425.819c-0.815-0.202-7.697-1.229-7.798-2.319c-0.184-1.993,9.721,1.067,10.808,1.411
			c4.186,1.324,8.185,3.318,11.805,5.802c1.554,1.066,3.024,2.228,4.395,3.52c0.096,0.09,2.714,3.035,2.605,3.046
			c-1.18,0.118-3.723-2.414-4.853-3.075c-1.778-1.04-3.583-2.037-5.379-3.046C53.99,429.068,50.176,427.194,46.128,425.819z"/>
		<path style="fill:#231815;" d="M25.639,290.137c0.816,1.784,2.19,3.188,2.753,5.087c0.77,2.598,0.468,5.657,0.668,8.343
			c0.452,6.056,1.328,12.102,1.184,18.188c-0.305,12.895-7.981,22.648-15.177,32.671c-7.575,10.551-11.967,21.336-12.355,34.441
			c-0.315,10.651,1.525,22.032,10.487,28.925c5.297,4.074,11.732,6.324,17.926,8.629c3.385,1.26,6.789,2.513,10.04,4.095
			c1.605,0.781,5.071,2.031,5.944,3.718c-0.22-0.424-5.04-1.874-5.626-2.116c-2.472-1.02-4.955-2.008-7.464-2.933
			c-5.665-2.088-11.441-3.961-16.764-6.852C6.52,416.5,1.836,406.51,0.465,394.754c-1.364-11.692,0.155-23.745,6.162-33.978
			c6.053-10.313,15.337-18.672,19.344-30.162C30.512,317.588,25.979,303.476,25.639,290.137z"/>
		<path style="fill:#231815;" d="M180.703,222.822c-5.814-1.373-11.435-3.586-16.744-6.309c-1.672-0.858-11.246-5.024-11.054-7.489
			c0.056-0.715,11.238,4.75,11.88,5.07c5.305,2.645,10.844,4.879,16.629,6.218c10.103,2.337,20.689,1.604,29.484-4.249
			c9.201-6.123,17.677-13.31,27.96-17.659c4.354-1.841,9.848-3.689,14.543-2.034c4.047,1.427,7.579,7.108,6.269,11.52
			c0.159-0.443-0.815-3.001-0.979-3.53c-0.548-1.771-1.337-3.568-2.743-4.834c-2.925-2.633-7.106-2.01-10.554-0.948
			c-6.984,2.151-13.363,6.597-19.335,10.674c-7.152,4.883-13.928,11.195-22.35,13.763
			C196.109,225.332,188.32,224.566,180.703,222.822z"/>
		<path style="fill:#231815;" d="M261.905,210.923c0.064-0.602-0.347-4.772,1.199-4.143c1.805,0.734,0.102,6.067-0.43,6.979
			c-1.271,2.179-3.612,3.545-6.096,3.84c-0.551,0.065-5.003-0.985-4.717-1.135c1.468-0.768,4.006-0.433,5.703-1.219
			C257.653,215.203,262.818,211.151,261.905,210.923z"/>
		<path style="fill:#231815;" d="M253.539,218.722c-0.443-5.2,2.772-0.96,1.24,1.334c-1.104,1.655-8.933,1.243-8.549,0.081
			C246.661,218.835,252.482,219.477,253.539,218.722z"/>
		<path style="fill:#231815;" d="M112.949,211.654c-0.07,4.059-1.655,8.019-1.375,12.102c0.273,3.988,3.499,7.326,7.733,6.039
			c1.935-0.588,3.54-2.151,4.75-3.708c0.649-0.836,1.215-1.745,1.697-2.686c0.776-1.515,0.798-1.32-0.195-2.709
			C122.861,216.915,116.592,214.476,112.949,211.654z"/>
		<path style="fill:#231815;" d="M140.353,222.864c-1.297,1.535-4.105,7.85-2.303,9.777c1.633,1.745,7.771,0.331,9.627-0.502
			c1.289-0.579,2.473-1.419,3.432-2.458c1.773-1.923,0.97-2.477-0.936-3.863C147.375,223.782,143.822,222.656,140.353,222.864z"/>
		<path style="fill:#231815;" d="M146.524,303.285c-6.964-0.736-15.725,19.598-18.682,6.146
			C124.547,294.445,133.39,295.27,146.524,303.285z"/>
		<path style="fill:#231815;" d="M155.3,313.793c-3.729,0.634-6.275,3.556-7.114,7.141c-0.378,1.614-0.804,4.356,0.413,5.255
			c1.284,0.949,4.829,0.439,6.292,0.164c2.926-0.55,9.417-3.613,8.633-7.056C162.815,316.182,158.268,313.43,155.3,313.793z"/>
		<path style="fill:#231815;" d="M74.437,332.143c-2.46-1.924-5.676-1.868-8.61-1.423c-1.678,0.254-3.328,0.687-4.977,1.081
			c-0.775,0.185-1.816,0.259-2.532,0.599c-1.322,0.629-1.173-0.002-1.116,1.688c0.174,5.158,6.952,8.201,7.747,13.411
			c3.271-2.055,5.427-5.769,7.381-8.987c0.84-1.384,2.196-3.022,2.714-4.552C75.659,332.143,74.366,331.861,74.437,332.143z"/>
		<path style="fill:#231815;" d="M58.143,361.126c-4.14-14.521-15.627-13.986-13.513,3.577
			C49.423,365.889,53.736,365.227,58.143,361.126z"/>
		<path style="fill:#231815;" d="M78.695,179.892c0.692,5.048-8.193,19.259-13.79,13.819
			C58.052,187.051,77.789,178.141,78.695,179.892z"/>
		<path style="fill:#231815;" d="M276.531,213.646c0.274,9.245-16.815,6.827-16.567,5.22c0.195-1.266,7.684-0.707,8.772-0.867
			c4.109-0.602,6.17-2.943,4.532-7.113c-3.081-7.845-11.857-14.518-18.887-18.65c-3.096-1.82-8.325-4.836-12.07-3.356
			c-1.452,0.574-2.3,1.802-2.848,3.21c-0.442,1.137-0.232,3.692-0.963,4.608c0.148-0.213-0.336-4.298-0.18-4.942
			c0.625-2.589,2.164-4.458,4.775-5.157c4.956-1.327,10.738,1.584,14.829,4.097C265.195,195.163,276.493,204.143,276.531,213.646z"
			/>
		<path style="fill:#231815;" d="M302.023,173.734c-6.235,5.742-12.508,11.456-18.989,16.921
			c-1.505,1.269-11.815,11.031-13.527,9.772c-0.52-0.383,8.384-8.346,8.904-8.799c5.649-4.927,11.301-9.839,16.851-14.878
			c11.417-10.365,22.823-20.663,33.65-31.653c10.921-11.084,22.237-21.873,31.552-34.389c4.275-5.743,8.766-11.81,11.546-18.442
			c1.343-3.204,2.354-6.576,2.938-10.002c0.255-1.493,1.366-6.209,0.601-7.547c1.951,3.414,0.047,10.164-0.814,13.597
			c-1.201,4.791-3.247,9.134-5.693,13.402c-5.5,9.596-12.103,18.48-19.625,26.585C334.497,144.379,318.499,159.29,302.023,173.734z"
			/>
		<path style="fill:#231815;" d="M290.305,167.546c-6.335,5.799-12.978,11.268-19.488,16.867
			c-1.193,1.026-11.293,10.939-12.948,9.805c-0.564-0.387,17.503-16.791,18.852-17.955c9.412-8.126,18.465-16.48,27.356-25.175
			c8.76-8.567,18.099-16.517,26.814-25.126c8.336-8.235,15.918-17.241,23.856-25.857c4.028-4.372,8.045-8.762,11.848-13.333
			c1.71-2.055,3.358-4.153,4.927-6.318c0.841-1.161,3.823-4.223,3.974-5.549c-0.43,3.768-4.895,8.561-7.009,11.466
			c-3.253,4.47-6.751,8.764-10.291,13.009c-6.866,8.232-13.737,16.576-21.094,24.376c-8.315,8.816-17.62,16.623-26.478,24.875
			C303.852,154.937,297.263,161.443,290.305,167.546z"/>
		<path style="fill:#231815;" d="M294.818,170.381c-5.906,5.491-12.072,10.708-18.065,16.105
			c-0.822,0.74-10.506,10.308-11.341,9.688c0.184,0.136,23.852-21.947,25.671-23.571c10.674-9.531,20.51-19.966,30.976-29.724
			c10.922-10.182,20.608-21.204,30.472-32.39c4.026-4.566,8.048-9.141,11.853-13.896c3.334-4.166,5.86-8.843,9.046-13.067
			c-2.488,3.456-4.305,7.537-6.871,11.036c-2.977,4.059-6.173,7.957-9.407,11.812c-6.488,7.733-12.923,15.597-19.78,23.006
			c-7.416,8.012-15.687,15.176-23.559,22.727C307.472,158.19,301.321,164.471,294.818,170.381z"/>
		<path style="fill:#231815;" d="M113.52,171.894c-1.792-0.276-5.86-1.315-5.165-3.955c0.58-2.201,3.555-1.868,5.156-1.476
			c1.414,0.346,7.5,2.322,6.939,4.669C119.924,173.337,114.973,172.334,113.52,171.894z"/>
		<path style="fill:#231815;" d="M143.41,165.044c0,0,0-6.227,2.491-6.227C148.392,158.817,147.146,166.913,143.41,165.044z"/>
		<path style="fill:#231815;" d="M165.828,179.366c-4.343-0.724-6.227-3.736-1.245-3.736
			C169.564,175.63,169.564,179.989,165.828,179.366z"/>
		<path style="fill:#231815;" d="M50.004,226.692c-0.96-4.799,7.198-5.686,5.164-11.404c-0.548-1.541-2.698-6.553-4.914-5.883
			c-2.476,0.748-2.09,6.379-4.447,7.992c-2.484,1.7-3.694,1.454-4.52,4.936c-0.444,1.871-2.557,9.004-1.015,10.748
			c1.152,1.302,4.556-1.389,6.247-1.795C49.346,230.608,50.668,230.013,50.004,226.692z"/>
		<path style="fill:#231815;" d="M48.759,241.014c0.462,2.311,4.228,5.182,3.311,7.251c-0.714,1.61-6.579,4.363-8.33,3.479
			c-2.679-1.352-1.184-7.968-0.158-9.926C44.525,240.02,48.067,237.554,48.759,241.014z"/>
		<path style="fill:#231815;" d="M65.572,226.692c-2.204,1.469-9.003,8.182-3.394,9.38c4.315,0.922,10.255-2.092,10.862-6.564
			c0.249-1.838,0.737-11.062-2.486-11.533C68.237,217.636,67.812,225.199,65.572,226.692z"/>
		<path style="fill:#231815;" d="M35.682,261.564c0.919,1.608,2.557,3.051,3.081,4.85c0.67,2.304-0.571,4.963-1.162,7.16
			c-0.518,1.926-1.423,9.836-4.31,8.78c-3.62-1.324-1.92-9.737-1.22-12.206C32.915,267.173,34.164,264.26,35.682,261.564z"/>
		<path style="fill:#231815;" d="M53.74,267.168c-0.855,1.882-2.948,10.883,1.614,10.063c1.936-0.348,3.557-4.096,4.28-5.58
			c1.031-2.116,1.708-4.313,1.051-6.654c-0.665-2.372-3.157-6.236-5.356-3.291C54.266,263.132,53.977,265.444,53.74,267.168z"/>
		<path style="fill:#231815;" d="M369.488,215.213c-0.494-0.598-1.671-2.311-0.933-3.096c1.004-1.069,2.198,1.911,2.639,2.464
			c0.616,0.771,6.256,6.19,6.465,6.04C374.999,222.536,370.414,216.84,369.488,215.213z"/>
		<path style="fill:#231815;" d="M381.481,216.468c-0.448-0.383-2.577-2.546-1.637-3.424c0.754-0.705,3.01,2.342,3.661,2.866
			c0.656,0.528,7.582,5.975,7.787,5.868C388.418,223.284,383.008,218.226,381.481,216.468z"/>
		<path style="fill:#231815;" d="M396.413,218.738c-0.613-0.45-1.866-1.73-1.118-2.6c0.783-0.91,2.088,1.169,2.582,1.556
			c1.123,0.881,5.892,2.857,5.912,4.481c0.006,0.512-3.575-0.542-3.695-0.595C398.699,220.964,397.428,219.867,396.413,218.738z"/>
		<path style="fill:#231815;" d="M372.043,190.835c3.84-1.097,9.723-1.102,11.842,3.012c-5.043,3.147-11.025-0.245-16.29-0.805
			C368.746,192.211,370.536,190.913,372.043,190.835z"/>
		<path style="fill:#231815;" d="M285.945,150.685c0.117,1.087,0.62,2.197,1.212,3.107c1.278,1.967,2.557,2.709,4.966,2.872
			c0.371,0.025,5.908-0.621,5.971-0.211c0.266,1.717-6.64,1.887-7.374,1.766c-2.733-0.451-4.248-1.931-5.403-4.289
			c-2.777-5.669,1.306-11.148,5.457-15.002c4.987-4.63,12.117-9.169,19.081-9.629c3.057-0.202,7.203,0.644,8.671,3.664
			c1.041,2.141,0.163,5.654-1.929,7.011c0.228-0.108,0.98-2.019,1.132-2.489c0.823-2.534,0.14-4.509-2.278-5.682
			c-3.929-1.905-8.818-0.082-12.476,1.597C296.868,136.204,285.829,142.825,285.945,150.685z"/>
		<path style="fill:#231815;" d="M255.852,406.679c-0.015,0.708,0.14,2.943-0.954,3.025c-1.497,0.111-0.701-3.844-0.541-4.473
			c0.46-1.803,1.603-3.3,3.356-4.06c0.727-0.315,3.767-1.071,4.216,0.008c-0.035-0.084-3.333,1.829-3.498,1.956
			C257.216,404.077,256.214,405.133,255.852,406.679z"/>
		<path style="fill:#231815;" d="M260.961,410.105c-0.13,0.802-0.052,3.969-1.54,3.146c-1.133-0.627-0.022-4.376,0.446-5.205
			c0.997-1.767,2.996-2.653,4.948-2.852c0.414-0.042,4.943,0.723,4.529,1.078c-0.859,0.737-4.011,0.735-5.172,1.191
			C262.786,408.008,261.531,408.607,260.961,410.105z"/>
		<path style="fill:#231815;" d="M403.784,427.96c-0.104,0.571-0.53,3.02-1.769,2.182c-0.91-0.616,0.377-3.64,0.772-4.275
			c0.637-1.022,6.296-4.58,6.689-1.648C409.424,423.824,404.219,427.171,403.784,427.96z"/>
		<path style="fill:#231815;" d="M351.971,217.391c1.128,0.175,5.905,1.047,5.807,2.92c-0.043,0.814-6.181-1.237-7.056-1.366
			c-3.753-0.553-7.641-0.663-11.177-2.2c-1.155-0.502-6.005-3.24-5.243-5.124c-0.533,1.318,7.011,3.576,7.761,3.763
			C345.335,216.202,348.69,216.612,351.971,217.391z"/>
		<path style="fill:#231815;" d="M299.093,148.478c0.303,1.625,5.345,3.315,2.957,4.014c-3.624,1.061-5.142-4.226-4.204-6.569
			c1.079-2.694,3.935-4.769,6.713-5.399c1.461-0.331,3.169-0.318,4.548,0.33c0.924,0.434,1.875,1.199,2.42,2.082
			c0.044,0.071,0.809,1.737,0.563,1.617c-1.469-0.711-2.099-2.048-3.927-2.299c-1.476-0.202-3.067,0.217-4.395,0.816
			c-1.33,0.6-2.618,1.492-3.515,2.657C300.128,145.889,298.915,148.516,299.093,148.478z"/>
		<path style="fill:#231815;" d="M284.086,136.126c-0.646,1.16-0.189,5.54-1.13,5.256c-3.26-0.986-0.165-6.676,1.06-7.967
			c2.13-2.243,5.388-3.614,8.477-3.637c1.638-0.012,3.342,0.321,4.686,1.318c0.409,0.304,1.955,2.923,1.835,2.87
			c-1.459-0.65-2.139-1.849-3.905-2.127c-1.472-0.232-3.112-0.006-4.533,0.346C288.113,132.795,285.633,134.056,284.086,136.126z"/>
		<path style="fill:#231815;" d="M281.138,128.723c0.611-0.181,4.71-0.402,4.42,1.312c-0.204,1.203-2.801,0.11-3.627,0.263
			c-2.295,0.424-3.977,3.02-4.792,5.01c-0.922,2.254-0.871,2.437,0.415,3.699c-0.301-0.252-1.584,0.606-2.326-0.863
			c-0.619-1.225-0.162-3.115,0.267-4.263C276.406,131.446,278.52,129.236,281.138,128.723z"/>
		<path style="fill:#231815;" d="M271.638,131.872c0.419-0.585,3.899-3.592,4.573-1.621c0.168,0.491-3.202,2.614-3.583,3.223
			c-1.1,1.758-1.691,4.461-1.081,6.449c0.21,0.683,2.475,4.12,3.401,3.562c-2.448,1.476-5.181-2.076-5.613-3.978
			C268.736,136.873,269.846,133.819,271.638,131.872z"/>
		<path style="fill:#231815;" d="M280.675,146.076c0.626,0.066,1.994,0.476,1.796,1.406c-0.252,1.186-1.326,0.334-2.01,0.289
			c-1.277-0.083-6.613-0.776-6.002-2.841C274.702,144.11,280.081,145.85,280.675,146.076z"/>
		<path style="fill:#231815;" d="M264.395,137.554c1.038,0.428,8.902,4.445,4.65,3.825c-3.361-0.49-9.916-3.495-9.724-7.557
			c0.099-2.098,1.528-4.398,3.504-5.165c1.773-0.688,3.715-0.061,5.354,0.685c0.964,0.439,4.469,1.861,4.914,2.824
			c-0.182-0.252-4.199-0.978-4.777-1.139c-1.579-0.439-3.641-1.11-5.168-0.156C259.869,132.921,261.908,136.24,264.395,137.554z"/>
		<path style="fill:#231815;" d="M414.357,337.598c-0.136-0.441-0.453-2.639,0.667-2.567c1.285,0.082,0.746,1.27,1.012,2.126
			c0.475,1.523,3.721,4.69,3.344,6.089c-0.218,0.81-3.45-1.765-3.584-1.927C414.957,340.302,414.51,338.885,414.357,337.598z"/>
		<path style="fill:#231815;" d="M409.232,340.784c-0.234-0.558-0.749-2.26,0.198-2.615c1.202-0.45,1.111,1.286,1.361,1.897
			c0.663,1.618,3.75,4.857,3.635,6.306c-0.085,1.071-3.689-1.75-3.786-1.875C409.847,343.471,409.467,342.033,409.232,340.784z"/>
		<path style="fill:#231815;" d="M276.73,147.069c0.566-0.928-4.924-2.622-2.854,1.771c1.07,2.271,5.381,3.705,7.65,3.612
			c0.913-0.037,2.327,0.104,2.428-1.111c0.187-2.243-2.103-1.157-2.839-1.14C279.265,150.242,275.286,150.351,276.73,147.069z"/>
		<path style="fill:#231815;" d="M427.561,112.242c0.396,4.655,5.725,3.135,8.301,1.361c-0.076,1.003,0.333,1.956,0.324,2.953
			c7.463-1.586,8.272,3.296,12.205,8.265c1.62-3.404,2.223-7.177,4.367-10.342c1.678-2.477,5.476-4.812,6.47-7.605
			c0.613-1.723,0.722-1.033-0.623-2.121c-0.588-0.476-1.589-0.66-2.305-0.816c-1.93-0.421-3.994-0.252-5.931,0.011
			C442.563,105.006,434.374,108.309,427.561,112.242z"/>
		<path style="fill:#231815;" d="M384.594,107.715c0.281-1.535,1.638-3.954,3.422-4.136c1.333-0.136,0.967,0.011,1.996,1.092
			c0.651,0.684,1.335,1.475,1.586,2.404c0.251-0.638,0.984-1.424,1.488-1.895c1.026-0.959,0.445-1.119,1.735-0.638
			c1.907,0.711,1.611,3.635,2.819,4.388c1.74,1.085,3.941-1.222,4.382-2.608c1.313-4.131-1.746-10.112-4.255-13.224
			C390.213,83.727,384.799,102.098,384.594,107.715z"/>
	</g>
</g>
</svg>
