<?xml version="1.0" encoding="utf-8" standalone="no"?>
<!DOCTYPE svg PUBLIC "-//W3C//DTD SVG 1.1//EN"
  "http://www.w3.org/Graphics/SVG/1.1/DTD/svg11.dtd">
<svg xmlns:xlink="http://www.w3.org/1999/xlink" width="417.648125pt" height="325.98825pt" viewBox="0 0 417.648125 325.98825" xmlns="http://www.w3.org/2000/svg" version="1.1">
 <metadata>
  <rdf:RDF xmlns:dc="http://purl.org/dc/elements/1.1/" xmlns:cc="http://creativecommons.org/ns#" xmlns:rdf="http://www.w3.org/1999/02/22-rdf-syntax-ns#">
   <cc:Work>
    <dc:type rdf:resource="http://purl.org/dc/dcmitype/StillImage"/>
    <dc:date>2023-07-20T23:10:20.954631</dc:date>
    <dc:format>image/svg+xml</dc:format>
    <dc:creator>
     <cc:Agent>
      <dc:title>Matplotlib v3.5.2, https://matplotlib.org/</dc:title>
     </cc:Agent>
    </dc:creator>
   </cc:Work>
  </rdf:RDF>
 </metadata>
 <defs>
  <style type="text/css">*{stroke-linejoin: round; stroke-linecap: butt}</style>
 </defs>
 <g id="figure_1">
  <g id="patch_1">
   <path d="M 0 325.98825 
L 417.648125 325.98825 
L 417.648125 0 
L 0 0 
z
" style="fill: #ffffff"/>
  </g>
  <g id="axes_1">
   <g id="patch_2">
    <path d="M 46.965625 288.432 
L 404.085625 288.432 
L 404.085625 22.32 
L 46.965625 22.32 
z
" style="fill: #ffffff"/>
   </g>
   <g id="matplotlib.axis_1">
    <g id="xtick_1">
     <g id="line2d_1">
      <path d="M 46.965625 288.432 
L 46.965625 22.32 
" clip-path="url(#pe79d8df8e0)" style="fill: none; stroke: #b0b0b0; stroke-width: 0.8; stroke-linecap: square"/>
     </g>
     <g id="line2d_2">
      <defs>
       <path id="mb007797ff1" d="M 0 0 
L 0 3.5 
" style="stroke: #000000; stroke-width: 0.8"/>
      </defs>
      <g>
       <use xlink:href="#mb007797ff1" x="46.965625" y="288.432" style="stroke: #000000; stroke-width: 0.8"/>
      </g>
     </g>
     <g id="text_1">
      <!-- 0 -->
      <g transform="translate(43.784375 303.030437)scale(0.1 -0.1)">
       <defs>
        <path id="DejaVuSans-30" d="M 2034 4250 
Q 1547 4250 1301 3770 
Q 1056 3291 1056 2328 
Q 1056 1369 1301 889 
Q 1547 409 2034 409 
Q 2525 409 2770 889 
Q 3016 1369 3016 2328 
Q 3016 3291 2770 3770 
Q 2525 4250 2034 4250 
z
M 2034 4750 
Q 2819 4750 3233 4129 
Q 3647 3509 3647 2328 
Q 3647 1150 3233 529 
Q 2819 -91 2034 -91 
Q 1250 -91 836 529 
Q 422 1150 422 2328 
Q 422 3509 836 4129 
Q 1250 4750 2034 4750 
z
" transform="scale(0.015625)"/>
       </defs>
       <use xlink:href="#DejaVuSans-30"/>
      </g>
     </g>
    </g>
    <g id="xtick_2">
     <g id="line2d_3">
      <path d="M 118.389625 288.432 
L 118.389625 22.32 
" clip-path="url(#pe79d8df8e0)" style="fill: none; stroke: #b0b0b0; stroke-width: 0.8; stroke-linecap: square"/>
     </g>
     <g id="line2d_4">
      <g>
       <use xlink:href="#mb007797ff1" x="118.389625" y="288.432" style="stroke: #000000; stroke-width: 0.8"/>
      </g>
     </g>
     <g id="text_2">
      <!-- 10 -->
      <g transform="translate(112.027125 303.030437)scale(0.1 -0.1)">
       <defs>
        <path id="DejaVuSans-31" d="M 794 531 
L 1825 531 
L 1825 4091 
L 703 3866 
L 703 4441 
L 1819 4666 
L 2450 4666 
L 2450 531 
L 3481 531 
L 3481 0 
L 794 0 
L 794 531 
z
" transform="scale(0.015625)"/>
       </defs>
       <use xlink:href="#DejaVuSans-31"/>
       <use xlink:href="#DejaVuSans-30" x="63.623047"/>
      </g>
     </g>
    </g>
    <g id="xtick_3">
     <g id="line2d_5">
      <path d="M 189.813625 288.432 
L 189.813625 22.32 
" clip-path="url(#pe79d8df8e0)" style="fill: none; stroke: #b0b0b0; stroke-width: 0.8; stroke-linecap: square"/>
     </g>
     <g id="line2d_6">
      <g>
       <use xlink:href="#mb007797ff1" x="189.813625" y="288.432" style="stroke: #000000; stroke-width: 0.8"/>
      </g>
     </g>
     <g id="text_3">
      <!-- 20 -->
      <g transform="translate(183.451125 303.030437)scale(0.1 -0.1)">
       <defs>
        <path id="DejaVuSans-32" d="M 1228 531 
L 3431 531 
L 3431 0 
L 469 0 
L 469 531 
Q 828 903 1448 1529 
Q 2069 2156 2228 2338 
Q 2531 2678 2651 2914 
Q 2772 3150 2772 3378 
Q 2772 3750 2511 3984 
Q 2250 4219 1831 4219 
Q 1534 4219 1204 4116 
Q 875 4013 500 3803 
L 500 4441 
Q 881 4594 1212 4672 
Q 1544 4750 1819 4750 
Q 2544 4750 2975 4387 
Q 3406 4025 3406 3419 
Q 3406 3131 3298 2873 
Q 3191 2616 2906 2266 
Q 2828 2175 2409 1742 
Q 1991 1309 1228 531 
z
" transform="scale(0.015625)"/>
       </defs>
       <use xlink:href="#DejaVuSans-32"/>
       <use xlink:href="#DejaVuSans-30" x="63.623047"/>
      </g>
     </g>
    </g>
    <g id="xtick_4">
     <g id="line2d_7">
      <path d="M 261.237625 288.432 
L 261.237625 22.32 
" clip-path="url(#pe79d8df8e0)" style="fill: none; stroke: #b0b0b0; stroke-width: 0.8; stroke-linecap: square"/>
     </g>
     <g id="line2d_8">
      <g>
       <use xlink:href="#mb007797ff1" x="261.237625" y="288.432" style="stroke: #000000; stroke-width: 0.8"/>
      </g>
     </g>
     <g id="text_4">
      <!-- 30 -->
      <g transform="translate(254.875125 303.030437)scale(0.1 -0.1)">
       <defs>
        <path id="DejaVuSans-33" d="M 2597 2516 
Q 3050 2419 3304 2112 
Q 3559 1806 3559 1356 
Q 3559 666 3084 287 
Q 2609 -91 1734 -91 
Q 1441 -91 1130 -33 
Q 819 25 488 141 
L 488 750 
Q 750 597 1062 519 
Q 1375 441 1716 441 
Q 2309 441 2620 675 
Q 2931 909 2931 1356 
Q 2931 1769 2642 2001 
Q 2353 2234 1838 2234 
L 1294 2234 
L 1294 2753 
L 1863 2753 
Q 2328 2753 2575 2939 
Q 2822 3125 2822 3475 
Q 2822 3834 2567 4026 
Q 2313 4219 1838 4219 
Q 1578 4219 1281 4162 
Q 984 4106 628 3988 
L 628 4550 
Q 988 4650 1302 4700 
Q 1616 4750 1894 4750 
Q 2613 4750 3031 4423 
Q 3450 4097 3450 3541 
Q 3450 3153 3228 2886 
Q 3006 2619 2597 2516 
z
" transform="scale(0.015625)"/>
       </defs>
       <use xlink:href="#DejaVuSans-33"/>
       <use xlink:href="#DejaVuSans-30" x="63.623047"/>
      </g>
     </g>
    </g>
    <g id="xtick_5">
     <g id="line2d_9">
      <path d="M 332.661625 288.432 
L 332.661625 22.32 
" clip-path="url(#pe79d8df8e0)" style="fill: none; stroke: #b0b0b0; stroke-width: 0.8; stroke-linecap: square"/>
     </g>
     <g id="line2d_10">
      <g>
       <use xlink:href="#mb007797ff1" x="332.661625" y="288.432" style="stroke: #000000; stroke-width: 0.8"/>
      </g>
     </g>
     <g id="text_5">
      <!-- 40 -->
      <g transform="translate(326.299125 303.030437)scale(0.1 -0.1)">
       <defs>
        <path id="DejaVuSans-34" d="M 2419 4116 
L 825 1625 
L 2419 1625 
L 2419 4116 
z
M 2253 4666 
L 3047 4666 
L 3047 1625 
L 3713 1625 
L 3713 1100 
L 3047 1100 
L 3047 0 
L 2419 0 
L 2419 1100 
L 313 1100 
L 313 1709 
L 2253 4666 
z
" transform="scale(0.015625)"/>
       </defs>
       <use xlink:href="#DejaVuSans-34"/>
       <use xlink:href="#DejaVuSans-30" x="63.623047"/>
      </g>
     </g>
    </g>
    <g id="xtick_6">
     <g id="line2d_11">
      <path d="M 404.085625 288.432 
L 404.085625 22.32 
" clip-path="url(#pe79d8df8e0)" style="fill: none; stroke: #b0b0b0; stroke-width: 0.8; stroke-linecap: square"/>
     </g>
     <g id="line2d_12">
      <g>
       <use xlink:href="#mb007797ff1" x="404.085625" y="288.432" style="stroke: #000000; stroke-width: 0.8"/>
      </g>
     </g>
     <g id="text_6">
      <!-- 50 -->
      <g transform="translate(397.723125 303.030437)scale(0.1 -0.1)">
       <defs>
        <path id="DejaVuSans-35" d="M 691 4666 
L 3169 4666 
L 3169 4134 
L 1269 4134 
L 1269 2991 
Q 1406 3038 1543 3061 
Q 1681 3084 1819 3084 
Q 2600 3084 3056 2656 
Q 3513 2228 3513 1497 
Q 3513 744 3044 326 
Q 2575 -91 1722 -91 
Q 1428 -91 1123 -41 
Q 819 9 494 109 
L 494 744 
Q 775 591 1075 516 
Q 1375 441 1709 441 
Q 2250 441 2565 725 
Q 2881 1009 2881 1497 
Q 2881 1984 2565 2268 
Q 2250 2553 1709 2553 
Q 1456 2553 1204 2497 
Q 953 2441 691 2322 
L 691 4666 
z
" transform="scale(0.015625)"/>
       </defs>
       <use xlink:href="#DejaVuSans-35"/>
       <use xlink:href="#DejaVuSans-30" x="63.623047"/>
      </g>
     </g>
    </g>
    <g id="text_7">
     <!-- d [m] -->
     <g transform="translate(211.990469 316.708562)scale(0.1 -0.1)">
      <defs>
       <path id="DejaVuSans-64" d="M 2906 2969 
L 2906 4863 
L 3481 4863 
L 3481 0 
L 2906 0 
L 2906 525 
Q 2725 213 2448 61 
Q 2172 -91 1784 -91 
Q 1150 -91 751 415 
Q 353 922 353 1747 
Q 353 2572 751 3078 
Q 1150 3584 1784 3584 
Q 2172 3584 2448 3432 
Q 2725 3281 2906 2969 
z
M 947 1747 
Q 947 1113 1208 752 
Q 1469 391 1925 391 
Q 2381 391 2643 752 
Q 2906 1113 2906 1747 
Q 2906 2381 2643 2742 
Q 2381 3103 1925 3103 
Q 1469 3103 1208 2742 
Q 947 2381 947 1747 
z
" transform="scale(0.015625)"/>
       <path id="DejaVuSans-20" transform="scale(0.015625)"/>
       <path id="DejaVuSans-5b" d="M 550 4863 
L 1875 4863 
L 1875 4416 
L 1125 4416 
L 1125 -397 
L 1875 -397 
L 1875 -844 
L 550 -844 
L 550 4863 
z
" transform="scale(0.015625)"/>
       <path id="DejaVuSans-6d" d="M 3328 2828 
Q 3544 3216 3844 3400 
Q 4144 3584 4550 3584 
Q 5097 3584 5394 3201 
Q 5691 2819 5691 2113 
L 5691 0 
L 5113 0 
L 5113 2094 
Q 5113 2597 4934 2840 
Q 4756 3084 4391 3084 
Q 3944 3084 3684 2787 
Q 3425 2491 3425 1978 
L 3425 0 
L 2847 0 
L 2847 2094 
Q 2847 2600 2669 2842 
Q 2491 3084 2119 3084 
Q 1678 3084 1418 2786 
Q 1159 2488 1159 1978 
L 1159 0 
L 581 0 
L 581 3500 
L 1159 3500 
L 1159 2956 
Q 1356 3278 1631 3431 
Q 1906 3584 2284 3584 
Q 2666 3584 2933 3390 
Q 3200 3197 3328 2828 
z
" transform="scale(0.015625)"/>
       <path id="DejaVuSans-5d" d="M 1947 4863 
L 1947 -844 
L 622 -844 
L 622 -397 
L 1369 -397 
L 1369 4416 
L 622 4416 
L 622 4863 
L 1947 4863 
z
" transform="scale(0.015625)"/>
      </defs>
      <use xlink:href="#DejaVuSans-64"/>
      <use xlink:href="#DejaVuSans-20" x="63.476562"/>
      <use xlink:href="#DejaVuSans-5b" x="95.263672"/>
      <use xlink:href="#DejaVuSans-6d" x="134.277344"/>
      <use xlink:href="#DejaVuSans-5d" x="231.689453"/>
     </g>
    </g>
   </g>
   <g id="matplotlib.axis_2">
    <g id="ytick_1">
     <g id="line2d_13">
      <path d="M 46.965625 22.32 
L 404.085625 22.32 
" clip-path="url(#pe79d8df8e0)" style="fill: none; stroke: #b0b0b0; stroke-width: 0.8; stroke-linecap: square"/>
     </g>
     <g id="line2d_14">
      <defs>
       <path id="m17afee6b41" d="M 0 0 
L -3.5 0 
" style="stroke: #000000; stroke-width: 0.8"/>
      </defs>
      <g>
       <use xlink:href="#m17afee6b41" x="46.965625" y="22.32" style="stroke: #000000; stroke-width: 0.8"/>
      </g>
     </g>
     <g id="text_8">
      <!-- 60 -->
      <g transform="translate(27.240625 26.119219)scale(0.1 -0.1)">
       <defs>
        <path id="DejaVuSans-36" d="M 2113 2584 
Q 1688 2584 1439 2293 
Q 1191 2003 1191 1497 
Q 1191 994 1439 701 
Q 1688 409 2113 409 
Q 2538 409 2786 701 
Q 3034 994 3034 1497 
Q 3034 2003 2786 2293 
Q 2538 2584 2113 2584 
z
M 3366 4563 
L 3366 3988 
Q 3128 4100 2886 4159 
Q 2644 4219 2406 4219 
Q 1781 4219 1451 3797 
Q 1122 3375 1075 2522 
Q 1259 2794 1537 2939 
Q 1816 3084 2150 3084 
Q 2853 3084 3261 2657 
Q 3669 2231 3669 1497 
Q 3669 778 3244 343 
Q 2819 -91 2113 -91 
Q 1303 -91 875 529 
Q 447 1150 447 2328 
Q 447 3434 972 4092 
Q 1497 4750 2381 4750 
Q 2619 4750 2861 4703 
Q 3103 4656 3366 4563 
z
" transform="scale(0.015625)"/>
       </defs>
       <use xlink:href="#DejaVuSans-36"/>
       <use xlink:href="#DejaVuSans-30" x="63.623047"/>
      </g>
     </g>
    </g>
    <g id="ytick_2">
     <g id="line2d_15">
      <path d="M 46.965625 55.584 
L 404.085625 55.584 
" clip-path="url(#pe79d8df8e0)" style="fill: none; stroke: #b0b0b0; stroke-width: 0.8; stroke-linecap: square"/>
     </g>
     <g id="line2d_16">
      <g>
       <use xlink:href="#m17afee6b41" x="46.965625" y="55.584" style="stroke: #000000; stroke-width: 0.8"/>
      </g>
     </g>
     <g id="text_9">
      <!-- 65 -->
      <g transform="translate(27.240625 59.383219)scale(0.1 -0.1)">
       <use xlink:href="#DejaVuSans-36"/>
       <use xlink:href="#DejaVuSans-35" x="63.623047"/>
      </g>
     </g>
    </g>
    <g id="ytick_3">
     <g id="line2d_17">
      <path d="M 46.965625 88.848 
L 404.085625 88.848 
" clip-path="url(#pe79d8df8e0)" style="fill: none; stroke: #b0b0b0; stroke-width: 0.8; stroke-linecap: square"/>
     </g>
     <g id="line2d_18">
      <g>
       <use xlink:href="#m17afee6b41" x="46.965625" y="88.848" style="stroke: #000000; stroke-width: 0.8"/>
      </g>
     </g>
     <g id="text_10">
      <!-- 70 -->
      <g transform="translate(27.240625 92.647219)scale(0.1 -0.1)">
       <defs>
        <path id="DejaVuSans-37" d="M 525 4666 
L 3525 4666 
L 3525 4397 
L 1831 0 
L 1172 0 
L 2766 4134 
L 525 4134 
L 525 4666 
z
" transform="scale(0.015625)"/>
       </defs>
       <use xlink:href="#DejaVuSans-37"/>
       <use xlink:href="#DejaVuSans-30" x="63.623047"/>
      </g>
     </g>
    </g>
    <g id="ytick_4">
     <g id="line2d_19">
      <path d="M 46.965625 122.112 
L 404.085625 122.112 
" clip-path="url(#pe79d8df8e0)" style="fill: none; stroke: #b0b0b0; stroke-width: 0.8; stroke-linecap: square"/>
     </g>
     <g id="line2d_20">
      <g>
       <use xlink:href="#m17afee6b41" x="46.965625" y="122.112" style="stroke: #000000; stroke-width: 0.8"/>
      </g>
     </g>
     <g id="text_11">
      <!-- 75 -->
      <g transform="translate(27.240625 125.911219)scale(0.1 -0.1)">
       <use xlink:href="#DejaVuSans-37"/>
       <use xlink:href="#DejaVuSans-35" x="63.623047"/>
      </g>
     </g>
    </g>
    <g id="ytick_5">
     <g id="line2d_21">
      <path d="M 46.965625 155.376 
L 404.085625 155.376 
" clip-path="url(#pe79d8df8e0)" style="fill: none; stroke: #b0b0b0; stroke-width: 0.8; stroke-linecap: square"/>
     </g>
     <g id="line2d_22">
      <g>
       <use xlink:href="#m17afee6b41" x="46.965625" y="155.376" style="stroke: #000000; stroke-width: 0.8"/>
      </g>
     </g>
     <g id="text_12">
      <!-- 80 -->
      <g transform="translate(27.240625 159.175219)scale(0.1 -0.1)">
       <defs>
        <path id="DejaVuSans-38" d="M 2034 2216 
Q 1584 2216 1326 1975 
Q 1069 1734 1069 1313 
Q 1069 891 1326 650 
Q 1584 409 2034 409 
Q 2484 409 2743 651 
Q 3003 894 3003 1313 
Q 3003 1734 2745 1975 
Q 2488 2216 2034 2216 
z
M 1403 2484 
Q 997 2584 770 2862 
Q 544 3141 544 3541 
Q 544 4100 942 4425 
Q 1341 4750 2034 4750 
Q 2731 4750 3128 4425 
Q 3525 4100 3525 3541 
Q 3525 3141 3298 2862 
Q 3072 2584 2669 2484 
Q 3125 2378 3379 2068 
Q 3634 1759 3634 1313 
Q 3634 634 3220 271 
Q 2806 -91 2034 -91 
Q 1263 -91 848 271 
Q 434 634 434 1313 
Q 434 1759 690 2068 
Q 947 2378 1403 2484 
z
M 1172 3481 
Q 1172 3119 1398 2916 
Q 1625 2713 2034 2713 
Q 2441 2713 2670 2916 
Q 2900 3119 2900 3481 
Q 2900 3844 2670 4047 
Q 2441 4250 2034 4250 
Q 1625 4250 1398 4047 
Q 1172 3844 1172 3481 
z
" transform="scale(0.015625)"/>
       </defs>
       <use xlink:href="#DejaVuSans-38"/>
       <use xlink:href="#DejaVuSans-30" x="63.623047"/>
      </g>
     </g>
    </g>
    <g id="ytick_6">
     <g id="line2d_23">
      <path d="M 46.965625 188.64 
L 404.085625 188.64 
" clip-path="url(#pe79d8df8e0)" style="fill: none; stroke: #b0b0b0; stroke-width: 0.8; stroke-linecap: square"/>
     </g>
     <g id="line2d_24">
      <g>
       <use xlink:href="#m17afee6b41" x="46.965625" y="188.64" style="stroke: #000000; stroke-width: 0.8"/>
      </g>
     </g>
     <g id="text_13">
      <!-- 85 -->
      <g transform="translate(27.240625 192.439219)scale(0.1 -0.1)">
       <use xlink:href="#DejaVuSans-38"/>
       <use xlink:href="#DejaVuSans-35" x="63.623047"/>
      </g>
     </g>
    </g>
    <g id="ytick_7">
     <g id="line2d_25">
      <path d="M 46.965625 221.904 
L 404.085625 221.904 
" clip-path="url(#pe79d8df8e0)" style="fill: none; stroke: #b0b0b0; stroke-width: 0.8; stroke-linecap: square"/>
     </g>
     <g id="line2d_26">
      <g>
       <use xlink:href="#m17afee6b41" x="46.965625" y="221.904" style="stroke: #000000; stroke-width: 0.8"/>
      </g>
     </g>
     <g id="text_14">
      <!-- 90 -->
      <g transform="translate(27.240625 225.703219)scale(0.1 -0.1)">
       <defs>
        <path id="DejaVuSans-39" d="M 703 97 
L 703 672 
Q 941 559 1184 500 
Q 1428 441 1663 441 
Q 2288 441 2617 861 
Q 2947 1281 2994 2138 
Q 2813 1869 2534 1725 
Q 2256 1581 1919 1581 
Q 1219 1581 811 2004 
Q 403 2428 403 3163 
Q 403 3881 828 4315 
Q 1253 4750 1959 4750 
Q 2769 4750 3195 4129 
Q 3622 3509 3622 2328 
Q 3622 1225 3098 567 
Q 2575 -91 1691 -91 
Q 1453 -91 1209 -44 
Q 966 3 703 97 
z
M 1959 2075 
Q 2384 2075 2632 2365 
Q 2881 2656 2881 3163 
Q 2881 3666 2632 3958 
Q 2384 4250 1959 4250 
Q 1534 4250 1286 3958 
Q 1038 3666 1038 3163 
Q 1038 2656 1286 2365 
Q 1534 2075 1959 2075 
z
" transform="scale(0.015625)"/>
       </defs>
       <use xlink:href="#DejaVuSans-39"/>
       <use xlink:href="#DejaVuSans-30" x="63.623047"/>
      </g>
     </g>
    </g>
    <g id="ytick_8">
     <g id="line2d_27">
      <path d="M 46.965625 255.168 
L 404.085625 255.168 
" clip-path="url(#pe79d8df8e0)" style="fill: none; stroke: #b0b0b0; stroke-width: 0.8; stroke-linecap: square"/>
     </g>
     <g id="line2d_28">
      <g>
       <use xlink:href="#m17afee6b41" x="46.965625" y="255.168" style="stroke: #000000; stroke-width: 0.8"/>
      </g>
     </g>
     <g id="text_15">
      <!-- 95 -->
      <g transform="translate(27.240625 258.967219)scale(0.1 -0.1)">
       <use xlink:href="#DejaVuSans-39"/>
       <use xlink:href="#DejaVuSans-35" x="63.623047"/>
      </g>
     </g>
    </g>
    <g id="ytick_9">
     <g id="line2d_29">
      <path d="M 46.965625 288.432 
L 404.085625 288.432 
" clip-path="url(#pe79d8df8e0)" style="fill: none; stroke: #b0b0b0; stroke-width: 0.8; stroke-linecap: square"/>
     </g>
     <g id="line2d_30">
      <g>
       <use xlink:href="#m17afee6b41" x="46.965625" y="288.432" style="stroke: #000000; stroke-width: 0.8"/>
      </g>
     </g>
     <g id="text_16">
      <!-- 100 -->
      <g transform="translate(20.878125 292.231219)scale(0.1 -0.1)">
       <use xlink:href="#DejaVuSans-31"/>
       <use xlink:href="#DejaVuSans-30" x="63.623047"/>
       <use xlink:href="#DejaVuSans-30" x="127.246094"/>
      </g>
     </g>
    </g>
    <g id="text_17">
     <!-- L [dB] -->
     <g transform="translate(14.798438 170.25725)rotate(-90)scale(0.1 -0.1)">
      <defs>
       <path id="DejaVuSans-4c" d="M 628 4666 
L 1259 4666 
L 1259 531 
L 3531 531 
L 3531 0 
L 628 0 
L 628 4666 
z
" transform="scale(0.015625)"/>
       <path id="DejaVuSans-42" d="M 1259 2228 
L 1259 519 
L 2272 519 
Q 2781 519 3026 730 
Q 3272 941 3272 1375 
Q 3272 1813 3026 2020 
Q 2781 2228 2272 2228 
L 1259 2228 
z
M 1259 4147 
L 1259 2741 
L 2194 2741 
Q 2656 2741 2882 2914 
Q 3109 3088 3109 3444 
Q 3109 3797 2882 3972 
Q 2656 4147 2194 4147 
L 1259 4147 
z
M 628 4666 
L 2241 4666 
Q 2963 4666 3353 4366 
Q 3744 4066 3744 3513 
Q 3744 3084 3544 2831 
Q 3344 2578 2956 2516 
Q 3422 2416 3680 2098 
Q 3938 1781 3938 1306 
Q 3938 681 3513 340 
Q 3088 0 2303 0 
L 628 0 
L 628 4666 
z
" transform="scale(0.015625)"/>
      </defs>
      <use xlink:href="#DejaVuSans-4c"/>
      <use xlink:href="#DejaVuSans-20" x="55.712891"/>
      <use xlink:href="#DejaVuSans-5b" x="87.5"/>
      <use xlink:href="#DejaVuSans-64" x="126.513672"/>
      <use xlink:href="#DejaVuSans-42" x="189.990234"/>
      <use xlink:href="#DejaVuSans-5d" x="258.59375"/>
     </g>
    </g>
   </g>
   <g id="line2d_31">
    <path d="M 62.56207 -1 
L 64.124544 7.280943 
L 66.269409 17.490168 
L 68.414274 26.622631 
L 70.559139 34.883949 
L 73.061481 43.621522 
L 75.563823 51.558404 
L 78.066166 58.829102 
L 80.925985 66.45408 
L 83.785805 73.462196 
L 87.003102 80.723222 
L 90.2204 87.422727 
L 93.437697 93.641362 
L 97.012472 100.06491 
L 100.587247 106.04509 
L 104.519499 112.179227 
L 108.451751 117.907801 
L 112.741481 123.753492 
L 117.031211 129.229728 
L 121.678418 134.796168 
L 126.325625 140.026604 
L 131.33031 145.327361 
L 136.692472 150.668572 
L 142.054634 155.699668 
L 147.774274 160.76261 
L 153.851391 165.83645 
L 160.285985 170.903504 
L 166.72058 175.690635 
L 173.512652 180.472359 
L 180.662202 185.236098 
L 188.169229 189.971327 
L 196.033733 194.669326 
L 204.255715 199.322951 
L 212.835175 203.926416 
L 221.772111 208.475111 
L 231.424003 213.13357 
L 241.433373 217.713863 
L 251.80022 222.215624 
L 262.882021 226.782568 
L 274.321301 231.257277 
L 286.475535 235.771405 
L 299.344724 240.307929 
L 312.571391 244.735523 
L 326.513012 249.169868 
L 341.169589 253.599253 
L 356.54112 258.013663 
L 372.627607 262.404608 
L 389.786526 266.855377 
L 404.085625 270.39737 
L 404.085625 270.39737 
" clip-path="url(#pe79d8df8e0)" style="fill: none; stroke: #1f77b4; stroke-width: 1.5; stroke-linecap: square"/>
   </g>
   <g id="line2d_32">
    <path d="M 75.193659 -1 
L 77.351211 4.958707 
L 80.21103 12.235491 
L 83.07085 18.911415 
L 86.288148 25.817 
L 89.505445 32.179204 
L 92.722742 38.077338 
L 96.297517 44.162889 
L 99.872292 49.822517 
L 103.804544 55.622371 
L 107.736796 61.034093 
L 112.026526 66.552119 
L 116.316256 71.717683 
L 120.963463 76.964887 
L 125.968148 82.259278 
L 130.972832 87.228364 
L 136.334994 92.234065 
L 142.054634 97.252708 
L 147.774274 101.97812 
L 153.851391 106.713705 
L 160.285985 111.442954 
L 167.078057 116.152075 
L 174.227607 120.82966 
L 181.734634 125.466381 
L 189.599139 130.054706 
L 197.82112 134.58864 
L 206.40058 139.063495 
L 215.337517 143.475694 
L 224.989409 147.985203 
L 234.998778 152.410508 
L 245.365625 156.752143 
L 256.447427 161.149176 
L 267.886706 165.450504 
L 280.04094 169.783176 
L 292.91013 174.131071 
L 306.494274 178.480333 
L 320.793373 182.819157 
L 335.807427 187.137573 
L 351.536436 191.427236 
L 367.9804 195.681227 
L 385.496796 199.979349 
L 403.728148 204.222875 
L 404.085625 204.303897 
L 404.085625 204.303897 
" clip-path="url(#pe79d8df8e0)" style="fill: none; stroke: #ff7f0e; stroke-width: 1.5; stroke-linecap: square"/>
   </g>
   <g id="line2d_33">
    <path d="M 63.456196 -1 
L 65.554454 8.691652 
L 67.699319 17.52584 
L 69.844184 25.489611 
L 72.346526 33.886738 
L 74.848868 41.49365 
L 77.351211 48.446366 
L 80.21103 55.723149 
L 83.07085 62.399074 
L 86.288148 69.304658 
L 89.505445 75.666862 
L 92.722742 81.564997 
L 96.297517 87.650548 
L 99.872292 93.310175 
L 103.804544 99.110029 
L 107.736796 104.521751 
L 112.026526 110.039777 
L 116.316256 115.205341 
L 120.963463 120.452546 
L 125.968148 125.746937 
L 130.972832 130.716023 
L 136.334994 135.721723 
L 142.054634 140.740367 
L 147.774274 145.465779 
L 153.851391 150.201363 
L 160.285985 154.930613 
L 167.078057 159.639734 
L 174.227607 164.317318 
L 181.734634 168.95404 
L 189.599139 173.542365 
L 197.82112 178.076298 
L 206.40058 182.551154 
L 215.337517 186.963353 
L 224.989409 191.472862 
L 234.998778 195.898166 
L 245.365625 200.239801 
L 256.447427 204.636834 
L 267.886706 208.938163 
L 280.04094 213.270834 
L 292.91013 217.618729 
L 306.494274 221.967991 
L 320.793373 226.306816 
L 335.807427 230.625232 
L 351.536436 234.914894 
L 367.9804 239.168886 
L 385.496796 243.467007 
L 403.728148 247.710534 
L 404.085625 247.791555 
L 404.085625 247.791555 
" clip-path="url(#pe79d8df8e0)" style="fill: none; stroke: #2ca02c; stroke-width: 1.5; stroke-linecap: square"/>
   </g>
   <g id="line2d_34">
    <path d="M 62.17419 -1 
L 63.767066 7.927602 
L 65.911931 18.688628 
L 68.056796 28.294342 
L 70.201661 36.96894 
L 72.704003 46.129801 
L 75.206346 54.440029 
L 77.708688 62.04426 
L 80.568508 70.011065 
L 83.428328 77.326762 
L 86.645625 84.900356 
L 89.862922 91.883177 
L 93.08022 98.360758 
L 96.654994 105.048005 
L 100.229769 111.270472 
L 104.162021 117.650142 
L 108.094274 123.605462 
L 112.384003 129.680163 
L 116.673733 135.3689 
L 121.32094 141.149455 
L 125.968148 146.579451 
L 130.972832 152.080939 
L 135.977517 157.263976 
L 141.339679 162.503335 
L 147.059319 167.773532 
L 152.778958 172.750785 
L 158.856075 177.752569 
L 165.29067 182.760752 
L 172.082742 187.759943 
L 179.232292 192.737196 
L 186.739319 197.68173 
L 194.603823 202.584658 
L 202.825805 207.438737 
L 211.405265 212.238145 
L 220.342202 216.978272 
L 229.636616 221.65555 
L 239.288508 226.267288 
L 249.655355 230.969649 
L 260.379679 235.587553 
L 271.818958 240.264244 
L 283.615715 244.844215 
L 296.127427 249.45872 
L 308.996616 253.969366 
L 322.58076 258.496347 
L 336.879859 263.026642 
L 351.893913 267.549039 
L 367.622922 272.053955 
L 384.066886 276.533263 
L 401.583283 281.070469 
L 404.085625 281.700278 
L 404.085625 281.700278 
" clip-path="url(#pe79d8df8e0)" style="fill: none; stroke: #d62728; stroke-width: 1.5; stroke-linecap: square"/>
   </g>
   <g id="line2d_35">
    <path d="M 72.722457 -1 
L 75.206346 6.980439 
L 77.708688 14.339372 
L 80.568508 22.049183 
L 83.428328 29.12889 
L 86.645625 36.458175 
L 89.862922 43.215743 
L 93.08022 49.48437 
L 96.654994 55.955899 
L 100.229769 61.977642 
L 104.162021 68.151516 
L 108.094274 73.914729 
L 112.384003 79.793472 
L 116.673733 85.298701 
L 121.32094 90.892786 
L 125.968148 96.147621 
L 130.972832 101.471642 
L 136.334994 106.834892 
L 141.697157 111.885538 
L 147.416796 116.967036 
L 153.493913 122.058412 
L 159.57103 126.867247 
L 166.005625 131.683943 
L 172.797697 136.493604 
L 179.947247 141.283676 
L 187.454274 146.043676 
L 195.318778 150.764945 
L 203.54076 155.440402 
L 212.12022 160.064338 
L 221.057157 164.632214 
L 230.709048 169.309297 
L 240.718418 173.906947 
L 251.085265 178.424894 
L 262.167066 183.00742 
L 273.606346 187.496616 
L 285.76058 192.024619 
L 298.629769 196.574375 
L 311.856436 201.014231 
L 325.798057 205.460243 
L 340.454634 209.900698 
L 355.826166 214.325592 
L 371.912652 218.726448 
L 389.071571 223.186762 
L 404.085625 226.909712 
L 404.085625 226.909712 
" clip-path="url(#pe79d8df8e0)" style="fill: none; stroke: #9467bd; stroke-width: 1.5; stroke-linecap: square"/>
   </g>
   <g id="patch_3">
    <path d="M 46.965625 288.432 
L 46.965625 22.32 
" style="fill: none; stroke: #000000; stroke-width: 0.8; stroke-linejoin: miter; stroke-linecap: square"/>
   </g>
   <g id="patch_4">
    <path d="M 404.085625 288.432 
L 404.085625 22.32 
" style="fill: none; stroke: #000000; stroke-width: 0.8; stroke-linejoin: miter; stroke-linecap: square"/>
   </g>
   <g id="patch_5">
    <path d="M 46.965625 288.432 
L 404.085625 288.432 
" style="fill: none; stroke: #000000; stroke-width: 0.8; stroke-linejoin: miter; stroke-linecap: square"/>
   </g>
   <g id="patch_6">
    <path d="M 46.965625 22.32 
L 404.085625 22.32 
" style="fill: none; stroke: #000000; stroke-width: 0.8; stroke-linejoin: miter; stroke-linecap: square"/>
   </g>
   <g id="text_18">
    <!-- $L_f$ = 0 [dB] -->
    <g transform="translate(204.098425 118.7856)scale(0.1 -0.1)">
     <defs>
      <path id="DejaVuSans-Oblique-4c" d="M 1075 4666 
L 1709 4666 
L 909 525 
L 3181 525 
L 3078 0 
L 172 0 
L 1075 4666 
z
" transform="scale(0.015625)"/>
      <path id="DejaVuSans-Oblique-66" d="M 3059 4863 
L 2969 4384 
L 2419 4384 
Q 2106 4384 1964 4261 
Q 1822 4138 1753 3809 
L 1691 3500 
L 2638 3500 
L 2553 3053 
L 1606 3053 
L 1013 0 
L 434 0 
L 1031 3053 
L 481 3053 
L 563 3500 
L 1113 3500 
L 1159 3744 
Q 1278 4363 1576 4613 
Q 1875 4863 2516 4863 
L 3059 4863 
z
" transform="scale(0.015625)"/>
      <path id="DejaVuSans-3d" d="M 678 2906 
L 4684 2906 
L 4684 2381 
L 678 2381 
L 678 2906 
z
M 678 1631 
L 4684 1631 
L 4684 1100 
L 678 1100 
L 678 1631 
z
" transform="scale(0.015625)"/>
     </defs>
     <use xlink:href="#DejaVuSans-Oblique-4c" transform="translate(0 0.015625)"/>
     <use xlink:href="#DejaVuSans-Oblique-66" transform="translate(55.712891 -16.390625)scale(0.7)"/>
     <use xlink:href="#DejaVuSans-20" transform="translate(83.09082 0.015625)"/>
     <use xlink:href="#DejaVuSans-3d" transform="translate(114.87793 0.015625)"/>
     <use xlink:href="#DejaVuSans-20" transform="translate(198.666992 0.015625)"/>
     <use xlink:href="#DejaVuSans-30" transform="translate(230.454102 0.015625)"/>
     <use xlink:href="#DejaVuSans-20" transform="translate(294.077148 0.015625)"/>
     <use xlink:href="#DejaVuSans-5b" transform="translate(325.864258 0.015625)"/>
     <use xlink:href="#DejaVuSans-64" transform="translate(364.87793 0.015625)"/>
     <use xlink:href="#DejaVuSans-42" transform="translate(428.354492 0.015625)"/>
     <use xlink:href="#DejaVuSans-5d" transform="translate(496.958008 0.015625)"/>
    </g>
   </g>
   <g id="text_19">
    <!-- Plot of $L = 20\log_{10}(f) + N\log_{10}(d) + L_f(n) - 28$ -->
    <g transform="translate(93.825625 16.32)scale(0.12 -0.12)">
     <defs>
      <path id="DejaVuSans-50" d="M 1259 4147 
L 1259 2394 
L 2053 2394 
Q 2494 2394 2734 2622 
Q 2975 2850 2975 3272 
Q 2975 3691 2734 3919 
Q 2494 4147 2053 4147 
L 1259 4147 
z
M 628 4666 
L 2053 4666 
Q 2838 4666 3239 4311 
Q 3641 3956 3641 3272 
Q 3641 2581 3239 2228 
Q 2838 1875 2053 1875 
L 1259 1875 
L 1259 0 
L 628 0 
L 628 4666 
z
" transform="scale(0.015625)"/>
      <path id="DejaVuSans-6c" d="M 603 4863 
L 1178 4863 
L 1178 0 
L 603 0 
L 603 4863 
z
" transform="scale(0.015625)"/>
      <path id="DejaVuSans-6f" d="M 1959 3097 
Q 1497 3097 1228 2736 
Q 959 2375 959 1747 
Q 959 1119 1226 758 
Q 1494 397 1959 397 
Q 2419 397 2687 759 
Q 2956 1122 2956 1747 
Q 2956 2369 2687 2733 
Q 2419 3097 1959 3097 
z
M 1959 3584 
Q 2709 3584 3137 3096 
Q 3566 2609 3566 1747 
Q 3566 888 3137 398 
Q 2709 -91 1959 -91 
Q 1206 -91 779 398 
Q 353 888 353 1747 
Q 353 2609 779 3096 
Q 1206 3584 1959 3584 
z
" transform="scale(0.015625)"/>
      <path id="DejaVuSans-74" d="M 1172 4494 
L 1172 3500 
L 2356 3500 
L 2356 3053 
L 1172 3053 
L 1172 1153 
Q 1172 725 1289 603 
Q 1406 481 1766 481 
L 2356 481 
L 2356 0 
L 1766 0 
Q 1100 0 847 248 
Q 594 497 594 1153 
L 594 3053 
L 172 3053 
L 172 3500 
L 594 3500 
L 594 4494 
L 1172 4494 
z
" transform="scale(0.015625)"/>
      <path id="DejaVuSans-66" d="M 2375 4863 
L 2375 4384 
L 1825 4384 
Q 1516 4384 1395 4259 
Q 1275 4134 1275 3809 
L 1275 3500 
L 2222 3500 
L 2222 3053 
L 1275 3053 
L 1275 0 
L 697 0 
L 697 3053 
L 147 3053 
L 147 3500 
L 697 3500 
L 697 3744 
Q 697 4328 969 4595 
Q 1241 4863 1831 4863 
L 2375 4863 
z
" transform="scale(0.015625)"/>
      <path id="DejaVuSans-67" d="M 2906 1791 
Q 2906 2416 2648 2759 
Q 2391 3103 1925 3103 
Q 1463 3103 1205 2759 
Q 947 2416 947 1791 
Q 947 1169 1205 825 
Q 1463 481 1925 481 
Q 2391 481 2648 825 
Q 2906 1169 2906 1791 
z
M 3481 434 
Q 3481 -459 3084 -895 
Q 2688 -1331 1869 -1331 
Q 1566 -1331 1297 -1286 
Q 1028 -1241 775 -1147 
L 775 -588 
Q 1028 -725 1275 -790 
Q 1522 -856 1778 -856 
Q 2344 -856 2625 -561 
Q 2906 -266 2906 331 
L 2906 616 
Q 2728 306 2450 153 
Q 2172 0 1784 0 
Q 1141 0 747 490 
Q 353 981 353 1791 
Q 353 2603 747 3093 
Q 1141 3584 1784 3584 
Q 2172 3584 2450 3431 
Q 2728 3278 2906 2969 
L 2906 3500 
L 3481 3500 
L 3481 434 
z
" transform="scale(0.015625)"/>
      <path id="DejaVuSans-28" d="M 1984 4856 
Q 1566 4138 1362 3434 
Q 1159 2731 1159 2009 
Q 1159 1288 1364 580 
Q 1569 -128 1984 -844 
L 1484 -844 
Q 1016 -109 783 600 
Q 550 1309 550 2009 
Q 550 2706 781 3412 
Q 1013 4119 1484 4856 
L 1984 4856 
z
" transform="scale(0.015625)"/>
      <path id="DejaVuSans-29" d="M 513 4856 
L 1013 4856 
Q 1481 4119 1714 3412 
Q 1947 2706 1947 2009 
Q 1947 1309 1714 600 
Q 1481 -109 1013 -844 
L 513 -844 
Q 928 -128 1133 580 
Q 1338 1288 1338 2009 
Q 1338 2731 1133 3434 
Q 928 4138 513 4856 
z
" transform="scale(0.015625)"/>
      <path id="DejaVuSans-2b" d="M 2944 4013 
L 2944 2272 
L 4684 2272 
L 4684 1741 
L 2944 1741 
L 2944 0 
L 2419 0 
L 2419 1741 
L 678 1741 
L 678 2272 
L 2419 2272 
L 2419 4013 
L 2944 4013 
z
" transform="scale(0.015625)"/>
      <path id="DejaVuSans-Oblique-4e" d="M 1081 4666 
L 1931 4666 
L 3219 666 
L 4000 4666 
L 4616 4666 
L 3706 0 
L 2853 0 
L 1569 4025 
L 788 0 
L 172 0 
L 1081 4666 
z
" transform="scale(0.015625)"/>
      <path id="DejaVuSans-Oblique-64" d="M 2675 525 
Q 2444 222 2128 65 
Q 1813 -91 1428 -91 
Q 903 -91 598 267 
Q 294 625 294 1247 
Q 294 1766 478 2236 
Q 663 2706 1013 3078 
Q 1244 3325 1534 3454 
Q 1825 3584 2144 3584 
Q 2481 3584 2739 3421 
Q 2997 3259 3138 2956 
L 3513 4863 
L 4091 4863 
L 3144 0 
L 2566 0 
L 2675 525 
z
M 891 1350 
Q 891 897 1095 644 
Q 1300 391 1663 391 
Q 1931 391 2161 520 
Q 2391 650 2566 903 
Q 2750 1166 2856 1509 
Q 2963 1853 2963 2188 
Q 2963 2622 2758 2865 
Q 2553 3109 2194 3109 
Q 1922 3109 1687 2981 
Q 1453 2853 1288 2613 
Q 1106 2353 998 2009 
Q 891 1666 891 1350 
z
" transform="scale(0.015625)"/>
      <path id="DejaVuSans-Oblique-6e" d="M 3566 2113 
L 3156 0 
L 2578 0 
L 2988 2091 
Q 3016 2238 3031 2350 
Q 3047 2463 3047 2528 
Q 3047 2791 2881 2937 
Q 2716 3084 2419 3084 
Q 1956 3084 1622 2776 
Q 1288 2469 1184 1941 
L 800 0 
L 225 0 
L 903 3500 
L 1478 3500 
L 1363 2950 
Q 1603 3253 1940 3418 
Q 2278 3584 2650 3584 
Q 3113 3584 3367 3334 
Q 3622 3084 3622 2631 
Q 3622 2519 3608 2391 
Q 3594 2263 3566 2113 
z
" transform="scale(0.015625)"/>
      <path id="DejaVuSans-2212" d="M 678 2272 
L 4684 2272 
L 4684 1741 
L 678 1741 
L 678 2272 
z
" transform="scale(0.015625)"/>
     </defs>
     <use xlink:href="#DejaVuSans-50" transform="translate(0 0.015625)"/>
     <use xlink:href="#DejaVuSans-6c" transform="translate(60.302734 0.015625)"/>
     <use xlink:href="#DejaVuSans-6f" transform="translate(88.085938 0.015625)"/>
     <use xlink:href="#DejaVuSans-74" transform="translate(149.267578 0.015625)"/>
     <use xlink:href="#DejaVuSans-20" transform="translate(188.476562 0.015625)"/>
     <use xlink:href="#DejaVuSans-6f" transform="translate(220.263672 0.015625)"/>
     <use xlink:href="#DejaVuSans-66" transform="translate(281.445312 0.015625)"/>
     <use xlink:href="#DejaVuSans-20" transform="translate(316.650391 0.015625)"/>
     <use xlink:href="#DejaVuSans-Oblique-4c" transform="translate(348.4375 0.015625)"/>
     <use xlink:href="#DejaVuSans-3d" transform="translate(423.632812 0.015625)"/>
     <use xlink:href="#DejaVuSans-32" transform="translate(526.904297 0.015625)"/>
     <use xlink:href="#DejaVuSans-30" transform="translate(590.527344 0.015625)"/>
     <use xlink:href="#DejaVuSans-6c" transform="translate(654.150391 0.015625)"/>
     <use xlink:href="#DejaVuSans-6f" transform="translate(681.933594 0.015625)"/>
     <use xlink:href="#DejaVuSans-67" transform="translate(743.115234 0.015625)"/>
     <use xlink:href="#DejaVuSans-31" transform="translate(807.548828 -16.390625)scale(0.7)"/>
     <use xlink:href="#DejaVuSans-30" transform="translate(852.084961 -16.390625)scale(0.7)"/>
     <use xlink:href="#DejaVuSans-28" transform="translate(899.355469 0.015625)"/>
     <use xlink:href="#DejaVuSans-Oblique-66" transform="translate(938.369141 0.015625)"/>
     <use xlink:href="#DejaVuSans-29" transform="translate(973.574219 0.015625)"/>
     <use xlink:href="#DejaVuSans-2b" transform="translate(1032.070312 0.015625)"/>
     <use xlink:href="#DejaVuSans-Oblique-4e" transform="translate(1135.341797 0.015625)"/>
     <use xlink:href="#DejaVuSans-6c" transform="translate(1210.146484 0.015625)"/>
     <use xlink:href="#DejaVuSans-6f" transform="translate(1237.929688 0.015625)"/>
     <use xlink:href="#DejaVuSans-67" transform="translate(1299.111328 0.015625)"/>
     <use xlink:href="#DejaVuSans-31" transform="translate(1363.544922 -16.390625)scale(0.7)"/>
     <use xlink:href="#DejaVuSans-30" transform="translate(1408.081055 -16.390625)scale(0.7)"/>
     <use xlink:href="#DejaVuSans-28" transform="translate(1455.351562 0.015625)"/>
     <use xlink:href="#DejaVuSans-Oblique-64" transform="translate(1494.365234 0.015625)"/>
     <use xlink:href="#DejaVuSans-29" transform="translate(1557.841797 0.015625)"/>
     <use xlink:href="#DejaVuSans-2b" transform="translate(1616.337891 0.015625)"/>
     <use xlink:href="#DejaVuSans-Oblique-4c" transform="translate(1719.609375 0.015625)"/>
     <use xlink:href="#DejaVuSans-Oblique-66" transform="translate(1775.322266 -16.390625)scale(0.7)"/>
     <use xlink:href="#DejaVuSans-28" transform="translate(1802.700195 0.015625)"/>
     <use xlink:href="#DejaVuSans-Oblique-6e" transform="translate(1841.713867 0.015625)"/>
     <use xlink:href="#DejaVuSans-29" transform="translate(1905.092773 0.015625)"/>
     <use xlink:href="#DejaVuSans-2212" transform="translate(1963.588867 0.015625)"/>
     <use xlink:href="#DejaVuSans-32" transform="translate(2066.860352 0.015625)"/>
     <use xlink:href="#DejaVuSans-38" transform="translate(2130.483398 0.015625)"/>
    </g>
   </g>
   <g id="legend_1">
    <g id="patch_7">
     <path d="M 205.085625 100.710625 
L 397.085625 100.710625 
Q 399.085625 100.710625 399.085625 98.710625 
L 399.085625 29.32 
Q 399.085625 27.32 397.085625 27.32 
L 205.085625 27.32 
Q 203.085625 27.32 203.085625 29.32 
L 203.085625 98.710625 
Q 203.085625 100.710625 205.085625 100.710625 
z
" style="fill: #ffffff; opacity: 0.8; stroke: #cccccc; stroke-linejoin: miter"/>
    </g>
    <g id="line2d_36">
     <path d="M 207.085625 35.515312 
L 217.085625 35.515312 
L 227.085625 35.515312 
" style="fill: none; stroke: #1f77b4; stroke-width: 1.5; stroke-linecap: square"/>
    </g>
    <g id="text_20">
     <!-- 集合住宅内5.2[GHz] -->
     <g transform="translate(235.085625 39.015312)scale(0.1 -0.1)">
      <defs>
       <path id="MS-Gothic-96c6" d="M 2150 4925 
Q 2075 4700 1875 4500 
L 3100 4500 
Q 3275 4900 3350 5150 
L 3850 5050 
Q 3950 4950 3775 4925 
L 3575 4500 
L 5575 4500 
L 5575 4100 
L 3500 4100 
L 3500 3775 
L 5175 3775 
L 5175 3375 
L 3500 3375 
L 3500 3050 
L 5175 3050 
L 5175 2650 
L 3500 2650 
L 3500 2275 
L 5750 2275 
L 5750 1875 
L 3500 1875 
L 3500 1500 
L 5950 1500 
L 5950 1025 
L 4000 1025 
Q 4800 450 6050 175 
L 5875 -325 
Q 4475 25 3500 925 
L 3500 -550 
L 3000 -550 
L 3000 900 
Q 2225 100 525 -400 
L 350 75 
Q 1625 400 2500 1025 
L 500 1025 
L 500 1500 
L 3000 1500 
L 3000 1875 
L 2125 1875 
L 1250 1875 
L 1250 3650 
Q 1025 3400 700 3150 
L 425 3500 
Q 1375 4275 1750 5200 
L 2225 5050 
Q 2325 4950 2150 4925 
z
M 1675 2650 
L 1675 2275 
L 3000 2275 
L 3000 2650 
L 1675 2650 
z
M 1675 3375 
L 1675 3050 
L 3000 3050 
L 3000 3375 
L 1675 3375 
z
M 1675 4100 
L 1675 3775 
L 3000 3775 
L 3000 4100 
L 1675 4100 
z
" transform="scale(0.015625)"/>
       <path id="MS-Gothic-5408" d="M 3400 4850 
Q 4375 3625 5975 3125 
L 5725 2550 
Q 4025 3175 3050 4525 
Q 2600 3600 1800 3050 
L 4575 3050 
L 4575 2575 
L 1775 2575 
L 1775 3025 
Q 1325 2650 725 2375 
L 375 2850 
Q 2200 3700 2775 5125 
L 3425 5000 
Q 3600 4975 3400 4850 
z
M 1825 -500 
L 1325 -500 
L 1325 1975 
L 5050 1975 
L 5050 -425 
L 4550 -425 
L 4550 -150 
L 1825 -150 
L 1825 -500 
z
M 1825 325 
L 4550 325 
L 4550 1500 
L 1825 1500 
L 1825 325 
z
" transform="scale(0.015625)"/>
       <path id="MS-Gothic-4f4f" d="M 3425 5175 
Q 4025 4825 4350 4325 
L 3975 3925 
L 5750 3925 
L 5750 3450 
L 4200 3450 
L 4200 2200 
L 5500 2200 
L 5500 1725 
L 4200 1725 
L 4200 225 
L 5975 225 
L 5975 -250 
L 1875 -250 
L 1875 225 
L 3700 225 
L 3700 1725 
L 2325 1725 
L 2325 2200 
L 3700 2200 
L 3700 3450 
L 2075 3450 
L 2075 3925 
L 3925 3925 
Q 3600 4400 3075 4750 
L 3425 5175 
z
M 2075 4900 
Q 2175 4800 2025 4750 
Q 1850 4125 1550 3525 
L 1700 3500 
Q 1775 3425 1650 3350 
L 1650 -525 
L 1150 -525 
L 1150 2775 
Q 900 2400 575 2050 
L 225 2425 
Q 1275 3575 1525 5100 
L 2075 4900 
z
" transform="scale(0.015625)"/>
       <path id="MS-Gothic-5b85" d="M 1150 2975 
Q 3325 3150 4550 3600 
L 4875 3100 
Q 4925 2975 4700 3050 
Q 4150 2875 3175 2725 
L 3175 1875 
L 5900 2175 
L 5925 1700 
L 3175 1400 
L 3175 400 
Q 3175 200 3350 200 
L 4950 200 
Q 5200 200 5225 425 
L 5300 875 
L 5850 725 
L 5775 300 
Q 5650 -350 5175 -350 
L 3050 -350 
Q 2600 -350 2600 75 
L 2600 1350 
L 575 1175 
L 550 1650 
L 2600 1825 
L 2600 2625 
Q 2075 2575 1275 2500 
L 1150 2975 
z
M 1250 3975 
L 1250 3150 
L 675 3150 
L 675 4450 
L 2875 4450 
L 2875 5200 
L 3425 5200 
Q 3625 5175 3450 5050 
L 3450 4450 
L 5775 4450 
L 5775 3225 
L 5200 3225 
L 5200 3975 
L 1250 3975 
z
" transform="scale(0.015625)"/>
       <path id="MS-Gothic-5185" d="M 4650 950 
Q 3850 1825 3200 2400 
Q 2875 1375 1800 675 
L 1450 1175 
Q 2850 2000 2850 3650 
L 1300 3650 
L 1300 -375 
L 725 -375 
L 725 4125 
L 2875 4125 
L 2875 5000 
L 3425 5000 
Q 3675 4950 3450 4800 
L 3450 4125 
L 5700 4125 
L 5700 175 
Q 5700 -325 5225 -325 
L 4625 -325 
L 4525 225 
L 5025 225 
Q 5125 225 5125 325 
L 5125 3650 
L 3425 3650 
Q 3425 3275 3350 2900 
Q 4325 2250 5025 1500 
L 4650 950 
z
" transform="scale(0.015625)"/>
       <path id="MS-Gothic-35" d="M 850 1425 
Q 850 925 1100 675 
Q 1250 525 1525 525 
Q 1750 525 1950 725 
Q 2250 1025 2250 1725 
Q 2250 2375 2000 2625 
Q 1850 2775 1650 2775 
Q 1200 2775 925 2250 
L 425 2250 
L 575 4925 
L 2725 4925 
L 2725 4450 
L 1050 4450 
L 950 2825 
Q 1275 3200 1775 3200 
Q 2150 3200 2425 2925 
Q 2825 2525 2825 1725 
Q 2825 875 2350 400 
Q 2000 50 1500 50 
Q 975 50 675 350 
Q 300 725 275 1425 
L 850 1425 
z
" transform="scale(0.015625)"/>
       <path id="MS-Gothic-2e" d="M 1100 600 
L 1100 50 
L 525 50 
L 525 600 
L 1100 600 
z
" transform="scale(0.015625)"/>
       <path id="MS-Gothic-32" d="M 2850 525 
L 2850 50 
L 300 50 
L 300 450 
Q 875 1525 1725 2500 
Q 2200 3050 2200 3650 
Q 2200 4075 1975 4300 
Q 1825 4450 1575 4450 
Q 1375 4450 1175 4250 
Q 950 4025 950 3325 
L 400 3325 
Q 425 4225 825 4625 
Q 1125 4925 1625 4925 
Q 2100 4925 2425 4600 
Q 2775 4250 2775 3625 
Q 2775 2900 2100 2125 
Q 1375 1300 900 525 
L 2850 525 
z
" transform="scale(0.015625)"/>
       <path id="MS-Gothic-5b" d="M 1275 5125 
L 2850 5125 
L 2850 4725 
L 1700 4725 
L 1700 -150 
L 2850 -150 
L 2850 -550 
L 1275 -550 
L 1275 5125 
z
" transform="scale(0.015625)"/>
       <path id="MS-Gothic-47" d="M 2350 3400 
Q 2325 4050 2100 4275 
Q 1925 4450 1700 4450 
Q 1500 4450 1375 4325 
Q 825 3775 825 2375 
Q 825 1150 1225 750 
Q 1425 550 1625 550 
Q 1875 550 2075 750 
Q 2375 1050 2375 1750 
L 2375 2225 
L 1600 2225 
L 1600 2700 
L 2875 2700 
L 2875 50 
L 2450 50 
L 2375 500 
Q 2025 50 1550 50 
Q 1125 50 825 350 
Q 250 925 250 2375 
Q 250 3925 875 4550 
Q 1250 4925 1700 4925 
Q 2175 4925 2450 4650 
Q 2875 4225 2875 3400 
L 2350 3400 
z
" transform="scale(0.015625)"/>
       <path id="MS-Gothic-48" d="M 300 50 
L 300 4925 
L 875 4925 
L 875 2975 
L 2300 2975 
L 2300 4925 
L 2875 4925 
L 2875 50 
L 2300 50 
L 2300 1275 
L 2300 2500 
L 875 2500 
L 875 50 
L 300 50 
z
" transform="scale(0.015625)"/>
       <path id="MS-Gothic-7a" d="M 2075 3075 
L 475 3075 
L 475 3475 
L 2625 3475 
L 2625 3075 
L 875 450 
L 2750 450 
L 2750 50 
L 325 50 
L 325 450 
L 2075 3075 
z
" transform="scale(0.015625)"/>
       <path id="MS-Gothic-5d" d="M 325 4725 
L 325 5125 
L 1900 5125 
L 1900 -550 
L 325 -550 
L 325 -150 
L 1475 -150 
L 1475 4725 
L 325 4725 
z
" transform="scale(0.015625)"/>
      </defs>
      <use xlink:href="#MS-Gothic-96c6"/>
      <use xlink:href="#MS-Gothic-5408" x="100"/>
      <use xlink:href="#MS-Gothic-4f4f" x="200"/>
      <use xlink:href="#MS-Gothic-5b85" x="300"/>
      <use xlink:href="#MS-Gothic-5185" x="400"/>
      <use xlink:href="#MS-Gothic-35" x="500"/>
      <use xlink:href="#MS-Gothic-2e" x="550"/>
      <use xlink:href="#MS-Gothic-32" x="600"/>
      <use xlink:href="#MS-Gothic-5b" x="650"/>
      <use xlink:href="#MS-Gothic-47" x="700"/>
      <use xlink:href="#MS-Gothic-48" x="750"/>
      <use xlink:href="#MS-Gothic-7a" x="800"/>
      <use xlink:href="#MS-Gothic-5d" x="850"/>
     </g>
    </g>
    <g id="line2d_37">
     <path d="M 207.085625 49.85125 
L 217.085625 49.85125 
L 227.085625 49.85125 
" style="fill: none; stroke: #ff7f0e; stroke-width: 1.5; stroke-linecap: square"/>
    </g>
    <g id="text_21">
     <!-- 集合住宅内/戸建て住宅内2.45[GHz] -->
     <g transform="translate(235.085625 53.35125)scale(0.1 -0.1)">
      <defs>
       <path id="MS-Gothic-2f" d="M 125 -550 
L 2775 5275 
L 3025 5125 
L 375 -700 
L 125 -550 
z
" transform="scale(0.015625)"/>
       <path id="MS-Gothic-6238" d="M 4750 1450 
L 4750 1750 
L 1775 1750 
L 1775 1525 
Q 1775 325 975 -575 
L 500 -125 
Q 1200 625 1200 1700 
L 1200 3650 
L 5325 3650 
L 5325 1450 
L 4750 1450 
z
M 650 4850 
L 5725 4850 
L 5725 4300 
L 650 4300 
L 650 4850 
z
M 1775 3175 
L 1775 2225 
L 4750 2225 
L 4750 3175 
L 1775 3175 
z
" transform="scale(0.015625)"/>
       <path id="MS-Gothic-5efa" d="M 6100 125 
L 5950 -350 
L 3200 -350 
Q 2200 -350 1575 250 
Q 1100 -350 625 -625 
L 300 -125 
Q 825 150 1250 650 
Q 775 1450 625 1975 
L 1050 2075 
Q 1175 1675 1500 1125 
Q 1725 1750 1725 2350 
L 1725 2575 
L 1200 2575 
L 975 2250 
L 500 2450 
Q 1050 3375 1500 4300 
L 475 4300 
L 475 4775 
L 1600 4775 
L 1700 4900 
L 2200 4525 
Q 2250 4475 2100 4425 
L 1425 3050 
L 2225 3050 
L 2225 2675 
Q 2225 1450 1825 650 
Q 2325 125 3400 125 
L 6100 125 
z
M 3750 3750 
L 3750 4175 
L 2575 4175 
L 2575 4575 
L 3750 4575 
L 3750 5200 
L 4150 5200 
Q 4350 5175 4175 5050 
L 4175 4575 
L 5475 4575 
L 5475 3750 
L 5975 3750 
L 5975 3350 
L 5475 3350 
L 5475 2500 
L 4175 2500 
L 4175 2150 
L 5550 2150 
L 5550 1750 
L 4175 1750 
L 4175 1275 
L 5850 1275 
L 5850 875 
L 4175 875 
L 4175 325 
L 3750 325 
L 3750 875 
L 2275 875 
L 2275 1275 
L 3750 1275 
L 3750 1750 
L 2600 1750 
L 2600 2150 
L 3750 2150 
L 3750 2500 
L 2575 2500 
L 2575 2900 
L 3750 2900 
L 3750 3350 
L 2125 3350 
L 2125 3750 
L 3750 3750 
z
M 5050 3350 
L 4175 3350 
L 4175 2900 
L 5050 2900 
L 5050 3350 
z
M 5050 4175 
L 4175 4175 
L 4175 3750 
L 5050 3750 
L 5050 4175 
z
" transform="scale(0.015625)"/>
       <path id="MS-Gothic-3066" d="M 5650 3925 
Q 4775 3925 4275 3750 
Q 3725 3550 3250 3075 
Q 2775 2600 2775 1850 
Q 2775 1250 3150 875 
Q 3650 375 5075 325 
L 4875 -225 
Q 3400 -150 2825 425 
Q 2250 1000 2250 1825 
Q 2250 3000 3175 3675 
Q 2000 3500 775 3325 
L 625 3900 
Q 3075 4075 5550 4500 
L 5650 3925 
z
" transform="scale(0.015625)"/>
       <path id="MS-Gothic-34" d="M 1875 50 
L 1875 625 
L 1875 1200 
L 200 1200 
L 200 1675 
L 1875 4925 
L 2450 4925 
L 2450 1675 
L 2975 1675 
L 2975 1200 
L 2450 1200 
L 2450 50 
L 1875 50 
z
M 1875 1675 
L 1875 3875 
L 750 1675 
L 1875 1675 
z
" transform="scale(0.015625)"/>
      </defs>
      <use xlink:href="#MS-Gothic-96c6"/>
      <use xlink:href="#MS-Gothic-5408" x="100"/>
      <use xlink:href="#MS-Gothic-4f4f" x="200"/>
      <use xlink:href="#MS-Gothic-5b85" x="300"/>
      <use xlink:href="#MS-Gothic-5185" x="400"/>
      <use xlink:href="#MS-Gothic-2f" x="500"/>
      <use xlink:href="#MS-Gothic-6238" x="550"/>
      <use xlink:href="#MS-Gothic-5efa" x="650"/>
      <use xlink:href="#MS-Gothic-3066" x="750"/>
      <use xlink:href="#MS-Gothic-4f4f" x="850"/>
      <use xlink:href="#MS-Gothic-5b85" x="950"/>
      <use xlink:href="#MS-Gothic-5185" x="1050"/>
      <use xlink:href="#MS-Gothic-32" x="1150"/>
      <use xlink:href="#MS-Gothic-2e" x="1200"/>
      <use xlink:href="#MS-Gothic-34" x="1250"/>
      <use xlink:href="#MS-Gothic-35" x="1300"/>
      <use xlink:href="#MS-Gothic-5b" x="1350"/>
      <use xlink:href="#MS-Gothic-47" x="1400"/>
      <use xlink:href="#MS-Gothic-48" x="1450"/>
      <use xlink:href="#MS-Gothic-7a" x="1500"/>
      <use xlink:href="#MS-Gothic-5d" x="1550"/>
     </g>
    </g>
    <g id="line2d_38">
     <path d="M 207.085625 63.952812 
L 217.085625 63.952812 
L 227.085625 63.952812 
" style="fill: none; stroke: #2ca02c; stroke-width: 1.5; stroke-linecap: square"/>
    </g>
    <g id="text_22">
     <!-- 戸建て住宅内5.2[GHz] -->
     <g transform="translate(235.085625 67.452812)scale(0.1 -0.1)">
      <use xlink:href="#MS-Gothic-6238"/>
      <use xlink:href="#MS-Gothic-5efa" x="100"/>
      <use xlink:href="#MS-Gothic-3066" x="200"/>
      <use xlink:href="#MS-Gothic-4f4f" x="300"/>
      <use xlink:href="#MS-Gothic-5b85" x="400"/>
      <use xlink:href="#MS-Gothic-5185" x="500"/>
      <use xlink:href="#MS-Gothic-35" x="600"/>
      <use xlink:href="#MS-Gothic-2e" x="650"/>
      <use xlink:href="#MS-Gothic-32" x="700"/>
      <use xlink:href="#MS-Gothic-5b" x="750"/>
      <use xlink:href="#MS-Gothic-47" x="800"/>
      <use xlink:href="#MS-Gothic-48" x="850"/>
      <use xlink:href="#MS-Gothic-7a" x="900"/>
      <use xlink:href="#MS-Gothic-5d" x="950"/>
     </g>
    </g>
    <g id="line2d_39">
     <path d="M 207.085625 77.937187 
L 217.085625 77.937187 
L 227.085625 77.937187 
" style="fill: none; stroke: #d62728; stroke-width: 1.5; stroke-linecap: square"/>
    </g>
    <g id="text_23">
     <!-- オフィス内5.2[GHz] -->
     <g transform="translate(235.085625 81.437187)scale(0.1 -0.1)">
      <defs>
       <path id="MS-Gothic-30aa" d="M 375 650 
Q 1975 1675 2875 3100 
L 525 3100 
L 525 3650 
L 3175 3650 
L 3175 5025 
L 3700 5025 
Q 3925 4975 3750 4825 
L 3750 3650 
L 5850 3650 
L 5850 3100 
L 3750 3100 
L 3750 175 
Q 3750 -425 3175 -425 
L 2475 -425 
L 2375 125 
L 2875 125 
Q 3175 175 3175 450 
L 3175 2550 
Q 2225 1150 875 200 
L 375 650 
z
" transform="scale(0.015625)"/>
       <path id="MS-Gothic-30d5" d="M 1550 400 
Q 4675 1125 4825 3725 
L 1075 3725 
L 1075 4275 
L 4875 4275 
L 5225 4350 
L 5500 4100 
Q 5400 775 2000 -150 
L 1550 400 
z
" transform="scale(0.015625)"/>
       <path id="MS-Gothic-30a3" d="M 3600 -500 
L 3100 -500 
L 3100 1825 
Q 2550 1400 1450 850 
L 1100 1275 
Q 3475 2425 4350 3800 
L 4775 3475 
Q 4925 3350 4675 3300 
Q 4250 2775 3600 2225 
L 3600 -500 
z
" transform="scale(0.015625)"/>
       <path id="MS-Gothic-30b9" d="M 3600 2275 
Q 4675 1450 5725 375 
L 5225 -50 
Q 4175 1050 3200 1800 
Q 2225 750 975 -75 
L 500 350 
Q 3150 2075 3900 3800 
L 1175 3625 
L 1100 4225 
L 4000 4350 
L 4300 4425 
L 4700 4025 
Q 4875 3850 4600 3800 
Q 4125 2975 3600 2275 
z
" transform="scale(0.015625)"/>
      </defs>
      <use xlink:href="#MS-Gothic-30aa"/>
      <use xlink:href="#MS-Gothic-30d5" x="100"/>
      <use xlink:href="#MS-Gothic-30a3" x="200"/>
      <use xlink:href="#MS-Gothic-30b9" x="300"/>
      <use xlink:href="#MS-Gothic-5185" x="400"/>
      <use xlink:href="#MS-Gothic-35" x="500"/>
      <use xlink:href="#MS-Gothic-2e" x="550"/>
      <use xlink:href="#MS-Gothic-32" x="600"/>
      <use xlink:href="#MS-Gothic-5b" x="650"/>
      <use xlink:href="#MS-Gothic-47" x="700"/>
      <use xlink:href="#MS-Gothic-48" x="750"/>
      <use xlink:href="#MS-Gothic-7a" x="800"/>
      <use xlink:href="#MS-Gothic-5d" x="850"/>
     </g>
    </g>
    <g id="line2d_40">
     <path d="M 207.085625 91.921562 
L 217.085625 91.921562 
L 227.085625 91.921562 
" style="fill: none; stroke: #9467bd; stroke-width: 1.5; stroke-linecap: square"/>
    </g>
    <g id="text_24">
     <!-- オフィス内2.45[GHz] -->
     <g transform="translate(235.085625 95.421562)scale(0.1 -0.1)">
      <use xlink:href="#MS-Gothic-30aa"/>
      <use xlink:href="#MS-Gothic-30d5" x="100"/>
      <use xlink:href="#MS-Gothic-30a3" x="200"/>
      <use xlink:href="#MS-Gothic-30b9" x="300"/>
      <use xlink:href="#MS-Gothic-5185" x="400"/>
      <use xlink:href="#MS-Gothic-32" x="500"/>
      <use xlink:href="#MS-Gothic-2e" x="550"/>
      <use xlink:href="#MS-Gothic-34" x="600"/>
      <use xlink:href="#MS-Gothic-35" x="650"/>
      <use xlink:href="#MS-Gothic-5b" x="700"/>
      <use xlink:href="#MS-Gothic-47" x="750"/>
      <use xlink:href="#MS-Gothic-48" x="800"/>
      <use xlink:href="#MS-Gothic-7a" x="850"/>
      <use xlink:href="#MS-Gothic-5d" x="900"/>
     </g>
    </g>
   </g>
  </g>
 </g>
 <defs>
  <clipPath id="pe79d8df8e0">
   <rect x="46.965625" y="22.32" width="357.12" height="266.112"/>
  </clipPath>
 </defs>
</svg>
