<?xml version="1.0" encoding="utf-8" standalone="no"?>
<!DOCTYPE svg PUBLIC "-//W3C//DTD SVG 1.1//EN"
  "http://www.w3.org/Graphics/SVG/1.1/DTD/svg11.dtd">
<svg xmlns:xlink="http://www.w3.org/1999/xlink" width="415.437187pt" height="325.690125pt" viewBox="0 0 415.437187 325.690125" xmlns="http://www.w3.org/2000/svg" version="1.1">
 <metadata>
  <rdf:RDF xmlns:dc="http://purl.org/dc/elements/1.1/" xmlns:cc="http://creativecommons.org/ns#" xmlns:rdf="http://www.w3.org/1999/02/22-rdf-syntax-ns#">
   <cc:Work>
    <dc:type rdf:resource="http://purl.org/dc/dcmitype/StillImage"/>
    <dc:date>2023-08-08T16:08:08.733943</dc:date>
    <dc:format>image/svg+xml</dc:format>
    <dc:creator>
     <cc:Agent>
      <dc:title>Matplotlib v3.5.2, https://matplotlib.org/</dc:title>
     </cc:Agent>
    </dc:creator>
   </cc:Work>
  </rdf:RDF>
 </metadata>
 <defs>
  <style type="text/css">*{stroke-linejoin: round; stroke-linecap: butt}</style>
 </defs>
 <g id="figure_1">
  <g id="patch_1">
   <path d="M 0 325.690125 
L 415.437187 325.690125 
L 415.437187 0 
L 0 0 
z
" style="fill: #ffffff"/>
  </g>
  <g id="axes_1">
   <g id="patch_2">
    <path d="M 43.165625 288.827625 
L 400.285625 288.827625 
L 400.285625 22.715625 
L 43.165625 22.715625 
z
" style="fill: #ffffff"/>
   </g>
   <g id="matplotlib.axis_1">
    <g id="xtick_1">
     <g id="line2d_1">
      <path d="M 43.165625 288.827625 
L 43.165625 22.715625 
" clip-path="url(#pa4edc3e951)" style="fill: none; stroke: #b0b0b0; stroke-width: 0.8; stroke-linecap: square"/>
     </g>
     <g id="line2d_2">
      <defs>
       <path id="m0748f6e0e1" d="M 0 0 
L 0 3.5 
" style="stroke: #000000; stroke-width: 0.8"/>
      </defs>
      <g>
       <use xlink:href="#m0748f6e0e1" x="43.165625" y="288.827625" style="stroke: #000000; stroke-width: 0.8"/>
      </g>
     </g>
     <g id="text_1">
      <!-- 0.0 -->
      <g transform="translate(35.214063 303.426062)scale(0.1 -0.1)">
       <defs>
        <path id="DejaVuSans-30" d="M 2034 4250 
Q 1547 4250 1301 3770 
Q 1056 3291 1056 2328 
Q 1056 1369 1301 889 
Q 1547 409 2034 409 
Q 2525 409 2770 889 
Q 3016 1369 3016 2328 
Q 3016 3291 2770 3770 
Q 2525 4250 2034 4250 
z
M 2034 4750 
Q 2819 4750 3233 4129 
Q 3647 3509 3647 2328 
Q 3647 1150 3233 529 
Q 2819 -91 2034 -91 
Q 1250 -91 836 529 
Q 422 1150 422 2328 
Q 422 3509 836 4129 
Q 1250 4750 2034 4750 
z
" transform="scale(0.015625)"/>
        <path id="DejaVuSans-2e" d="M 684 794 
L 1344 794 
L 1344 0 
L 684 0 
L 684 794 
z
" transform="scale(0.015625)"/>
       </defs>
       <use xlink:href="#DejaVuSans-30"/>
       <use xlink:href="#DejaVuSans-2e" x="63.623047"/>
       <use xlink:href="#DejaVuSans-30" x="95.410156"/>
      </g>
     </g>
    </g>
    <g id="xtick_2">
     <g id="line2d_3">
      <path d="M 102.685625 288.827625 
L 102.685625 22.715625 
" clip-path="url(#pa4edc3e951)" style="fill: none; stroke: #b0b0b0; stroke-width: 0.8; stroke-linecap: square"/>
     </g>
     <g id="line2d_4">
      <g>
       <use xlink:href="#m0748f6e0e1" x="102.685625" y="288.827625" style="stroke: #000000; stroke-width: 0.8"/>
      </g>
     </g>
     <g id="text_2">
      <!-- 0.5 -->
      <g transform="translate(94.734063 303.426062)scale(0.1 -0.1)">
       <defs>
        <path id="DejaVuSans-35" d="M 691 4666 
L 3169 4666 
L 3169 4134 
L 1269 4134 
L 1269 2991 
Q 1406 3038 1543 3061 
Q 1681 3084 1819 3084 
Q 2600 3084 3056 2656 
Q 3513 2228 3513 1497 
Q 3513 744 3044 326 
Q 2575 -91 1722 -91 
Q 1428 -91 1123 -41 
Q 819 9 494 109 
L 494 744 
Q 775 591 1075 516 
Q 1375 441 1709 441 
Q 2250 441 2565 725 
Q 2881 1009 2881 1497 
Q 2881 1984 2565 2268 
Q 2250 2553 1709 2553 
Q 1456 2553 1204 2497 
Q 953 2441 691 2322 
L 691 4666 
z
" transform="scale(0.015625)"/>
       </defs>
       <use xlink:href="#DejaVuSans-30"/>
       <use xlink:href="#DejaVuSans-2e" x="63.623047"/>
       <use xlink:href="#DejaVuSans-35" x="95.410156"/>
      </g>
     </g>
    </g>
    <g id="xtick_3">
     <g id="line2d_5">
      <path d="M 162.205625 288.827625 
L 162.205625 22.715625 
" clip-path="url(#pa4edc3e951)" style="fill: none; stroke: #b0b0b0; stroke-width: 0.8; stroke-linecap: square"/>
     </g>
     <g id="line2d_6">
      <g>
       <use xlink:href="#m0748f6e0e1" x="162.205625" y="288.827625" style="stroke: #000000; stroke-width: 0.8"/>
      </g>
     </g>
     <g id="text_3">
      <!-- 1.0 -->
      <g transform="translate(154.254063 303.426062)scale(0.1 -0.1)">
       <defs>
        <path id="DejaVuSans-31" d="M 794 531 
L 1825 531 
L 1825 4091 
L 703 3866 
L 703 4441 
L 1819 4666 
L 2450 4666 
L 2450 531 
L 3481 531 
L 3481 0 
L 794 0 
L 794 531 
z
" transform="scale(0.015625)"/>
       </defs>
       <use xlink:href="#DejaVuSans-31"/>
       <use xlink:href="#DejaVuSans-2e" x="63.623047"/>
       <use xlink:href="#DejaVuSans-30" x="95.410156"/>
      </g>
     </g>
    </g>
    <g id="xtick_4">
     <g id="line2d_7">
      <path d="M 221.725625 288.827625 
L 221.725625 22.715625 
" clip-path="url(#pa4edc3e951)" style="fill: none; stroke: #b0b0b0; stroke-width: 0.8; stroke-linecap: square"/>
     </g>
     <g id="line2d_8">
      <g>
       <use xlink:href="#m0748f6e0e1" x="221.725625" y="288.827625" style="stroke: #000000; stroke-width: 0.8"/>
      </g>
     </g>
     <g id="text_4">
      <!-- 1.5 -->
      <g transform="translate(213.774063 303.426062)scale(0.1 -0.1)">
       <use xlink:href="#DejaVuSans-31"/>
       <use xlink:href="#DejaVuSans-2e" x="63.623047"/>
       <use xlink:href="#DejaVuSans-35" x="95.410156"/>
      </g>
     </g>
    </g>
    <g id="xtick_5">
     <g id="line2d_9">
      <path d="M 281.245625 288.827625 
L 281.245625 22.715625 
" clip-path="url(#pa4edc3e951)" style="fill: none; stroke: #b0b0b0; stroke-width: 0.8; stroke-linecap: square"/>
     </g>
     <g id="line2d_10">
      <g>
       <use xlink:href="#m0748f6e0e1" x="281.245625" y="288.827625" style="stroke: #000000; stroke-width: 0.8"/>
      </g>
     </g>
     <g id="text_5">
      <!-- 2.0 -->
      <g transform="translate(273.294062 303.426062)scale(0.1 -0.1)">
       <defs>
        <path id="DejaVuSans-32" d="M 1228 531 
L 3431 531 
L 3431 0 
L 469 0 
L 469 531 
Q 828 903 1448 1529 
Q 2069 2156 2228 2338 
Q 2531 2678 2651 2914 
Q 2772 3150 2772 3378 
Q 2772 3750 2511 3984 
Q 2250 4219 1831 4219 
Q 1534 4219 1204 4116 
Q 875 4013 500 3803 
L 500 4441 
Q 881 4594 1212 4672 
Q 1544 4750 1819 4750 
Q 2544 4750 2975 4387 
Q 3406 4025 3406 3419 
Q 3406 3131 3298 2873 
Q 3191 2616 2906 2266 
Q 2828 2175 2409 1742 
Q 1991 1309 1228 531 
z
" transform="scale(0.015625)"/>
       </defs>
       <use xlink:href="#DejaVuSans-32"/>
       <use xlink:href="#DejaVuSans-2e" x="63.623047"/>
       <use xlink:href="#DejaVuSans-30" x="95.410156"/>
      </g>
     </g>
    </g>
    <g id="xtick_6">
     <g id="line2d_11">
      <path d="M 340.765625 288.827625 
L 340.765625 22.715625 
" clip-path="url(#pa4edc3e951)" style="fill: none; stroke: #b0b0b0; stroke-width: 0.8; stroke-linecap: square"/>
     </g>
     <g id="line2d_12">
      <g>
       <use xlink:href="#m0748f6e0e1" x="340.765625" y="288.827625" style="stroke: #000000; stroke-width: 0.8"/>
      </g>
     </g>
     <g id="text_6">
      <!-- 2.5 -->
      <g transform="translate(332.814062 303.426062)scale(0.1 -0.1)">
       <use xlink:href="#DejaVuSans-32"/>
       <use xlink:href="#DejaVuSans-2e" x="63.623047"/>
       <use xlink:href="#DejaVuSans-35" x="95.410156"/>
      </g>
     </g>
    </g>
    <g id="xtick_7">
     <g id="line2d_13">
      <path d="M 400.285625 288.827625 
L 400.285625 22.715625 
" clip-path="url(#pa4edc3e951)" style="fill: none; stroke: #b0b0b0; stroke-width: 0.8; stroke-linecap: square"/>
     </g>
     <g id="line2d_14">
      <g>
       <use xlink:href="#m0748f6e0e1" x="400.285625" y="288.827625" style="stroke: #000000; stroke-width: 0.8"/>
      </g>
     </g>
     <g id="text_7">
      <!-- 3.0 -->
      <g transform="translate(392.334062 303.426062)scale(0.1 -0.1)">
       <defs>
        <path id="DejaVuSans-33" d="M 2597 2516 
Q 3050 2419 3304 2112 
Q 3559 1806 3559 1356 
Q 3559 666 3084 287 
Q 2609 -91 1734 -91 
Q 1441 -91 1130 -33 
Q 819 25 488 141 
L 488 750 
Q 750 597 1062 519 
Q 1375 441 1716 441 
Q 2309 441 2620 675 
Q 2931 909 2931 1356 
Q 2931 1769 2642 2001 
Q 2353 2234 1838 2234 
L 1294 2234 
L 1294 2753 
L 1863 2753 
Q 2328 2753 2575 2939 
Q 2822 3125 2822 3475 
Q 2822 3834 2567 4026 
Q 2313 4219 1838 4219 
Q 1578 4219 1281 4162 
Q 984 4106 628 3988 
L 628 4550 
Q 988 4650 1302 4700 
Q 1616 4750 1894 4750 
Q 2613 4750 3031 4423 
Q 3450 4097 3450 3541 
Q 3450 3153 3228 2886 
Q 3006 2619 2597 2516 
z
" transform="scale(0.015625)"/>
       </defs>
       <use xlink:href="#DejaVuSans-33"/>
       <use xlink:href="#DejaVuSans-2e" x="63.623047"/>
       <use xlink:href="#DejaVuSans-30" x="95.410156"/>
      </g>
     </g>
    </g>
    <g id="text_8">
     <!-- 相対遅延時間 -->
     <g transform="translate(191.725625 317.201062)scale(0.1 -0.1)">
      <defs>
       <path id="MS-Gothic-76f8" d="M 2925 3525 
L 1950 3525 
L 1950 2800 
Q 2575 2450 2975 1950 
L 2700 1500 
Q 2325 1975 1950 2225 
L 1950 -525 
L 1450 -525 
L 1450 2250 
Q 1125 1500 600 1025 
L 275 1450 
Q 1200 2425 1450 3525 
L 425 3525 
L 425 4000 
L 1450 4000 
L 1450 5125 
L 1925 5125 
Q 2125 5100 1950 4975 
L 1950 4000 
L 2925 4000 
L 2925 3525 
z
M 3150 4675 
L 5750 4675 
L 5750 -400 
L 5250 -400 
L 5250 -175 
L 3650 -175 
L 3650 -550 
L 3150 -550 
L 3150 4675 
z
M 3650 4200 
L 3650 3250 
L 5250 3250 
L 5250 4200 
L 3650 4200 
z
M 3650 2775 
L 3650 1800 
L 5250 1800 
L 5250 2775 
L 3650 2775 
z
M 3650 300 
L 5250 300 
L 5250 1325 
L 3650 1325 
L 3650 300 
z
" transform="scale(0.015625)"/>
       <path id="MS-Gothic-5bfe" d="M 2475 1675 
Q 2825 1375 3300 700 
L 2900 300 
Q 2475 925 2200 1150 
Q 1650 275 800 -425 
L 450 75 
Q 1225 600 1800 1575 
Q 1375 2025 700 2525 
L 1000 2900 
Q 1625 2475 2075 2050 
Q 2375 2575 2575 3300 
L 3075 3050 
Q 3250 2950 3025 2900 
Q 2775 2250 2475 1675 
z
M 3925 1075 
Q 3725 1625 3250 2250 
L 3650 2525 
Q 4225 1900 4400 1325 
L 3925 1075 
z
M 4800 5025 
L 5275 5025 
Q 5475 5000 5300 4875 
L 5300 3600 
L 6000 3600 
L 6000 3125 
L 5300 3125 
L 5300 -75 
Q 5300 -475 4900 -475 
L 4150 -475 
L 4050 0 
L 4700 0 
Q 4800 0 4800 100 
L 4800 3125 
L 3300 3125 
L 3300 3500 
L 475 3500 
L 475 3975 
L 1750 3975 
L 1750 5050 
L 2225 5050 
Q 2425 5025 2250 4900 
L 2250 3975 
L 3400 3975 
L 3400 3600 
L 4800 3600 
L 4800 5025 
z
" transform="scale(0.015625)"/>
       <path id="MS-Gothic-9045" d="M 2625 3725 
L 2625 2400 
Q 2625 1150 2125 475 
L 1725 800 
Q 2125 1425 2125 2275 
L 2125 4975 
L 5700 4975 
L 5700 3725 
L 2625 3725 
z
M 3525 2975 
Q 3450 3175 3300 3425 
L 3725 3600 
Q 3975 3200 4050 2975 
L 4375 2975 
L 4725 3675 
L 5200 3525 
Q 5300 3425 5125 3400 
L 4875 2975 
L 5750 2975 
L 5750 2575 
L 4475 2575 
L 4475 2175 
L 5575 2175 
L 5575 1775 
L 4475 1775 
L 4475 1350 
L 5925 1350 
L 5925 950 
L 4475 950 
L 4475 225 
L 4050 225 
L 4050 950 
L 2650 950 
L 2650 1350 
L 4050 1350 
L 4050 1775 
L 3025 1775 
L 3025 2175 
L 4050 2175 
L 4050 2575 
L 2800 2575 
L 2800 2975 
L 3525 2975 
z
M 6125 50 
L 5975 -425 
L 3075 -425 
Q 2100 -425 1425 250 
L 675 -500 
L 400 150 
L 1100 600 
L 1100 2150 
L 375 2150 
L 375 2625 
L 1600 2625 
L 1600 675 
Q 2075 50 3425 50 
L 6125 50 
z
M 2625 4575 
L 2625 4125 
L 5200 4125 
L 5200 4575 
L 2625 4575 
z
M 1000 4925 
Q 1550 4625 1825 4250 
L 1400 3825 
Q 1075 4175 625 4500 
L 1000 4925 
z
" transform="scale(0.015625)"/>
       <path id="MS-Gothic-5ef6" d="M 5725 4550 
Q 5825 4425 5550 4475 
Q 5050 4375 4650 4325 
L 4650 3175 
L 5775 3175 
L 5775 2700 
L 4650 2700 
L 4650 1275 
L 5925 1275 
L 5925 800 
L 2450 800 
L 2450 1275 
L 3050 1275 
L 3050 3525 
L 3525 3525 
Q 3725 3500 3550 3375 
L 3550 1275 
L 4150 1275 
L 4150 4275 
Q 3375 4200 2725 4225 
L 2600 4700 
Q 4075 4675 5400 5075 
L 5725 4550 
z
M 475 0 
Q 1100 350 1350 650 
Q 1025 1200 775 1900 
L 1250 2050 
Q 1450 1475 1625 1100 
Q 1825 1900 1900 2675 
L 1275 2675 
Q 1150 2500 1000 2300 
L 550 2600 
Q 1300 3650 1725 4450 
L 450 4450 
L 450 4925 
L 1900 4925 
L 2025 5050 
L 2475 4700 
L 2375 4625 
Q 1950 3875 1525 3150 
L 2400 3150 
Q 2325 1575 1975 625 
Q 2500 225 3400 225 
L 6100 225 
L 6000 -325 
L 3425 -325 
Q 2350 -325 1675 250 
Q 1350 -150 750 -475 
L 475 0 
z
" transform="scale(0.015625)"/>
       <path id="MS-Gothic-6642" d="M 3575 300 
Q 3275 825 3075 1050 
L 3500 1350 
Q 3700 1125 4025 625 
L 3575 300 
z
M 4550 -50 
Q 4650 -50 4650 50 
L 4650 1525 
L 2550 1525 
L 2550 2000 
L 4650 2000 
L 4650 2650 
L 2275 2650 
L 2275 275 
L 1850 275 
L 1850 475 
L 1000 475 
L 1000 25 
L 575 25 
L 575 4625 
L 2275 4625 
L 2275 3125 
L 3800 3125 
L 3800 3850 
L 2725 3850 
L 2725 4325 
L 3800 4325 
L 3800 5175 
L 4275 5175 
Q 4475 5150 4300 5025 
L 4300 4325 
L 5575 4325 
L 5575 3850 
L 4300 3850 
L 4300 3125 
L 6050 3125 
L 6050 2650 
L 5150 2650 
L 5150 2000 
L 5900 2000 
L 5900 1525 
L 5150 1525 
L 5150 -125 
Q 5150 -525 4750 -525 
L 4225 -525 
L 4125 -50 
L 4550 -50 
z
M 1000 2875 
L 1850 2875 
L 1850 4150 
L 1000 4150 
L 1000 2875 
z
M 1000 950 
L 1850 950 
L 1850 2400 
L 1000 2400 
L 1000 950 
z
" transform="scale(0.015625)"/>
       <path id="MS-Gothic-9593" d="M 5175 -25 
Q 5275 -25 5275 75 
L 5275 2950 
L 4375 2950 
L 3475 2950 
L 3475 4950 
L 5775 4950 
L 5775 -100 
Q 5775 -500 5375 -500 
L 4875 -500 
L 4825 -25 
L 5175 -25 
z
M 3850 1175 
L 2525 1175 
L 2525 675 
L 3850 675 
L 3850 1175 
z
M 3850 2125 
L 2525 2125 
L 2525 1575 
L 3850 1575 
L 3850 2125 
z
M 4350 2525 
L 4350 75 
L 3850 75 
L 3850 275 
L 2525 275 
L 2525 -125 
L 2025 -125 
L 2025 2525 
L 4350 2525 
z
M 5275 4150 
L 5275 4550 
L 3975 4550 
L 3975 4150 
L 5275 4150 
z
M 5275 3750 
L 3975 3750 
L 3975 3350 
L 5275 3350 
L 5275 3750 
z
M 2325 3750 
L 1050 3750 
L 1050 3350 
L 2325 3350 
L 2325 3750 
z
M 2325 4150 
L 2325 4550 
L 1050 4550 
L 1050 4150 
L 2325 4150 
z
M 2825 2950 
L 1050 2950 
L 1050 -525 
L 550 -525 
L 550 4950 
L 2825 4950 
L 2825 2950 
z
" transform="scale(0.015625)"/>
      </defs>
      <use xlink:href="#MS-Gothic-76f8"/>
      <use xlink:href="#MS-Gothic-5bfe" x="100"/>
      <use xlink:href="#MS-Gothic-9045" x="200"/>
      <use xlink:href="#MS-Gothic-5ef6" x="300"/>
      <use xlink:href="#MS-Gothic-6642" x="400"/>
      <use xlink:href="#MS-Gothic-9593" x="500"/>
     </g>
    </g>
    <g id="text_9">
     <!-- 1e−7 -->
     <g transform="translate(373.027812 316.104187)scale(0.1 -0.1)">
      <defs>
       <path id="DejaVuSans-65" d="M 3597 1894 
L 3597 1613 
L 953 1613 
Q 991 1019 1311 708 
Q 1631 397 2203 397 
Q 2534 397 2845 478 
Q 3156 559 3463 722 
L 3463 178 
Q 3153 47 2828 -22 
Q 2503 -91 2169 -91 
Q 1331 -91 842 396 
Q 353 884 353 1716 
Q 353 2575 817 3079 
Q 1281 3584 2069 3584 
Q 2775 3584 3186 3129 
Q 3597 2675 3597 1894 
z
M 3022 2063 
Q 3016 2534 2758 2815 
Q 2500 3097 2075 3097 
Q 1594 3097 1305 2825 
Q 1016 2553 972 2059 
L 3022 2063 
z
" transform="scale(0.015625)"/>
       <path id="DejaVuSans-2212" d="M 678 2272 
L 4684 2272 
L 4684 1741 
L 678 1741 
L 678 2272 
z
" transform="scale(0.015625)"/>
       <path id="DejaVuSans-37" d="M 525 4666 
L 3525 4666 
L 3525 4397 
L 1831 0 
L 1172 0 
L 2766 4134 
L 525 4134 
L 525 4666 
z
" transform="scale(0.015625)"/>
      </defs>
      <use xlink:href="#DejaVuSans-31"/>
      <use xlink:href="#DejaVuSans-65" x="63.623047"/>
      <use xlink:href="#DejaVuSans-2212" x="125.146484"/>
      <use xlink:href="#DejaVuSans-37" x="208.935547"/>
     </g>
    </g>
   </g>
   <g id="matplotlib.axis_2">
    <g id="ytick_1">
     <g id="line2d_15">
      <path d="M 43.165625 276.731625 
L 400.285625 276.731625 
" clip-path="url(#pa4edc3e951)" style="fill: none; stroke: #b0b0b0; stroke-width: 0.8; stroke-linecap: square"/>
     </g>
     <g id="line2d_16">
      <defs>
       <path id="mc3411d76e8" d="M 0 0 
L -3.5 0 
" style="stroke: #000000; stroke-width: 0.8"/>
      </defs>
      <g>
       <use xlink:href="#mc3411d76e8" x="43.165625" y="276.731625" style="stroke: #000000; stroke-width: 0.8"/>
      </g>
     </g>
     <g id="text_10">
      <!-- 0.0 -->
      <g transform="translate(20.2625 280.530844)scale(0.1 -0.1)">
       <use xlink:href="#DejaVuSans-30"/>
       <use xlink:href="#DejaVuSans-2e" x="63.623047"/>
       <use xlink:href="#DejaVuSans-30" x="95.410156"/>
      </g>
     </g>
    </g>
    <g id="ytick_2">
     <g id="line2d_17">
      <path d="M 43.165625 237.275221 
L 400.285625 237.275221 
" clip-path="url(#pa4edc3e951)" style="fill: none; stroke: #b0b0b0; stroke-width: 0.8; stroke-linecap: square"/>
     </g>
     <g id="line2d_18">
      <g>
       <use xlink:href="#mc3411d76e8" x="43.165625" y="237.275221" style="stroke: #000000; stroke-width: 0.8"/>
      </g>
     </g>
     <g id="text_11">
      <!-- 0.2 -->
      <g transform="translate(20.2625 241.074439)scale(0.1 -0.1)">
       <use xlink:href="#DejaVuSans-30"/>
       <use xlink:href="#DejaVuSans-2e" x="63.623047"/>
       <use xlink:href="#DejaVuSans-32" x="95.410156"/>
      </g>
     </g>
    </g>
    <g id="ytick_3">
     <g id="line2d_19">
      <path d="M 43.165625 197.818816 
L 400.285625 197.818816 
" clip-path="url(#pa4edc3e951)" style="fill: none; stroke: #b0b0b0; stroke-width: 0.8; stroke-linecap: square"/>
     </g>
     <g id="line2d_20">
      <g>
       <use xlink:href="#mc3411d76e8" x="43.165625" y="197.818816" style="stroke: #000000; stroke-width: 0.8"/>
      </g>
     </g>
     <g id="text_12">
      <!-- 0.4 -->
      <g transform="translate(20.2625 201.618035)scale(0.1 -0.1)">
       <defs>
        <path id="DejaVuSans-34" d="M 2419 4116 
L 825 1625 
L 2419 1625 
L 2419 4116 
z
M 2253 4666 
L 3047 4666 
L 3047 1625 
L 3713 1625 
L 3713 1100 
L 3047 1100 
L 3047 0 
L 2419 0 
L 2419 1100 
L 313 1100 
L 313 1709 
L 2253 4666 
z
" transform="scale(0.015625)"/>
       </defs>
       <use xlink:href="#DejaVuSans-30"/>
       <use xlink:href="#DejaVuSans-2e" x="63.623047"/>
       <use xlink:href="#DejaVuSans-34" x="95.410156"/>
      </g>
     </g>
    </g>
    <g id="ytick_4">
     <g id="line2d_21">
      <path d="M 43.165625 158.362412 
L 400.285625 158.362412 
" clip-path="url(#pa4edc3e951)" style="fill: none; stroke: #b0b0b0; stroke-width: 0.8; stroke-linecap: square"/>
     </g>
     <g id="line2d_22">
      <g>
       <use xlink:href="#mc3411d76e8" x="43.165625" y="158.362412" style="stroke: #000000; stroke-width: 0.8"/>
      </g>
     </g>
     <g id="text_13">
      <!-- 0.6 -->
      <g transform="translate(20.2625 162.161631)scale(0.1 -0.1)">
       <defs>
        <path id="DejaVuSans-36" d="M 2113 2584 
Q 1688 2584 1439 2293 
Q 1191 2003 1191 1497 
Q 1191 994 1439 701 
Q 1688 409 2113 409 
Q 2538 409 2786 701 
Q 3034 994 3034 1497 
Q 3034 2003 2786 2293 
Q 2538 2584 2113 2584 
z
M 3366 4563 
L 3366 3988 
Q 3128 4100 2886 4159 
Q 2644 4219 2406 4219 
Q 1781 4219 1451 3797 
Q 1122 3375 1075 2522 
Q 1259 2794 1537 2939 
Q 1816 3084 2150 3084 
Q 2853 3084 3261 2657 
Q 3669 2231 3669 1497 
Q 3669 778 3244 343 
Q 2819 -91 2113 -91 
Q 1303 -91 875 529 
Q 447 1150 447 2328 
Q 447 3434 972 4092 
Q 1497 4750 2381 4750 
Q 2619 4750 2861 4703 
Q 3103 4656 3366 4563 
z
" transform="scale(0.015625)"/>
       </defs>
       <use xlink:href="#DejaVuSans-30"/>
       <use xlink:href="#DejaVuSans-2e" x="63.623047"/>
       <use xlink:href="#DejaVuSans-36" x="95.410156"/>
      </g>
     </g>
    </g>
    <g id="ytick_5">
     <g id="line2d_23">
      <path d="M 43.165625 118.906007 
L 400.285625 118.906007 
" clip-path="url(#pa4edc3e951)" style="fill: none; stroke: #b0b0b0; stroke-width: 0.8; stroke-linecap: square"/>
     </g>
     <g id="line2d_24">
      <g>
       <use xlink:href="#mc3411d76e8" x="43.165625" y="118.906007" style="stroke: #000000; stroke-width: 0.8"/>
      </g>
     </g>
     <g id="text_14">
      <!-- 0.8 -->
      <g transform="translate(20.2625 122.705226)scale(0.1 -0.1)">
       <defs>
        <path id="DejaVuSans-38" d="M 2034 2216 
Q 1584 2216 1326 1975 
Q 1069 1734 1069 1313 
Q 1069 891 1326 650 
Q 1584 409 2034 409 
Q 2484 409 2743 651 
Q 3003 894 3003 1313 
Q 3003 1734 2745 1975 
Q 2488 2216 2034 2216 
z
M 1403 2484 
Q 997 2584 770 2862 
Q 544 3141 544 3541 
Q 544 4100 942 4425 
Q 1341 4750 2034 4750 
Q 2731 4750 3128 4425 
Q 3525 4100 3525 3541 
Q 3525 3141 3298 2862 
Q 3072 2584 2669 2484 
Q 3125 2378 3379 2068 
Q 3634 1759 3634 1313 
Q 3634 634 3220 271 
Q 2806 -91 2034 -91 
Q 1263 -91 848 271 
Q 434 634 434 1313 
Q 434 1759 690 2068 
Q 947 2378 1403 2484 
z
M 1172 3481 
Q 1172 3119 1398 2916 
Q 1625 2713 2034 2713 
Q 2441 2713 2670 2916 
Q 2900 3119 2900 3481 
Q 2900 3844 2670 4047 
Q 2441 4250 2034 4250 
Q 1625 4250 1398 4047 
Q 1172 3844 1172 3481 
z
" transform="scale(0.015625)"/>
       </defs>
       <use xlink:href="#DejaVuSans-30"/>
       <use xlink:href="#DejaVuSans-2e" x="63.623047"/>
       <use xlink:href="#DejaVuSans-38" x="95.410156"/>
      </g>
     </g>
    </g>
    <g id="ytick_6">
     <g id="line2d_25">
      <path d="M 43.165625 79.449603 
L 400.285625 79.449603 
" clip-path="url(#pa4edc3e951)" style="fill: none; stroke: #b0b0b0; stroke-width: 0.8; stroke-linecap: square"/>
     </g>
     <g id="line2d_26">
      <g>
       <use xlink:href="#mc3411d76e8" x="43.165625" y="79.449603" style="stroke: #000000; stroke-width: 0.8"/>
      </g>
     </g>
     <g id="text_15">
      <!-- 1.0 -->
      <g transform="translate(20.2625 83.248822)scale(0.1 -0.1)">
       <use xlink:href="#DejaVuSans-31"/>
       <use xlink:href="#DejaVuSans-2e" x="63.623047"/>
       <use xlink:href="#DejaVuSans-30" x="95.410156"/>
      </g>
     </g>
    </g>
    <g id="ytick_7">
     <g id="line2d_27">
      <path d="M 43.165625 39.993199 
L 400.285625 39.993199 
" clip-path="url(#pa4edc3e951)" style="fill: none; stroke: #b0b0b0; stroke-width: 0.8; stroke-linecap: square"/>
     </g>
     <g id="line2d_28">
      <g>
       <use xlink:href="#mc3411d76e8" x="43.165625" y="39.993199" style="stroke: #000000; stroke-width: 0.8"/>
      </g>
     </g>
     <g id="text_16">
      <!-- 1.2 -->
      <g transform="translate(20.2625 43.792417)scale(0.1 -0.1)">
       <use xlink:href="#DejaVuSans-31"/>
       <use xlink:href="#DejaVuSans-2e" x="63.623047"/>
       <use xlink:href="#DejaVuSans-32" x="95.410156"/>
      </g>
     </g>
    </g>
    <g id="text_17">
     <!-- 分布率例 -->
     <g transform="translate(14.973438 175.771625)rotate(-90)scale(0.1 -0.1)">
      <defs>
       <path id="MS-Gothic-5206" d="M 4900 2650 
L 4800 625 
Q 4750 -425 4075 -425 
L 3325 -425 
L 3250 125 
L 3875 125 
Q 4200 125 4225 550 
L 4325 2175 
L 2950 2175 
L 2925 1975 
Q 2750 600 950 -550 
L 575 -75 
Q 2200 850 2375 1875 
L 2425 2175 
L 1475 2175 
L 1475 2650 
L 4900 2650 
z
M 2650 4625 
Q 2050 3325 725 2250 
L 325 2725 
Q 1625 3625 2225 5050 
L 2700 4750 
Q 2850 4650 2650 4625 
z
M 5750 2250 
Q 4375 3050 3725 4875 
L 4200 5075 
Q 4800 3475 6125 2775 
L 5750 2250 
z
" transform="scale(0.015625)"/>
       <path id="MS-Gothic-5e03" d="M 2425 4275 
Q 2600 4725 2750 5250 
L 3300 5100 
Q 3400 5000 3225 4975 
Q 3075 4600 2950 4275 
L 6075 4275 
L 6075 3800 
L 2750 3800 
Q 2350 3025 2125 2775 
L 3250 2775 
L 3250 3575 
L 3725 3575 
Q 3925 3550 3750 3425 
L 3750 2775 
L 5425 2775 
L 5425 350 
Q 5425 -50 5025 -50 
L 4550 -50 
L 4475 425 
L 4825 425 
Q 4925 425 4925 525 
L 4925 2300 
L 3750 2300 
L 3750 -550 
L 3250 -550 
L 3250 2300 
L 2125 2300 
L 2125 -25 
L 1625 -25 
L 1625 2125 
Q 1175 1650 675 1325 
L 325 1800 
Q 1500 2525 2200 3800 
L 550 3800 
L 550 4275 
L 2425 4275 
z
" transform="scale(0.015625)"/>
       <path id="MS-Gothic-7387" d="M 5375 3500 
Q 5100 3150 4675 2825 
L 4300 3175 
Q 4775 3550 5000 3900 
L 5475 3600 
Q 5550 3500 5375 3500 
z
M 4900 2700 
Q 5475 2425 5950 2025 
L 5575 1575 
Q 5100 2000 4575 2350 
L 4900 2700 
z
M 1950 2325 
Q 1550 1900 1050 1500 
Q 1025 1325 925 1425 
L 575 1850 
Q 1175 2225 1625 2675 
L 1950 2325 
z
M 2000 2150 
L 2350 2150 
L 2800 2600 
Q 2550 2875 2050 3225 
L 2325 3550 
L 2500 3425 
L 2975 4075 
L 3325 3800 
Q 3425 3675 3250 3700 
L 2825 3200 
L 3125 2925 
L 3800 3675 
L 4125 3375 
Q 4225 3250 4025 3275 
L 2900 2150 
L 3875 2275 
L 3625 2600 
L 4000 2825 
Q 4325 2475 4625 1875 
L 4200 1625 
L 4075 1900 
L 3450 1825 
L 3450 1200 
L 6050 1200 
L 6050 725 
L 3450 725 
L 3450 -525 
L 2950 -525 
L 2950 725 
L 375 725 
L 375 1200 
L 2950 1200 
L 2950 1750 
L 2200 1700 
Q 2175 1525 2075 1625 
L 2000 2150 
z
M 5750 4125 
L 675 4125 
L 675 4600 
L 2950 4600 
L 2950 5175 
L 3425 5175 
Q 3675 5125 3450 4975 
L 3450 4600 
L 5750 4600 
L 5750 4125 
z
M 1100 3825 
Q 1550 3600 1900 3275 
L 1550 2850 
Q 1225 3175 775 3450 
L 1100 3825 
z
" transform="scale(0.015625)"/>
       <path id="MS-Gothic-4f8b" d="M 175 2500 
Q 1075 3400 1400 5175 
L 1925 5025 
Q 2025 4925 1850 4900 
Q 1550 3850 1450 3575 
L 1550 3550 
Q 1625 3475 1500 3400 
L 1500 -500 
L 1000 -500 
L 1000 2675 
Q 725 2275 450 2025 
L 175 2500 
z
M 1600 1450 
Q 2375 2250 2525 4225 
L 2000 4225 
L 2000 4700 
L 4225 4700 
L 4225 4225 
L 3000 4225 
L 2900 3425 
L 3950 3425 
L 3950 2825 
Q 3950 675 2225 -475 
L 1925 -25 
Q 2800 525 3200 1500 
Q 2825 1825 2525 1950 
Q 2300 1475 1950 1025 
L 1600 1450 
z
M 2675 2400 
Q 3050 2275 3350 2025 
Q 3475 2475 3475 2950 
L 2825 2950 
Q 2800 2725 2675 2400 
z
M 5200 50 
Q 5300 50 5300 150 
L 5300 4925 
L 5775 4925 
Q 5975 4900 5800 4775 
L 5800 -75 
Q 5800 -425 5475 -425 
L 4800 -425 
L 4750 50 
L 5200 50 
z
M 4825 925 
L 4325 925 
L 4325 4250 
L 4800 4250 
Q 5000 4225 4825 4100 
L 4825 925 
z
" transform="scale(0.015625)"/>
      </defs>
      <use xlink:href="#MS-Gothic-5206"/>
      <use xlink:href="#MS-Gothic-5e03" x="100"/>
      <use xlink:href="#MS-Gothic-7387" x="200"/>
      <use xlink:href="#MS-Gothic-4f8b" x="300"/>
     </g>
    </g>
    <g id="text_18">
     <!-- 1e7 -->
     <g transform="translate(43.165625 19.715625)scale(0.1 -0.1)">
      <use xlink:href="#DejaVuSans-31"/>
      <use xlink:href="#DejaVuSans-65" x="63.623047"/>
      <use xlink:href="#DejaVuSans-37" x="125.146484"/>
     </g>
    </g>
   </g>
   <g id="line2d_29">
    <path d="M 78.877625 34.811625 
L 81.747827 53.494111 
L 84.621243 70.752365 
L 87.497874 86.693506 
L 90.377718 101.41671 
L 93.260777 115.013789 
L 96.150264 127.583154 
L 99.046179 139.200336 
L 101.948522 149.935481 
L 104.857293 159.853723 
L 107.775707 169.025226 
L 110.706978 177.512759 
L 113.651104 185.364352 
L 116.611302 192.632469 
L 119.587569 199.357247 
L 122.586336 205.589129 
L 125.607601 211.36028 
L 128.657794 216.711906 
L 131.740127 221.674995 
L 134.86103 226.282197 
L 138.023717 230.557918 
L 141.237829 234.532072 
L 144.513009 238.230067 
L 147.855686 241.670331 
L 151.275501 244.872086 
L 154.785311 247.854324 
L 158.397973 250.632682 
L 162.129558 253.222144 
L 165.996135 255.634586 
L 170.020203 257.882781 
L 174.224262 259.976061 
L 178.637238 261.92375 
L 183.288058 263.731905 
L 188.215292 265.407261 
L 193.463937 266.955091 
L 199.091847 268.380524 
L 205.163305 269.686177 
L 211.765091 270.875314 
L 219.003272 271.949725 
L 227.025696 272.911834 
L 236.028424 273.762988 
L 246.284656 274.504057 
L 258.202584 275.136125 
L 272.421816 275.660164 
L 290.025508 276.077144 
L 313.070692 276.388348 
L 346.233901 276.595998 
L 400.285625 276.70177 
L 400.285625 276.70177 
" clip-path="url(#pa4edc3e951)" style="fill: none; stroke: #1f77b4; stroke-width: 1.5; stroke-linecap: square"/>
   </g>
   <g id="line2d_30">
    <path d="M 78.877625 276.731618 
L 400.285625 276.731625 
L 400.285625 276.731625 
" clip-path="url(#pa4edc3e951)" style="fill: none; stroke: #ff7f0e; stroke-width: 1.5; stroke-linecap: square"/>
   </g>
   <g id="patch_3">
    <path d="M 43.165625 288.827625 
L 43.165625 22.715625 
" style="fill: none; stroke: #000000; stroke-width: 0.8; stroke-linejoin: miter; stroke-linecap: square"/>
   </g>
   <g id="patch_4">
    <path d="M 400.285625 288.827625 
L 400.285625 22.715625 
" style="fill: none; stroke: #000000; stroke-width: 0.8; stroke-linejoin: miter; stroke-linecap: square"/>
   </g>
   <g id="patch_5">
    <path d="M 43.165625 288.827625 
L 400.285625 288.827625 
" style="fill: none; stroke: #000000; stroke-width: 0.8; stroke-linejoin: miter; stroke-linecap: square"/>
   </g>
   <g id="patch_6">
    <path d="M 43.165625 22.715625 
L 400.285625 22.715625 
" style="fill: none; stroke: #000000; stroke-width: 0.8; stroke-linejoin: miter; stroke-linecap: square"/>
   </g>
   <g id="text_19">
    <!-- 指数分布の計算例 -->
    <g transform="translate(173.725625 16.715625)scale(0.12 -0.12)">
     <defs>
      <path id="MS-Gothic-6307" d="M 3375 4325 
Q 4125 4425 5275 4800 
L 5575 4375 
Q 5700 4225 5450 4275 
Q 4175 4000 3375 3900 
L 3375 3525 
Q 3375 3325 3550 3325 
L 5275 3325 
Q 5475 3325 5500 3500 
L 5575 3875 
L 6075 3750 
L 5950 3250 
Q 5850 2850 5375 2850 
L 3300 2850 
Q 2875 2850 2875 3300 
L 2875 5150 
L 3350 5150 
Q 3550 5125 3375 5000 
L 3375 4325 
z
M 850 -525 
L 775 -50 
L 1175 -50 
Q 1275 -50 1275 50 
L 1275 1575 
L 750 1400 
Q 650 1150 575 1400 
L 375 1900 
L 1275 2125 
L 1275 3575 
L 500 3575 
L 500 4050 
L 1275 4050 
L 1275 5200 
L 1750 5200 
Q 1950 5175 1775 5050 
L 1775 4050 
L 2525 4050 
L 2525 3575 
L 1775 3575 
L 1775 2275 
L 2525 2550 
L 2650 2075 
L 1775 1725 
L 1775 -125 
Q 1775 -525 1375 -525 
L 850 -525 
z
M 5150 1325 
L 5150 2025 
L 3500 2025 
L 3500 1325 
L 5150 1325 
z
M 5650 -450 
L 5150 -450 
L 5150 -200 
L 3500 -200 
L 3500 -500 
L 3000 -500 
L 3000 2425 
L 5650 2425 
L 5650 -450 
z
M 5150 925 
L 3500 925 
L 3500 200 
L 5150 200 
L 5150 925 
z
" transform="scale(0.015625)"/>
      <path id="MS-Gothic-6570" d="M 4650 1375 
Q 5000 2050 5075 3425 
L 4225 3425 
Q 4300 2050 4650 1375 
z
M 5575 3425 
Q 5525 1875 4975 925 
Q 5375 425 6100 50 
L 5775 -500 
Q 4975 25 4650 500 
Q 4075 -150 2875 -625 
L 2625 -125 
Q 3925 400 4350 950 
Q 3925 1775 3875 2600 
Q 3725 2225 3575 2025 
L 3150 2350 
Q 3900 3450 4050 5075 
L 4575 4950 
Q 4725 4850 4500 4800 
Q 4425 4350 4300 3900 
L 6000 3900 
L 6000 3425 
L 5575 3425 
z
M 3250 4625 
Q 3100 4250 2900 4000 
L 2500 4225 
Q 2700 4550 2875 4975 
L 3325 4750 
Q 3425 4650 3250 4625 
z
M 1650 1100 
Q 2000 1000 2275 875 
Q 2475 1100 2600 1550 
L 1875 1550 
Q 1775 1325 1650 1100 
z
M 1300 475 
L 900 700 
Q 1150 1075 1400 1550 
L 450 1550 
L 450 1950 
L 1550 1950 
Q 1700 2275 1775 2500 
L 2250 2375 
Q 2350 2275 2175 2250 
L 2025 1950 
L 3450 1950 
L 3450 1550 
L 3075 1550 
Q 2950 1050 2700 700 
Q 2925 600 3175 450 
L 2950 50 
Q 2675 225 2450 325 
Q 1800 -325 700 -475 
L 525 -25 
Q 1500 75 2025 525 
Q 1750 650 1475 750 
L 1300 475 
z
M 1800 5175 
L 2200 5175 
Q 2400 5150 2225 5025 
L 2225 3950 
L 3500 3950 
L 3500 3550 
L 2450 3550 
Q 2725 3225 3300 2925 
L 3025 2500 
Q 2600 2750 2225 3200 
L 2225 2600 
L 1800 2600 
L 1800 3075 
Q 1400 2575 700 2175 
L 375 2575 
Q 1150 2975 1650 3550 
L 500 3550 
L 500 3950 
L 1800 3950 
L 1800 5175 
z
M 1100 4025 
Q 925 4400 650 4675 
L 1050 4925 
Q 1350 4625 1500 4300 
L 1100 4025 
z
" transform="scale(0.015625)"/>
      <path id="MS-Gothic-306e" d="M 3450 3525 
Q 3025 1025 2425 425 
Q 2100 100 1750 100 
Q 1350 100 1125 325 
Q 525 925 525 1825 
Q 525 2925 1300 3700 
Q 2150 4550 3375 4550 
Q 4475 4550 5100 3925 
Q 5800 3225 5800 2275 
Q 5800 1250 5150 600 
Q 4725 175 3850 -225 
L 3325 300 
Q 4200 575 4700 1075 
Q 5175 1550 5175 2225 
Q 5175 3025 4650 3550 
Q 4125 4075 3000 4025 
L 3450 3800 
Q 3750 3675 3450 3525 
z
M 2875 4000 
Q 2225 3850 1750 3375 
Q 1100 2725 1100 1775 
Q 1100 1200 1475 825 
Q 1550 750 1700 750 
Q 1850 750 2025 925 
Q 2600 1500 2875 4000 
z
" transform="scale(0.015625)"/>
      <path id="MS-Gothic-8a08" d="M 4250 3125 
L 4250 5125 
L 4725 5125 
Q 4975 5075 4750 4950 
L 4750 3125 
L 6025 3125 
L 6025 2650 
L 4750 2650 
L 4750 -450 
L 4250 -450 
L 4250 2650 
L 2900 2650 
L 2900 3125 
L 4250 3125 
z
M 2700 -375 
L 2200 -375 
L 2200 -125 
L 1175 -125 
L 1175 -475 
L 675 -475 
L 675 1575 
L 2700 1575 
L 2700 -375 
z
M 1175 1175 
L 1175 275 
L 2200 275 
L 2200 1175 
L 1175 1175 
z
M 2550 2425 
L 2550 1950 
L 825 1950 
L 825 2425 
L 2550 2425 
z
M 825 3250 
L 2550 3250 
L 2550 2775 
L 825 2775 
L 825 3250 
z
M 350 4075 
L 3000 4075 
L 3000 3600 
L 350 3600 
L 350 4075 
z
M 2550 4975 
L 2550 4500 
L 825 4500 
L 825 4975 
L 2550 4975 
z
" transform="scale(0.015625)"/>
      <path id="MS-Gothic-7b97" d="M 350 525 
L 350 925 
L 2225 925 
L 2225 1300 
L 1800 1300 
L 1400 1300 
L 1400 3675 
L 3325 3675 
L 2925 3925 
Q 3425 4400 3675 5250 
L 4175 5050 
Q 4375 4975 4100 4900 
L 4000 4700 
L 5925 4700 
L 5925 4300 
L 4775 4300 
L 5000 3925 
L 4500 3800 
L 4275 4300 
L 3825 4300 
Q 3675 4025 3400 3675 
L 5000 3675 
L 5000 1300 
L 4325 1300 
L 4325 925 
L 6050 925 
L 6050 525 
L 4325 525 
L 4325 -550 
L 3825 -550 
L 3825 525 
L 2675 525 
Q 2600 -350 975 -650 
L 825 -175 
Q 2050 -25 2175 525 
L 350 525 
z
M 1875 5025 
Q 2075 4950 1800 4875 
L 1725 4700 
L 3175 4700 
L 3175 4300 
L 2400 4300 
L 2600 3925 
L 2075 3825 
L 1925 4300 
L 1550 4300 
Q 1225 3725 800 3375 
L 425 3750 
Q 1125 4350 1400 5225 
L 1875 5025 
z
M 4575 3275 
L 1825 3275 
L 1825 2950 
L 4575 2950 
L 4575 3275 
z
M 4575 2325 
L 4575 2650 
L 1825 2650 
L 1825 2325 
L 4575 2325 
z
M 4575 1700 
L 4575 2025 
L 1825 2025 
L 1825 1700 
L 4575 1700 
z
M 3825 925 
L 3825 1300 
L 2725 1300 
L 2725 925 
L 3825 925 
z
" transform="scale(0.015625)"/>
     </defs>
     <use xlink:href="#MS-Gothic-6307"/>
     <use xlink:href="#MS-Gothic-6570" x="100"/>
     <use xlink:href="#MS-Gothic-5206" x="200"/>
     <use xlink:href="#MS-Gothic-5e03" x="300"/>
     <use xlink:href="#MS-Gothic-306e" x="400"/>
     <use xlink:href="#MS-Gothic-8a08" x="500"/>
     <use xlink:href="#MS-Gothic-7b97" x="600"/>
     <use xlink:href="#MS-Gothic-4f8b" x="700"/>
    </g>
   </g>
   <g id="legend_1">
    <g id="patch_7">
     <path d="M 301.885625 63.315625 
L 393.285625 63.315625 
Q 395.285625 63.315625 395.285625 61.315625 
L 395.285625 29.715625 
Q 395.285625 27.715625 393.285625 27.715625 
L 301.885625 27.715625 
Q 299.885625 27.715625 299.885625 29.715625 
L 299.885625 61.315625 
Q 299.885625 63.315625 301.885625 63.315625 
z
" style="fill: #ffffff; opacity: 0.8; stroke: #cccccc; stroke-linejoin: miter"/>
    </g>
    <g id="line2d_31">
     <path d="M 303.885625 37.415625 
L 313.885625 37.415625 
L 323.885625 37.415625 
" style="fill: none; stroke: #1f77b4; stroke-width: 1.5; stroke-linecap: square"/>
    </g>
    <g id="text_20">
     <!-- $p(x) = \lambda e^{- \lambda x}$ -->
     <g transform="translate(331.885625 40.915625)scale(0.1 -0.1)">
      <defs>
       <path id="DejaVuSans-Oblique-70" d="M 3175 2156 
Q 3175 2616 2975 2859 
Q 2775 3103 2400 3103 
Q 2144 3103 1911 2972 
Q 1678 2841 1497 2591 
Q 1319 2344 1212 1994 
Q 1106 1644 1106 1300 
Q 1106 863 1306 627 
Q 1506 391 1875 391 
Q 2147 391 2380 519 
Q 2613 647 2778 891 
Q 2956 1147 3065 1494 
Q 3175 1841 3175 2156 
z
M 1394 2969 
Q 1625 3272 1939 3428 
Q 2253 3584 2638 3584 
Q 3175 3584 3472 3232 
Q 3769 2881 3769 2247 
Q 3769 1728 3584 1258 
Q 3400 788 3053 416 
Q 2822 169 2531 39 
Q 2241 -91 1919 -91 
Q 1547 -91 1294 64 
Q 1041 219 916 525 
L 556 -1331 
L -19 -1331 
L 922 3500 
L 1497 3500 
L 1394 2969 
z
" transform="scale(0.015625)"/>
       <path id="DejaVuSans-28" d="M 1984 4856 
Q 1566 4138 1362 3434 
Q 1159 2731 1159 2009 
Q 1159 1288 1364 580 
Q 1569 -128 1984 -844 
L 1484 -844 
Q 1016 -109 783 600 
Q 550 1309 550 2009 
Q 550 2706 781 3412 
Q 1013 4119 1484 4856 
L 1984 4856 
z
" transform="scale(0.015625)"/>
       <path id="DejaVuSans-Oblique-78" d="M 3841 3500 
L 2234 1784 
L 3219 0 
L 2559 0 
L 1819 1388 
L 531 0 
L -166 0 
L 1556 1844 
L 641 3500 
L 1300 3500 
L 1972 2234 
L 3144 3500 
L 3841 3500 
z
" transform="scale(0.015625)"/>
       <path id="DejaVuSans-29" d="M 513 4856 
L 1013 4856 
Q 1481 4119 1714 3412 
Q 1947 2706 1947 2009 
Q 1947 1309 1714 600 
Q 1481 -109 1013 -844 
L 513 -844 
Q 928 -128 1133 580 
Q 1338 1288 1338 2009 
Q 1338 2731 1133 3434 
Q 928 4138 513 4856 
z
" transform="scale(0.015625)"/>
       <path id="DejaVuSans-3d" d="M 678 2906 
L 4684 2906 
L 4684 2381 
L 678 2381 
L 678 2906 
z
M 678 1631 
L 4684 1631 
L 4684 1100 
L 678 1100 
L 678 1631 
z
" transform="scale(0.015625)"/>
       <path id="DejaVuSans-Oblique-3bb" d="M 2350 4316 
L 3125 0 
L 2516 0 
L 2038 2588 
L 328 0 
L -281 0 
L 1903 3356 
L 1794 3975 
Q 1725 4369 1391 4369 
L 1091 4369 
L 1184 4863 
L 1550 4856 
Q 2253 4847 2350 4316 
z
" transform="scale(0.015625)"/>
       <path id="DejaVuSans-Oblique-65" d="M 3078 2063 
Q 3088 2113 3092 2166 
Q 3097 2219 3097 2272 
Q 3097 2653 2873 2875 
Q 2650 3097 2266 3097 
Q 1838 3097 1509 2826 
Q 1181 2556 1013 2059 
L 3078 2063 
z
M 3578 1613 
L 903 1613 
Q 884 1494 878 1425 
Q 872 1356 872 1306 
Q 872 872 1139 634 
Q 1406 397 1894 397 
Q 2269 397 2603 481 
Q 2938 566 3225 728 
L 3116 159 
Q 2806 34 2476 -28 
Q 2147 -91 1806 -91 
Q 1078 -91 686 257 
Q 294 606 294 1247 
Q 294 1794 489 2264 
Q 684 2734 1063 3103 
Q 1306 3334 1642 3459 
Q 1978 3584 2356 3584 
Q 2950 3584 3301 3228 
Q 3653 2872 3653 2272 
Q 3653 2128 3634 1964 
Q 3616 1800 3578 1613 
z
" transform="scale(0.015625)"/>
      </defs>
      <use xlink:href="#DejaVuSans-Oblique-70" transform="translate(0 0.529687)"/>
      <use xlink:href="#DejaVuSans-28" transform="translate(63.476562 0.529687)"/>
      <use xlink:href="#DejaVuSans-Oblique-78" transform="translate(102.490234 0.529687)"/>
      <use xlink:href="#DejaVuSans-29" transform="translate(161.669922 0.529687)"/>
      <use xlink:href="#DejaVuSans-3d" transform="translate(220.166016 0.529687)"/>
      <use xlink:href="#DejaVuSans-Oblique-3bb" transform="translate(323.4375 0.529687)"/>
      <use xlink:href="#DejaVuSans-Oblique-65" transform="translate(382.617188 0.529687)"/>
      <use xlink:href="#DejaVuSans-2212" transform="translate(448.790521 38.810937)scale(0.7)"/>
      <use xlink:href="#DejaVuSans-Oblique-3bb" transform="translate(507.442865 38.810937)scale(0.7)"/>
      <use xlink:href="#DejaVuSans-Oblique-78" transform="translate(548.868646 38.810937)scale(0.7)"/>
     </g>
    </g>
    <g id="line2d_32">
     <path d="M 303.885625 53.715625 
L 313.885625 53.715625 
L 323.885625 53.715625 
" style="fill: none; stroke: #ff7f0e; stroke-width: 1.5; stroke-linecap: square"/>
    </g>
    <g id="text_21">
     <!-- $p(x) = e^{- \lambda x}$ -->
     <g transform="translate(331.885625 57.215625)scale(0.1 -0.1)">
      <use xlink:href="#DejaVuSans-Oblique-70" transform="translate(0 0.529687)"/>
      <use xlink:href="#DejaVuSans-28" transform="translate(63.476562 0.529687)"/>
      <use xlink:href="#DejaVuSans-Oblique-78" transform="translate(102.490234 0.529687)"/>
      <use xlink:href="#DejaVuSans-29" transform="translate(161.669922 0.529687)"/>
      <use xlink:href="#DejaVuSans-3d" transform="translate(220.166016 0.529687)"/>
      <use xlink:href="#DejaVuSans-Oblique-65" transform="translate(323.4375 0.529687)"/>
      <use xlink:href="#DejaVuSans-2212" transform="translate(389.610833 38.810937)scale(0.7)"/>
      <use xlink:href="#DejaVuSans-Oblique-3bb" transform="translate(448.263177 38.810937)scale(0.7)"/>
      <use xlink:href="#DejaVuSans-Oblique-78" transform="translate(489.688958 38.810937)scale(0.7)"/>
     </g>
    </g>
   </g>
  </g>
 </g>
 <defs>
  <clipPath id="pa4edc3e951">
   <rect x="43.165625" y="22.715625" width="357.12" height="266.112"/>
  </clipPath>
 </defs>
</svg>
